<?xml version="1.0" standalone="no"?>
<!DOCTYPE svg PUBLIC "-//W3C//DTD SVG 1.1//EN" "http://www.w3.org/Graphics/SVG/1.1/DTD/svg11.dtd" >
<svg xmlns="http://www.w3.org/2000/svg" xmlns:xlink="http://www.w3.org/1999/xlink" version="1.1">
<metadata>
Created by FontForge 20161003 at Sun Oct  7 09:36:44 2018
 By www-data
Copyright (c) 2011 by Tarek Atrissi Design. All rights reserved.
</metadata>
<defs>
<font id="AlJazeera-Regular" horiz-adv-x="541" >
  <font-face 
    font-family="Al Jazeera-Regular"
    font-weight="400"
    font-stretch="normal"
    units-per-em="1000"
    panose-1="1 0 5 0 0 0 0 2 0 6"
    ascent="800"
    descent="-200"
    x-height="480"
    cap-height="680"
    bbox="-155 -596 1716 1054.14"
    underline-thickness="29"
    underline-position="-479"
    unicode-range="U+0020-FEFC"
  />
<missing-glyph horiz-adv-x="477" 
d="M477 680v-680h-477v680h477zM428 46v588h-379v-588h379zM199 265q0 36 19 61l44 59q29 35 29 66q0 26 -16.5 43t-43.5 17q-28 0 -45 -16t-24 -51l-55 11q8 51 41.5 79.5t84.5 28.5t83.5 -32t32.5 -80q0 -43 -32 -84l-44 -59q-16 -22 -16 -48v-29h-58v34zM260 183v-69h-65
v69h65z" />
    <glyph glyph-name="shaddehdamatan" unicode="&#x64c;&#x651;" horiz-adv-x="0" arabic-form="isolated" 
d="M66 783q0 -8 -0.5 -18t1 -20t6.5 -16.5t15 -6.5q14 0 20.5 11t6.5 26v32l41 11v-30q0 -14 5 -22.5t16 -8.5q13 0 19.5 9.5t6.5 25.5v34l41 11v-39q0 -45 -19 -65.5t-44 -20.5q-11 0 -25 3.5t-21 11.5q-19 -32 -49 -32q-31 0 -42.5 21t-11.5 44v29zM191 961
q-5 20 -11.5 34.5t-14.5 14.5q-7 -2 -11 -7.5t-6 -12.5q-3 -8 -4 -17q0 -9 6 -13.5t15 -4.5q6 0 12.5 2t13.5 4zM43 877q9 12 26 20.5t31 8.5q10 0 22 -7.5t19 -21.5q16 7 28.5 18.5t18.5 27.5q-6 -1 -16 -2.5t-20 -1.5q-18 0 -30.5 7.5t-12.5 32.5q0 18 6 34.5t15.5 29
t21 20t22.5 7.5t20.5 -8t16 -20.5t10.5 -28.5t4 -32q0 -30 -7.5 -51.5t-20.5 -36.5t-32 -25.5t-41 -19.5q-8 26 -16.5 34.5t-19.5 8.5q-10 0 -24 -9.5t-22 -17.5z" />
    <glyph glyph-name="shaddehkasratan" unicode="&#x64d;&#x651;" horiz-adv-x="0" arabic-form="isolated" 
d="M59 986q0 -8 -0.5 -18t1 -20t6.5 -16.5t15 -6.5q14 0 20.5 11t6.5 26v32l41 11v-30q0 -14 5 -22.5t16 -8.5q13 0 19.5 9.5t6.5 25.5v34l41 11v-39q0 -45 -19 -65.5t-44 -20.5q-11 0 -25 3.5t-21 11.5q-19 -32 -49 -32q-31 0 -42.5 21t-11.5 44v29zM22 736l203 57v-45
l-203 -57v45zM22 819l203 57v-45l-203 -57v45z" />
    <glyph glyph-name="shaddehfatha" unicode="&#x64e;&#x651;" horiz-adv-x="0" arabic-form="isolated" 
d="M66 783q0 -8 -0.5 -18t1 -20t6.5 -16.5t15 -6.5q14 0 20.5 11t6.5 26v32l41 11v-30q0 -14 5 -22.5t16 -8.5q13 0 19.5 9.5t6.5 25.5v34l41 11v-39q0 -45 -19 -65.5t-44 -20.5q-11 0 -25 3.5t-21 11.5q-19 -32 -49 -32q-31 0 -42.5 21t-11.5 44v29zM38 856l203 57v-45
l-203 -57v45z" />
    <glyph glyph-name="shaddehdamma" unicode="&#x64f;&#x651;" horiz-adv-x="0" arabic-form="isolated" 
d="M20 783q0 -8 -0.5 -18t1 -20t6.5 -16.5t15 -6.5q14 0 20.5 11t6.5 26v32l41 11v-30q0 -14 5 -22.5t16 -8.5q13 0 19.5 9.5t6.5 25.5v34l41 11v-39q0 -45 -19 -65.5t-44 -20.5q-11 0 -25 3.5t-21 11.5q-19 -32 -49 -32q-31 0 -42.5 21t-11.5 44v29zM35 872q23 8 46.5 20
t32.5 35q-8 -1 -20.5 -3t-25 -0.5t-22.5 8t-11 22.5q-2 19 3.5 37t14.5 31.5t21 22t24 9.5q9 1 18 -5t16.5 -16.5t12.5 -24t6 -27.5q2 -39 -6.5 -64t-25 -41.5t-38.5 -26.5t-46 -19v42zM116 965q-4 20 -11 35t-15 14q-9 -2 -14 -14.5t-6 -18.5q-2 -19 13.5 -21t32.5 5z" />
    <glyph glyph-name="shaddehkasra" unicode="&#x650;&#x651;" horiz-adv-x="0" arabic-form="isolated" 
d="M38 736l203 57v-45l-203 -57v45zM66 899q0 -8 -0.5 -18t1 -20t6.5 -16.5t15 -6.5q14 0 20.5 11t6.5 26v32l41 11v-30q0 -14 5 -22.5t16 -8.5q13 0 19.5 9.5t6.5 25.5v34l41 11v-39q0 -45 -19 -65.5t-44 -20.5q-11 0 -25 3.5t-21 11.5q-19 -32 -49 -32q-31 0 -42.5 21
t-11.5 44v29z" />
    <glyph glyph-name="aleffathatanfina" unicode="&#xfe8e;&#x64b;" horiz-adv-x="248" arabic-form="final" 
d="M74 642l77 22v-575h112v-89h-189v642zM24 736l203 57v-45l-203 -57v45zM24 819l203 57v-45l-203 -57v45z" />
    <glyph glyph-name="aleffathataniso" unicode="&#x627;&#x64b;" horiz-adv-x="208" arabic-form="isolated" 
d="M61 642l77 22v-664h-77v642zM0 736l203 57v-45l-203 -57v45zM0 819l203 57v-45l-203 -57v45z" />
    <glyph glyph-name="lamalefmaddaaboveiso" unicode="&#xfedf;&#xfe82;" horiz-adv-x="499" arabic-form="isolated" 
d="M51 655q25 -23 60.5 -51t73 -60.5t75 -68.5t67.5 -75q2 2 7 10.5t10.5 20.5t9.5 26t4 26v159l77 22v-184q0 -80 -60 -149q83 -128 83 -228v-103h-423v119q37 24 73.5 53.5t68.5 58.5t58.5 55.5l43.5 43.5q-28 39 -63.5 74.5t-72.5 67t-72 58t-61 47.5zM385 89
q-2 22 -7.5 45.5t-14.5 46.5t-20.5 44t-24.5 38q-18 -19 -39.5 -41.5t-45.5 -46t-49 -46t-51 -40.5h252zM-24 783q26 -14 78.5 -19t115.5 6q17 3 36 6.5t36 6.5q88 16 144 0.5t88 -64.5q-25 14 -75 20t-113 -5q-20 -4 -41 -9t-41 -8q-83 -14 -140.5 2t-87.5 64z" />
    <glyph glyph-name="lamalefmaddaabovefina" unicode="&#xfee0;&#xfe82;" horiz-adv-x="659" arabic-form="final" 
d="M112 508q5 3 16.5 7.5t22.5 9.5q13 5 27 11q30 -47 57 -108.5t49.5 -123.5t40 -119t28.5 -96h14q19 0 35.5 1.5t28.5 9t19 24t7 46.5v470l77 24v-532q0 -16 4.5 -24.5t12 -12.5t18.5 -5t25 -1h80v-89h-35q-48 0 -82 13.5t-51 43.5q-11 -14 -23.5 -25t-30 -18t-41.5 -10.5
t-59 -3.5h-332l24 89h236q-9 37 -24 88t-36 107.5t-48 114.5t-60 109zM-89 644q26 -14 78.5 -19t115.5 6q17 3 36 6.5t36 6.5q88 16 144 0.5t88 -64.5q-25 14 -75 20t-113 -5q-20 -4 -41 -9t-41 -8q-83 -14 -140.5 2t-87.5 64z" />
    <glyph glyph-name="lamalefhamzaaboveiso" unicode="&#xfedf;&#xfe84;" horiz-adv-x="499" arabic-form="isolated" 
d="M51 655q25 -23 60.5 -51t73 -60.5t75 -68.5t67.5 -75q2 2 7 10.5t10.5 20.5t9.5 26t4 26v159l77 22v-184q0 -80 -60 -149q83 -128 83 -228v-103h-423v119q37 24 73.5 53.5t68.5 58.5t58.5 55.5l43.5 43.5q-28 39 -63.5 74.5t-72.5 67t-72 58t-61 47.5zM385 89
q-2 22 -7.5 45.5t-14.5 46.5t-20.5 44t-24.5 38q-18 -19 -39.5 -41.5t-45.5 -46t-49 -46t-51 -40.5h252zM138 734l68 21q-22 5 -34 27t-12 41q0 27 11 49.5t29 38.5t40.5 25.5t45.5 10.5t44 -6t36 -25l-42 -38q-13 10 -31 13t-34.5 -1.5t-28 -16.5t-11.5 -30
q0 -15 6.5 -26.5t16 -19.5t20 -12.5t19.5 -5.5l89 26v-53l-232 -69v51z" />
    <glyph glyph-name="lamalefhamzaabovefina" unicode="&#xfee0;&#xfe84;" horiz-adv-x="659" arabic-form="final" 
d="M112 508q5 3 16.5 7.5t22.5 9.5q13 5 27 11q30 -47 57 -108.5t49.5 -123.5t40 -119t28.5 -96h14q19 0 35.5 1.5t28.5 9t19 24t7 46.5v470l77 24v-532q0 -16 4.5 -24.5t12 -12.5t18.5 -5t25 -1h80v-89h-35q-48 0 -82 13.5t-51 43.5q-11 -14 -23.5 -25t-30 -18t-41.5 -10.5
t-59 -3.5h-332l24 89h236q-9 37 -24 88t-36 107.5t-48 114.5t-60 109zM48 615l68 21q-22 5 -34 27t-12 41q0 27 11 49.5t29 38.5t40.5 25.5t45.5 10.5t44 -6t36 -25l-42 -38q-13 10 -31 13t-34.5 -1.5t-28 -16.5t-11.5 -30q0 -15 6.5 -26.5t16 -19.5t20 -12.5t19.5 -5.5
l89 26v-53l-232 -69v51z" />
    <glyph glyph-name="lamalefhamzabelowiso" unicode="&#xfedf;&#xfe88;" horiz-adv-x="499" arabic-form="isolated" 
d="M51 655q25 -23 60.5 -51t73 -60.5t75 -68.5t67.5 -75q2 2 7 10.5t10.5 20.5t9.5 26t4 26v159l77 22v-184q0 -80 -60 -149q83 -128 83 -228v-103h-423v119q37 24 73.5 53.5t68.5 58.5t58.5 55.5l43.5 43.5q-28 39 -63.5 74.5t-72.5 67t-72 58t-61 47.5zM385 89
q-2 22 -7.5 45.5t-14.5 46.5t-20.5 44t-24.5 38q-18 -19 -39.5 -41.5t-45.5 -46t-49 -46t-51 -40.5h252zM101 -273l68 21q-22 5 -34 27t-12 41q0 27 11 49.5t29 38.5t40.5 25.5t45.5 10.5t44 -6t36 -25l-42 -38q-13 10 -31 13t-34.5 -1.5t-28 -16.5t-11.5 -30
q0 -15 6.5 -26.5t16 -19.5t20 -12.5t19.5 -5.5l89 26v-53l-232 -69v51z" />
    <glyph glyph-name="lamalefhamzabelowfina" unicode="&#xfee0;&#xfe88;" horiz-adv-x="659" arabic-form="final" 
d="M112 508q5 3 16.5 7.5t22.5 9.5q13 5 27 11q30 -47 57 -108.5t49.5 -123.5t40 -119t28.5 -96h14q19 0 35.5 1.5t28.5 9t19 24t7 46.5v470l77 24v-532q0 -16 4.5 -24.5t12 -12.5t18.5 -5t25 -1h80v-89h-35q-48 0 -82 13.5t-51 43.5q-11 -14 -23.5 -25t-30 -18t-41.5 -10.5
t-59 -3.5h-332l24 89h236q-9 37 -24 88t-36 107.5t-48 114.5t-60 109zM131 -273l68 21q-22 5 -34 27t-12 41q0 27 11 49.5t29 38.5t40.5 25.5t45.5 10.5t44 -6t36 -25l-42 -38q-13 10 -31 13t-34.5 -1.5t-28 -16.5t-11.5 -30q0 -15 6.5 -26.5t16 -19.5t20 -12.5t19.5 -5.5
l89 26v-53l-232 -69v51z" />
    <glyph glyph-name="lamalefiso" unicode="&#xfedf;&#xfe8e;" horiz-adv-x="499" arabic-form="isolated" 
d="M51 655q25 -23 60.5 -51t73 -60.5t75 -68.5t67.5 -75q2 2 7 10.5t10.5 20.5t9.5 26t4 26v159l77 22v-184q0 -80 -60 -149q83 -128 83 -228v-103h-423v119q37 24 73.5 53.5t68.5 58.5t58.5 55.5l43.5 43.5q-28 39 -63.5 74.5t-72.5 67t-72 58t-61 47.5zM385 89
q-2 22 -7.5 45.5t-14.5 46.5t-20.5 44t-24.5 38q-18 -19 -39.5 -41.5t-45.5 -46t-49 -46t-51 -40.5h252z" />
    <glyph glyph-name="lamaleffina" unicode="&#xfee0;&#xfe8e;" horiz-adv-x="659" arabic-form="final" 
d="M112 508q5 3 16.5 7.5t22.5 9.5q13 5 27 11q30 -47 57 -108.5t49.5 -123.5t40 -119t28.5 -96h14q19 0 35.5 1.5t28.5 9t19 24t7 46.5v470l77 24v-532q0 -16 4.5 -24.5t12 -12.5t18.5 -5t25 -1h80v-89h-35q-48 0 -82 13.5t-51 43.5q-11 -14 -23.5 -25t-30 -18t-41.5 -10.5
t-59 -3.5h-332l24 89h236q-9 37 -24 88t-36 107.5t-48 114.5t-60 109z" />
    <glyph glyph-name="lilah" unicode="&#x627;&#xfedf;&#xfee0;&#xfeea;" horiz-adv-x="1399" 
d="M783 89h234v553l77 22v-664h-671q-22 14 -30.5 29.5t-8.5 16.5q0 -1 -4.5 -8.5t-17.5 -15.5t-37.5 -15t-64.5 -7q-96 0 -141 48.5t-45 133.5q0 40 22 78t69 69.5t120 54.5t174 34v-329h247v492l77 22v-514zM160 181q0 -35 8.5 -53.5t21.5 -27t29.5 -10t32.5 -1.5h130v242
q-61 -11 -103.5 -27t-68.5 -35.5t-38 -41.5t-12 -46zM717 877l41 13v-124l-41 -12v123zM668 724q0 -8 -0.5 -18t1 -20t6.5 -16.5t15 -6.5q14 0 20.5 11t6.5 26v32l41 11v-30q0 -14 5 -22.5t16 -8.5q13 0 19.5 9.5t6.5 25.5v34l41 11v-39q0 -45 -19 -65.5t-44 -20.5
q-11 0 -25 3.5t-21 11.5q-19 -32 -49 -32q-31 0 -42.5 21t-11.5 44v29zM1252 0h77v664l-77 -22v-642z" />
    <glyph glyph-name="shaddahfathatan" unicode="&#x64b;&#x651;" horiz-adv-x="0" 
d="M66 783q0 -8 -0.5 -18t1 -20t6.5 -16.5t15 -6.5q14 0 20.5 11t6.5 26v32l41 11v-30q0 -14 5 -22.5t16 -8.5q13 0 19.5 9.5t6.5 25.5v34l41 11v-39q0 -45 -19 -65.5t-44 -20.5q-11 0 -25 3.5t-21 11.5q-19 -32 -49 -32q-31 0 -42.5 21t-11.5 44v29zM30 852l203 57v-45
l-203 -57v45zM30 935l203 57v-45l-203 -57v45z" />
    <glyph glyph-name="lammeeminitial" unicode="&#xfedf;&#xfee4;" horiz-adv-x="791" arabic-form="initial" 
d="M658 89v553l77 22v-664h-310q-14 -26 -23.5 -32.5t-24.5 -6.5q-13 0 -28 7q-30 12 -80.5 34.5t-123.5 59.5q-17 -38 -41 -50t-66 -12h-53v89h87q30 66 64.5 123.5t67 100t60 67t43.5 24.5q23 0 43.5 -19t36.5 -48.5t28.5 -66t20.5 -71.5t11.5 -64.5t2.5 -45.5h208z
M373 56q-4 45 -10 89.5t-15 80t-20.5 57t-26.5 21.5q-14 0 -33 -20t-37 -46t-32 -51t-19 -35q21 -16 46 -30.5t50.5 -27t50.5 -22.5t46 -16z" />
    <glyph glyph-name="faya" unicode="&#xfed3;&#xfef2;" horiz-adv-x="1420" 
d="M1368 105q0 -105 -75 -105h-527q0 82 -7.5 140.5t-20 97.5t-28.5 62t-32.5 35t-32.5 15t-28 3q-29 0 -58.5 -10.5t-53.5 -30.5t-39 -48.5t-15 -64.5q0 -10 4.5 -22t20.5 -12h114q15 0 28 -2t22.5 -10t15 -25.5t5.5 -47.5q0 -68 -17.5 -112.5t-53.5 -70.5t-92.5 -37
t-134.5 -11q-59 0 -106.5 19t-81 49t-52 67.5t-18.5 74.5q0 46 7 81.5t18 62.5t24 47.5t25 37.5h60q-22 -41 -39 -87.5t-17 -91.5q0 -48 12.5 -80t36 -51.5t57 -27.5t75.5 -8q88 0 134 12.5t65.5 32t21 44.5t1.5 50q0 12 -16 12h-72q-39 0 -64.5 3t-40.5 10.5t-21 21
t-6 34.5q0 39 15.5 84.5t47 84t80.5 64t117 25.5q65 0 105.5 -33.5t64 -84t34 -108t14.5 -105.5h280q-20 12 -39 29t-34.5 37t-25 42.5t-9.5 46.5q0 33 9.5 65.5t32 59t59.5 43t92 16.5q51 0 82 -23t48 -59t23 -80t6 -87v-74zM1291 94q0 73 -1.5 123.5t-10.5 82t-29.5 46
t-58.5 14.5q-29 0 -48 -6.5t-30 -18.5t-15 -30t-4 -41q0 -30 14.5 -59t41 -53t62.5 -39.5t79 -18.5zM254 -284q0 24 16 40t39 16t38.5 -16t15.5 -40q0 -23 -15.5 -38t-38.5 -15t-39 15t-16 38zM1131 546q0 24 16 40t39 16t38.5 -16t15.5 -40q0 -23 -15.5 -38t-38.5 -15
t-39 15t-16 38zM418 -284q0 24 16 40t39 16t38.5 -16t15.5 -40q0 -23 -15.5 -38t-38.5 -15t-39 15t-16 38z" />
    <glyph glyph-name="ala" unicode="&#xfecb;&#xfee0;&#xfbfd;" horiz-adv-x="1756" 
d="M1057 89h267q-19 38 -25.5 78.5t-6.5 78.5q0 81 59.5 127.5t164.5 49.5q42 2 95 -5t101 -16v-75q-15 4 -37.5 9t-49 9t-55 6.5t-55.5 2.5t-52 -6t-44.5 -19.5t-31 -34t-11.5 -48.5q0 -44 13.5 -87.5t28.5 -69.5h298v-89h-1010q0 82 -7.5 140.5t-20 97.5t-28.5 62
t-32.5 35t-32.5 15t-28 3q-29 0 -58.5 -10.5t-53.5 -30.5t-39 -48.5t-15 -64.5q0 -10 4.5 -22t20.5 -12h114q15 0 28 -2t22.5 -10t15 -25.5t5.5 -47.5q0 -68 -17.5 -112.5t-53.5 -70.5t-92.5 -37t-134.5 -11q-59 0 -106.5 19t-81 49t-52 67.5t-18.5 74.5q0 46 7 81.5
t18 62.5t24 47.5t25 37.5h60q-22 -41 -39 -87.5t-17 -91.5q0 -48 12.5 -80t36 -51.5t57 -27.5t75.5 -8q88 0 134 12.5t65.5 32t21 44.5t1.5 50q0 12 -16 12h-72q-39 0 -64.5 3t-40.5 10.5t-21 21t-6 34.5q0 39 15.5 84.5t47 84t80.5 64t117 25.5q65 0 105.5 -33.5t64 -84
t34 -108t14.5 -105.5h196v553l77 22v-575z" />
    <glyph glyph-name="lilahshort" unicode="&#xfedf;&#xfee0;&#xfeea;" horiz-adv-x="1164" 
d="M783 89h234v553l77 22v-664h-671q-22 14 -30.5 29.5t-8.5 16.5q0 -1 -4.5 -8.5t-17.5 -15.5t-37.5 -15t-64.5 -7q-96 0 -141 48.5t-45 133.5q0 40 22 78t69 69.5t120 54.5t174 34v-329h247v492l77 22v-514zM160 181q0 -35 8.5 -53.5t21.5 -27t29.5 -10t32.5 -1.5h130v242
q-61 -11 -103.5 -27t-68.5 -35.5t-38 -41.5t-12 -46zM717 877l41 13v-124l-41 -12v123zM668 724q0 -8 -0.5 -18t1 -20t6.5 -16.5t15 -6.5q14 0 20.5 11t6.5 26v32l41 11v-30q0 -14 5 -22.5t16 -8.5q13 0 19.5 9.5t6.5 25.5v34l41 11v-39q0 -45 -19 -65.5t-44 -20.5
q-11 0 -25 3.5t-21 11.5q-19 -32 -49 -32q-31 0 -42.5 21t-11.5 44v29z" />
    <glyph glyph-name="hamza" unicode="&#x621;" horiz-adv-x="415" arabic-form="isolated" 
d="M39 -9q22 18 51 37t53 34q-16 3 -29.5 14.5t-23 27.5t-15 32.5t-5.5 30.5q0 30 14.5 57t38 47.5t53.5 33.5t61.5 15.5t62 -7.5t54.5 -35l-64 -58q-21 21 -48 24q-42 4 -62.5 -14t-23.5 -47q-2 -20 6.5 -35.5t22 -26.5t29.5 -16t29 -2q23 5 41.5 10t35.5 10t33.5 9t35.5 6
q-10 -22 -19 -53.5t-17 -61.5q-40 0 -81.5 -8.5t-82 -23t-79 -34t-71.5 -41.5v75z" />
    <glyph glyph-name="alefmaddaaboveiso" unicode="&#x622;" horiz-adv-x="208" arabic-form="isolated" 
d="M61 642l77 22v-664h-77v642zM-137 783q26 -14 78.5 -19t115.5 6q17 3 36 6.5t36 6.5q88 16 144 0.5t88 -64.5q-25 14 -75 20t-113 -5q-20 -4 -41 -9t-41 -8q-83 -14 -140.5 2t-87.5 64z" />
    <glyph glyph-name="alefhamzaaboveiso" unicode="&#x623;" horiz-adv-x="208" arabic-form="isolated" 
d="M61 0h77v632l-77 -22v-610zM24 678l44 14q-14 3 -22 17.5t-8 27.5q0 26 15.5 45.5t37.5 28.5t44.5 6.5t37.5 -19.5l-27 -25q-9 7 -20.5 8.5t-22.5 -1.5t-18.5 -10.5t-7.5 -19.5q1 -20 15 -30.5t26 -11.5l58 17v-35l-152 -45v33z" />
    <glyph glyph-name="wawhamzaiso" unicode="&#x624;" horiz-adv-x="446" arabic-form="isolated" 
d="M147 -157q46 3 84 21q16 7 32 18.5t29.5 28t23.5 38.5t13 51h-113q-91 0 -136 40.5t-45 125.5q0 39 19 77.5t61 71.5t107.5 58t158.5 38q14 -85 23 -188t5 -223q-1 -24 -12 -60.5t-38 -71t-73 -62t-117 -33.5zM330 89v19q0 24 -1 51.5t-3 55.5t-4.5 56t-5.5 52
q-105 -25 -151.5 -62.5t-48.5 -92.5q0 -15 3.5 -29t13.5 -25.5t26 -18t42 -6.5h129zM106 483l68 21q-22 5 -34 27t-12 41q0 27 11 49.5t29 38.5t40.5 25.5t45.5 10.5t44 -6t36 -25l-42 -38q-13 10 -31 13t-34.5 -1.5t-28 -16.5t-11.5 -30q0 -15 6.5 -26.5t16 -19.5t20 -12.5
t19.5 -5.5l89 26v-53l-232 -69v51z" />
    <glyph glyph-name="alefhamzabelowiso" unicode="&#x625;" horiz-adv-x="208" arabic-form="isolated" 
d="M61 642l77 22v-664h-77v642zM-20 -273l68 21q-22 5 -34 27t-12 41q0 27 11 49.5t29 38.5t40.5 25.5t45.5 10.5t44 -6t36 -25l-42 -38q-13 10 -31 13t-34.5 -1.5t-28 -16.5t-11.5 -30q0 -15 6.5 -26.5t16 -19.5t20 -12.5t19.5 -5.5l89 26v-53l-232 -69v51z" />
    <glyph glyph-name="hamzakirsehiso" unicode="&#x626;" horiz-adv-x="651" arabic-form="isolated" 
d="M551 354q-29 0 -57.5 -10.5t-51 -31t-37 -49t-14.5 -64.5q0 -10 4.5 -22t20.5 -12h114q15 0 28 -2t22.5 -10t15 -25.5t5.5 -47.5q0 -68 -17.5 -112.5t-53.5 -70.5t-92.5 -37t-134.5 -11q-59 0 -106.5 19t-81 49t-52 67.5t-18.5 74.5q0 46 7 81.5t18 62.5t24 47.5t25 37.5
h60q-22 -41 -39 -87.5t-17 -91.5q0 -48 12.5 -80t36 -51.5t57 -27.5t75.5 -8q88 0 134 12.5t65.5 32t21 44.5t1.5 50q0 12 -16 12h-72q-39 0 -64.5 3t-40.5 10.5t-21 21t-6 34.5q0 39 15.5 84.5t47 84t80.5 64t117 25.5q20 0 27.5 -8.5t7.5 -20.5q0 -5 -1.5 -12.5
t-4.5 -14.5t-7 -12t-10 -5t-12.5 3.5t-14.5 3.5zM96 394l68 21q-22 5 -34 27t-12 41q0 27 11 49.5t29 38.5t40.5 25.5t45.5 10.5t44 -6t36 -25l-42 -38q-13 10 -31 13t-34.5 -1.5t-28 -16.5t-11.5 -30q0 -15 6.5 -26.5t16 -19.5t20 -12.5t19.5 -5.5l89 26v-53l-232 -69v51z
" />
    <glyph glyph-name="alefiso" unicode="&#x627;" horiz-adv-x="208" arabic-form="isolated" 
d="M61 642l77 22v-664h-77v642z" />
    <glyph glyph-name="behiso" unicode="&#x628;" horiz-adv-x="822" arabic-form="isolated" 
d="M695 89v313l77 22v-424h-529q-42 0 -78 7t-63 23t-42 42t-15 63q0 56 10.5 96.5t25 69.5t30.5 50.5t27 40.5h70q-35 -56 -57.5 -110.5t-23.5 -97.5t24.5 -69t88.5 -26h455zM377 -141q0 24 16 40t39 16t38.5 -16t15.5 -40q0 -23 -15.5 -38t-38.5 -15t-39 15t-16 38z" />
    <glyph glyph-name="taiso" unicode="&#x62a;" horiz-adv-x="822" arabic-form="isolated" 
d="M695 89v313l77 22v-424h-529q-42 0 -78 7t-63 23t-42 42t-15 63q0 56 10.5 96.5t25 69.5t30.5 50.5t27 40.5h70q-35 -56 -57.5 -110.5t-23.5 -97.5t24.5 -69t88.5 -26h455zM306 546q0 24 16 40t39 16t38.5 -16t15.5 -40q0 -23 -15.5 -38t-38.5 -15t-39 15t-16 38z
M470 546q0 24 16 40t39 16t38.5 -16t15.5 -40q0 -23 -15.5 -38t-38.5 -15t-39 15t-16 38z" />
    <glyph glyph-name="thaiso" unicode="&#x62b;" horiz-adv-x="822" arabic-form="isolated" 
d="M695 89v313l77 22v-424h-529q-42 0 -78 7t-63 23t-42 42t-15 63q0 56 10.5 96.5t25 69.5t30.5 50.5t27 40.5h70q-35 -56 -57.5 -110.5t-23.5 -97.5t24.5 -69t88.5 -26h455zM315 546q0 24 16 40t39 16t38.5 -16t15.5 -40q0 -23 -15.5 -38t-38.5 -15t-39 15t-16 38z
M479 546q0 24 16 40t39 16t38.5 -16t15.5 -40q0 -23 -15.5 -38t-38.5 -15t-39 15t-16 38zM395 682q0 24 16 40t39 16t38.5 -16t15.5 -40q0 -23 -15.5 -38t-38.5 -15t-39 15t-16 38z" />
    <glyph glyph-name="jeemiso" unicode="&#x62c;" horiz-adv-x="643" arabic-form="isolated" 
d="M603 218q-62 4 -120.5 -7t-111 -32t-96.5 -51t-76 -64.5t-50 -71.5t-18 -73q0 -44 20.5 -72.5t57.5 -45t89 -23.5t115 -7q28 0 58 2t62 6l-1 -73q-89 -24 -172 -24q-57 0 -112.5 13.5t-100 39.5t-72 64t-27.5 88q0 63 26.5 123t77 111.5t122.5 91t164 62.5q-14 4 -39 15
t-55 22.5t-62 20.5t-60 9q-13 0 -29 -4.5t-32.5 -13t-32.5 -21t-29 -28.5l-54 46q16 19 38 37.5t47.5 33t52.5 23.5t53 9q29 0 73 -18.5t104 -38.5q57 -19 101.5 -28t88.5 -10v-111zM334 -12q0 24 16 40t39 16t38.5 -16t15.5 -40q0 -23 -15.5 -38t-38.5 -15t-39 15t-16 38z
" />
    <glyph glyph-name="haaiso" unicode="&#x62d;" horiz-adv-x="643" arabic-form="isolated" 
d="M603 218q-62 4 -120.5 -7t-111 -32t-96.5 -51t-76 -64.5t-50 -71.5t-18 -73q0 -44 20.5 -72.5t57.5 -45t89 -23.5t115 -7q28 0 58 2t62 6l-1 -73q-89 -24 -172 -24q-57 0 -112.5 13.5t-100 39.5t-72 64t-27.5 88q0 63 26.5 123t77 111.5t122.5 91t164 62.5q-14 4 -39 15
t-55 22.5t-62 20.5t-60 9q-13 0 -29 -4.5t-32.5 -13t-32.5 -21t-29 -28.5l-54 46q16 19 38 37.5t47.5 33t52.5 23.5t53 9q29 0 73 -18.5t104 -38.5q57 -19 101.5 -28t88.5 -10v-111z" />
    <glyph glyph-name="khaiso" unicode="&#x62e;" horiz-adv-x="643" arabic-form="isolated" 
d="M603 218q-62 4 -120.5 -7t-111 -32t-96.5 -51t-76 -64.5t-50 -71.5t-18 -73q0 -44 20.5 -72.5t57.5 -45t89 -23.5t115 -7q28 0 58 2t62 6l-1 -73q-89 -24 -172 -24q-57 0 -112.5 13.5t-100 39.5t-72 64t-27.5 88q0 63 26.5 123t77 111.5t122.5 91t164 62.5q-14 4 -39 15
t-55 22.5t-62 20.5t-60 9q-13 0 -29 -4.5t-32.5 -13t-32.5 -21t-29 -28.5l-54 46q16 19 38 37.5t47.5 33t52.5 23.5t53 9q29 0 73 -18.5t104 -38.5q57 -19 101.5 -28t88.5 -10v-111zM275 546q0 24 16 40t39 16t38.5 -16t15.5 -40q0 -23 -15.5 -38t-38.5 -15t-39 15t-16 38z
" />
    <glyph glyph-name="daliso" unicode="&#x62f;" horiz-adv-x="510" arabic-form="isolated" 
d="M55 104q11 -4 24 -8q11 -3 26 -5t33 -2h241q-1 30 -10 68.5t-30.5 77.5t-57.5 74t-91 59l23 84q46 -14 91.5 -51.5t82.5 -89.5t60 -114t23 -125v-72h-341q-18 0 -32 2.5t-25 5.5q-12 4 -22 8z" />
    <glyph glyph-name="zaliso" unicode="&#x630;" horiz-adv-x="510" arabic-form="isolated" 
d="M55 104q11 -4 24 -8q11 -3 26 -5t33 -2h241q-1 30 -10 68.5t-30.5 77.5t-57.5 74t-91 59l23 84q46 -14 91.5 -51.5t82.5 -89.5t60 -114t23 -125v-72h-341q-18 0 -32 2.5t-25 5.5q-12 4 -22 8zM173 546q0 24 16 40t39 16t38.5 -16t15.5 -40q0 -23 -15.5 -38t-38.5 -15
t-39 15t-16 38z" />
    <glyph glyph-name="raiso" unicode="&#x631;" horiz-adv-x="306" arabic-form="isolated" 
d="M233 429q15 -86 25.5 -195t6.5 -234q-1 -26 -12 -63.5t-40.5 -73.5t-79.5 -62t-129 -29l-24 74q57 4 103 24q19 9 38 22t33.5 31.5t23.5 44t9 58.5q0 90 -5 189t-28 190z" />
    <glyph glyph-name="zaiso" unicode="&#x632;" horiz-adv-x="306" arabic-form="isolated" 
d="M233 429q15 -86 25.5 -195t6.5 -234q-1 -26 -12 -63.5t-40.5 -73.5t-79.5 -62t-129 -29l-24 74q57 4 103 24q19 9 38 22t33.5 31.5t23.5 44t9 58.5q0 90 -5 189t-28 190zM104 546q0 24 16 40t39 16t38.5 -16t15.5 -40q0 -23 -15.5 -38t-38.5 -15t-39 15t-16 38z" />
    <glyph glyph-name="seeniso" unicode="&#x633;" horiz-adv-x="1080" arabic-form="isolated" 
d="M191 233q-26 -43 -47 -96.5t-21 -104.5q0 -48 12.5 -80.5t36 -52t57 -27.5t75.5 -8q68 0 118 31t64 88q2 10 4 21t2 22v376l77 22v-335h150v313l77 22v-335h151v313l77 22v-424h-455q-21 -121 -89.5 -175t-176.5 -54q-59 0 -106.5 19t-81 49.5t-52 68t-18.5 74.5
q0 54 9.5 93t23.5 68.5t29 50.5t27 39h57z" />
    <glyph glyph-name="sheeniso" unicode="&#x634;" horiz-adv-x="1080" arabic-form="isolated" 
d="M191 233q-26 -43 -47 -96.5t-21 -104.5q0 -48 12.5 -80.5t36 -52t57 -27.5t75.5 -8q68 0 118 31t64 88q2 10 4 21t2 22v376l77 22v-335h150v313l77 22v-335h151v313l77 22v-424h-455q-21 -121 -89.5 -175t-176.5 -54q-59 0 -106.5 19t-81 49.5t-52 68t-18.5 74.5
q0 54 9.5 93t23.5 68.5t29 50.5t27 39h57zM625 546q0 24 16 40t39 16t38.5 -16t15.5 -40q0 -23 -15.5 -38t-38.5 -15t-39 15t-16 38zM789 546q0 24 16 40t39 16t38.5 -16t15.5 -40q0 -23 -15.5 -38t-38.5 -15t-39 15t-16 38zM705 682q0 24 16 40t39 16t38.5 -16t15.5 -40
q0 -23 -15.5 -38t-38.5 -15t-39 15t-16 38z" />
    <glyph glyph-name="sadiso" unicode="&#x635;" horiz-adv-x="1165" arabic-form="isolated" 
d="M1023 89v74q0 28 -4.5 55t-19 48.5t-40 34.5t-67.5 13q-28 0 -66.5 -16.5t-80.5 -46.5t-84.5 -71.5t-79.5 -90.5h442zM492 44v267l77 25v-63v-88q98 103 185.5 152t165.5 49q57 0 91.5 -26.5t54 -67.5t26.5 -89.5t8 -93.5v-109h-531q-21 -121 -89.5 -175t-176.5 -54
q-59 0 -106.5 19t-81 49.5t-52 68t-18.5 74.5q0 54 9.5 93t23.5 68.5t29 50.5t27 39h57q-26 -43 -47 -96.5t-21 -104.5q0 -48 12.5 -80.5t36 -52t57 -27.5t75.5 -8q68 0 118 31t64 88q2 10 4 21t2 22v18z" />
    <glyph glyph-name="dadiso" unicode="&#x636;" horiz-adv-x="1165" arabic-form="isolated" 
d="M1023 89v74q0 28 -4.5 55t-19 48.5t-40 34.5t-67.5 13q-28 0 -66.5 -16.5t-80.5 -46.5t-84.5 -71.5t-79.5 -90.5h442zM492 44v267l77 25v-63v-88q98 103 185.5 152t165.5 49q57 0 91.5 -26.5t54 -67.5t26.5 -89.5t8 -93.5v-109h-531q-21 -121 -89.5 -175t-176.5 -54
q-59 0 -106.5 19t-81 49.5t-52 68t-18.5 74.5q0 54 9.5 93t23.5 68.5t29 50.5t27 39h57q-26 -43 -47 -96.5t-21 -104.5q0 -48 12.5 -80.5t36 -52t57 -27.5t75.5 -8q68 0 118 31t64 88q2 10 4 21t2 22v18zM692 546q0 24 16 40t39 16t38.5 -16t15.5 -40q0 -23 -15.5 -38
t-38.5 -15t-39 15t-16 38z" />
    <glyph glyph-name="tahiso" unicode="&#x637;" horiz-adv-x="812" arabic-form="isolated" 
d="M670 89v74q0 28 -4.5 55t-19 48.5t-40 34.5t-67.5 13q-28 0 -66.5 -16.5t-80.5 -46.5t-85 -71.5t-80 -90.5h443zM139 89v553l77 25v-482q98 103 185.5 152t165.5 49q57 0 91.5 -26.5t54 -67.5t26.5 -89.5t8 -93.5v-37v-72h-702v89h94z" />
    <glyph glyph-name="zadiso" unicode="&#x638;" horiz-adv-x="812" arabic-form="isolated" 
d="M670 89v74q0 28 -4.5 55t-19 48.5t-40 34.5t-67.5 13q-28 0 -66.5 -16.5t-80.5 -46.5t-85 -71.5t-80 -90.5h443zM139 89v553l77 25v-482q98 103 185.5 152t165.5 49q57 0 91.5 -26.5t54 -67.5t26.5 -89.5t8 -93.5v-37v-72h-702v89h94zM396 546q0 24 16 40t39 16t38.5 -16
t15.5 -40q0 -23 -15.5 -38t-38.5 -15t-39 15t-16 38z" />
    <glyph glyph-name="ayniso" unicode="&#x639;" horiz-adv-x="543" arabic-form="isolated" 
d="M498 109q-85 -15 -154 -37.5t-117.5 -49.5t-75 -57.5t-26.5 -62.5q0 -27 11.5 -51t41.5 -42t83 -28t136 -10q26 0 57.5 3.5t63.5 7.5l-1 -78q-91 -22 -174 -22q-40 0 -91.5 11.5t-97.5 36t-77.5 62.5t-31.5 91q0 34 16 66t41.5 60t58 51t65.5 39q-128 44 -128 157
q0 37 12 69.5t36 57t61 39t87 14.5q61 0 124 -23l2 -53q-33 12 -75.5 15.5t-79.5 -5t-62.5 -31.5t-25.5 -64q0 -66 37 -100.5t95 -34.5q34 16 87 28t102 21v-80z" />
    <glyph glyph-name="ghaiso" unicode="&#x63a;" horiz-adv-x="543" arabic-form="isolated" 
d="M498 109q-85 -15 -154 -37.5t-117.5 -49.5t-75 -57.5t-26.5 -62.5q0 -27 11.5 -51t41.5 -42t83 -28t136 -10q26 0 57.5 3.5t63.5 7.5l-1 -78q-91 -22 -174 -22q-40 0 -91.5 11.5t-97.5 36t-77.5 62.5t-31.5 91q0 34 16 66t41.5 60t58 51t65.5 39q-128 44 -128 157
q0 37 12 69.5t36 57t61 39t87 14.5q61 0 124 -23l2 -53q-33 12 -75.5 15.5t-79.5 -5t-62.5 -31.5t-25.5 -64q0 -66 37 -100.5t95 -34.5q34 16 87 28t102 21v-80zM237 546q0 24 16 40t39 16t38.5 -16t15.5 -40q0 -23 -15.5 -38t-38.5 -15t-39 15t-16 38z" />
    <glyph glyph-name="faiso" unicode="&#x641;" horiz-adv-x="874" arabic-form="isolated" 
d="M824 105q0 -105 -75 -105h-506q-42 0 -78 7t-63 23t-42 42t-15 63q0 56 10.5 96.5t25 69.5t30.5 50.5t27 40.5h70q-35 -56 -57.5 -109.5t-23.5 -95.5t24.5 -68.5t88.5 -29.5h339q-20 12 -39 29t-34 37t-24.5 42.5t-9.5 46.5q0 33 9.5 65.5t32 59t59.5 43t92 16.5
q51 0 82 -23t48 -59t23 -80t6 -87v-74zM747 94q0 73 -1.5 123.5t-10.5 82t-29.5 46t-58.5 14.5q-29 0 -48 -6.5t-30 -18.5t-15 -30t-4 -41q0 -30 14.5 -59t41 -53t62.5 -39.5t79 -18.5zM605 546q0 24 16 40t39 16t38.5 -16t15.5 -40q0 -23 -15.5 -38t-38.5 -15t-39 15
t-16 38z" />
    <glyph glyph-name="kaafiso" unicode="&#x642;" horiz-adv-x="746" arabic-form="isolated" 
d="M631 89q0 5 -0.5 9.5t-0.5 9.5q0 24 -1 51.5t-3 55.5t-4.5 56t-5.5 52q-105 -25 -151.5 -62.5t-48.5 -92.5q0 -15 3.5 -29t13.5 -25t26 -18t42 -7h130zM179 274q-25 -42 -42 -95t-17 -103q0 -31 6 -68.5t27 -70t60.5 -54.5t106.5 -22h127h24.5t36 3t40.5 11t38.5 23.5
t29 40t13.5 61.5h-113q-91 0 -136 40.5t-45 125.5q0 39 19 77.5t61 71.5t107.5 58t158.5 38q14 -85 23 -188t5 -223q-1 -24 -11 -63t-36 -75.5t-71.5 -63t-117.5 -26.5h-169q-46 0 -92.5 15.5t-83.5 47t-60 79t-23 112.5q0 53 7.5 91.5t19 67.5t25 50t25.5 39h57zM400 545
q0 24 16 40t39 16t38.5 -16t15.5 -40q0 -23 -15.5 -38t-38.5 -15t-39 15t-16 38zM564 545q0 24 16 40t39 16t38.5 -16t15.5 -40q0 -23 -15.5 -38t-38.5 -15t-39 15t-16 38z" />
    <glyph glyph-name="kafiso" unicode="&#x643;" horiz-adv-x="780" arabic-form="isolated" 
d="M710 0h-467q-42 0 -78 7t-63 23t-42 42t-15 63q0 56 10.5 96.5t25 69.5t30.5 50.5t27 40.5h70q-35 -56 -57.5 -110.5t-23.5 -97.5t24.5 -69t88.5 -26h393v553l77 22v-664zM286 332l68 21q-22 5 -34 27t-12 41q0 27 11 49.5t29 38.5t40.5 25.5t45.5 10.5t44 -6.5t36 -24.5
l-42 -38q-13 10 -31 13t-34.5 -1.5t-28 -16.5t-11.5 -30q0 -15 6.5 -26.5t16 -19.5t20 -12.5t19.5 -5.5l89 26v-53l-232 -69v51z" />
    <glyph glyph-name="lamiso" unicode="&#x644;" horiz-adv-x="639" arabic-form="isolated" 
d="M492 642l77 22v-632q0 -61 -19.5 -109.5t-54.5 -82t-84 -51.5t-108 -18t-106.5 19t-81 49.5t-52 68t-18.5 74.5q0 54 9.5 93t23.5 68.5t29 50.5t27 39h57q-26 -43 -47 -96.5t-21 -104.5q0 -48 12.5 -80.5t36 -52t57 -27.5t75.5 -8q68 0 118 31t64 88q2 10 4 21t2 22v616z
" />
    <glyph glyph-name="meemiso" unicode="&#x645;" horiz-adv-x="579" arabic-form="isolated" 
d="M437 -32q-30 12 -79.5 37t-124.5 57q-22 9 -39.5 13.5t-29.5 0.5t-18.5 -17.5t-6.5 -39.5v-249h-77v302q0 27 11 48.5t30 35t44.5 18.5t54.5 -1q28 53 57 96t54.5 73t46.5 46t35 16q24 0 44 -19.5t36.5 -49.5t28.5 -67t20 -72t11.5 -64.5t2.5 -44.5q-1 -13 -2 -29.5
t-12 -36.5t-18 -32t-13.5 -18t-12.5 -8t-15 -2q-13 0 -28 7zM461 56q-4 45 -10 89.5t-15 80t-20.5 57t-26.5 21.5q-14 0 -33 -20t-37 -46t-32 -51t-19 -35q21 -16 46 -30.5t50.5 -27t50.5 -22.5t46 -16z" />
    <glyph glyph-name="nouniso" unicode="&#x646;" horiz-adv-x="651" arabic-form="isolated" 
d="M304 -151q-46 0 -92.5 15.5t-83.5 47t-60 79t-23 112.5q0 43 8.5 77t20.5 60.5t25.5 46.5t24.5 37h59q-9 -20 -20 -41t-20.5 -43t-16 -44t-6.5 -43q0 -31 6 -68.5t27 -70.5t60.5 -55t106.5 -22h17q88 0 131 51.5t44 135.5q1 65 -7.5 132.5t-23.5 131.5l80 26
q30 -141 30 -280q0 -81 -22 -135.5t-58.5 -88t-84 -47.5t-99.5 -14h-23zM266 489q0 24 16 40t39 16t38.5 -16t15.5 -40q0 -23 -15.5 -38t-38.5 -15t-39 15t-16 38z" />
    <glyph glyph-name="wawiso" unicode="&#x648;" horiz-adv-x="446" arabic-form="isolated" 
d="M147 -157q46 3 84 21q16 7 32 18.5t29.5 28t23.5 38.5t13 51h-113q-91 0 -136 40.5t-45 125.5q0 39 19 77.5t61 71.5t107.5 58t158.5 38q14 -85 23 -188t5 -223q-1 -24 -12 -60.5t-38 -71t-73 -62t-117 -33.5zM330 89v19q0 24 -1 51.5t-3 55.5t-4.5 56t-5.5 52
q-105 -25 -151.5 -62.5t-48.5 -92.5q0 -15 3.5 -29t13.5 -25.5t26 -18t42 -6.5h129z" />
    <glyph glyph-name="yaiso" unicode="&#x64a;" horiz-adv-x="651" arabic-form="isolated" 
d="M551 354q-29 0 -57.5 -10.5t-51 -31t-37 -49t-14.5 -64.5q0 -10 4.5 -22t20.5 -12h114q15 0 28 -2t22.5 -10t15 -25.5t5.5 -47.5q0 -68 -17.5 -112.5t-53.5 -70.5t-92.5 -37t-134.5 -11q-59 0 -106.5 19t-81 49t-52 67.5t-18.5 74.5q0 46 7 81.5t18 62.5t24 47.5t25 37.5
h60q-22 -41 -39 -87.5t-17 -91.5q0 -48 12.5 -80t36 -51.5t57 -27.5t75.5 -8q88 0 134 12.5t65.5 32t21 44.5t1.5 50q0 12 -16 12h-72q-39 0 -64.5 3t-40.5 10.5t-21 21t-6 34.5q0 39 15.5 84.5t47 84t80.5 64t117 25.5q20 0 27.5 -8.5t7.5 -20.5q0 -5 -1.5 -12.5
t-4.5 -14.5t-7 -12t-10 -5t-12.5 3.5t-14.5 3.5zM181 -283q0 24 16 40t39 16t38.5 -16t15.5 -40q0 -23 -15.5 -38t-38.5 -15t-39 15t-16 38zM345 -283q0 24 16 40t39 16t38.5 -16t15.5 -40q0 -23 -15.5 -38t-38.5 -15t-39 15t-16 38z" />
    <glyph glyph-name="alefwaslaiso" unicode="&#x671;" horiz-adv-x="230" arabic-form="isolated" 
 />
    <glyph glyph-name="piso.001" unicode="&#x67e;" horiz-adv-x="659" arabic-form="isolated" 
 />
    <glyph glyph-name="giso" unicode="&#x686;" horiz-adv-x="85" arabic-form="isolated" 
d="M-10 89h105v-89h-105v89z" />
    <glyph glyph-name="jehiso" unicode="&#x698;" horiz-adv-x="268" arabic-form="isolated" 
 />
    <glyph glyph-name="kehehiso" unicode="&#x6a9;" horiz-adv-x="645" arabic-form="isolated" 
 />
    <glyph glyph-name="gafiso" unicode="&#x6af;" horiz-adv-x="645" arabic-form="isolated" 
 />
    <glyph glyph-name="farsiyaiso" unicode="&#x6cc;" horiz-adv-x="764" arabic-form="isolated" 
 />
    <glyph glyph-name="alefwaslafina" unicode="&#x671;" horiz-adv-x="244" arabic-form="final" 
 />
    <glyph glyph-name="pfina" unicode="&#x67e;" horiz-adv-x="714" arabic-form="final" 
 />
    <glyph glyph-name="pini" unicode="&#x67e;" horiz-adv-x="249" arabic-form="initial" 
 />
    <glyph glyph-name="pmedi" unicode="&#x67e;" horiz-adv-x="279" arabic-form="medial" 
 />
    <glyph glyph-name="gfina" unicode="&#x686;" horiz-adv-x="85" arabic-form="final" 
d="M-10 89h105v-89h-105v89z" />
    <glyph glyph-name="gini" unicode="&#x686;" horiz-adv-x="85" arabic-form="initial" 
d="M-10 89h105v-89h-105v89z" />
    <glyph glyph-name="gmedi" unicode="&#x686;" horiz-adv-x="85" arabic-form="medial" 
d="M-10 89h105v-89h-105v89z" />
    <glyph glyph-name="jehfina" unicode="&#x698;" horiz-adv-x="294" arabic-form="final" 
 />
    <glyph glyph-name="kehehfina" unicode="&#x6a9;" horiz-adv-x="698" arabic-form="final" 
 />
    <glyph glyph-name="kafini" unicode="&#x6a9;" horiz-adv-x="495" arabic-form="initial" 
d="M413 0h-428v89h353v50q0 29 -18.5 68t-50.5 78t-74.5 74t-90.5 56l5 123l356 129l-23 -96l-269 -89q21 -15 43.5 -33.5t44.5 -39.5t41.5 -43t34.5 -42q32 -45 54 -91.5t22 -93.5v-67v-72z" />
    <glyph glyph-name="kafmedi" unicode="&#x6a9;" horiz-adv-x="542" arabic-form="medial" 
d="M557 0h-572v89h353v50q0 29 -18.5 68t-50.5 78t-74.5 74t-90.5 56l5 123l356 129l-23 -96l-269 -89q21 -15 43.5 -33.5t44.5 -39.5t41.5 -43t34.5 -42q32 -45 54 -91.5t22 -93.5v-50h144v-89z" />
    <glyph glyph-name="gaffina" unicode="&#x6af;" horiz-adv-x="708" arabic-form="final" 
 />
    <glyph glyph-name="gafini" unicode="&#x6af;" horiz-adv-x="431" arabic-form="initial" 
 />
    <glyph glyph-name="gafmedi" unicode="&#x6af;" horiz-adv-x="492" arabic-form="medial" 
 />
    <glyph glyph-name="alefma2sourafina" unicode="&#x6cc;" horiz-adv-x="868" arabic-form="final" 
d="M303 -151q-59 0 -106.5 19t-81 49t-52 67.5t-18.5 74.5q0 46 7 81.5t18 62.5t24 47.5t25 37.5h60q-22 -41 -39 -87.5t-17 -91.5q0 -48 12.5 -80t36 -51.5t57 -27.5t75.5 -8q88 0 134 12.5t65.5 32t21 44.5t1.5 50q0 12 -16 12h-72q-39 0 -64.5 3t-40.5 10.5t-21 21
t-6 34.5q0 39 15.5 84.5t47 84t80.5 64t117 25.5q65 0 105.5 -33.5t64 -84t34 -108t14.5 -105.5h99v-89h-177q0 82 -7.5 140.5t-20 97.5t-28.5 62t-32.5 35t-32.5 15t-28 3q-29 0 -58.5 -10.5t-53.5 -30.5t-39 -48.5t-15 -64.5q0 -10 4.5 -22t20.5 -12h114q15 0 28 -2
t22.5 -10t15 -25.5t5.5 -47.5q0 -68 -17.5 -112.5t-53.5 -70.5t-92.5 -37t-134.5 -11z" />
    <glyph glyph-name="alefmaddaabovefina" unicode="&#x622;" horiz-adv-x="248" arabic-form="final" 
d="M74 642l77 22v-575h112v-89h-189v642zM-127 783q26 -14 78.5 -19t115.5 6q17 3 36 6.5t36 6.5q88 16 144 0.5t88 -64.5q-25 14 -75 20t-113 -5q-20 -4 -41 -9t-41 -8q-83 -14 -140.5 2t-87.5 64z" />
    <glyph glyph-name="alefhamzaabovefina" unicode="&#x623;" horiz-adv-x="248" arabic-form="final" 
d="M74 642l77 22v-575h112v-89h-189v642zM-8 734l68 21q-22 5 -34 27t-12 41q0 27 11 49.5t29 38.5t40.5 25.5t45.5 10.5t44 -6t36 -25l-42 -38q-13 10 -31 13t-34.5 -1.5t-28 -16.5t-11.5 -30q0 -15 6.5 -26.5t16 -19.5t20 -12.5t19.5 -5.5l89 26v-53l-232 -69v51z" />
    <glyph glyph-name="wawhamzafina" unicode="&#x624;" horiz-adv-x="482" arabic-form="final" 
d="M409 0q-1 -24 -12 -60.5t-38 -71t-73 -62t-117 -33.5l-22 70q46 3 84 21q16 7 32 18.5t29.5 28t23.5 38.5t13 51h-113q-91 0 -136 40.5t-45 125.5q0 39 19 77.5t61 71.5t107.5 58t158.5 38q11 -69 19.5 -149.5t9.5 -172.5h87v-89h-88zM331 89q0 5 -0.5 9.5t-0.5 9.5
q0 24 -1 51.5t-3 55.5t-4.5 56t-5.5 52q-105 -25 -151.5 -62.5t-48.5 -92.5q0 -15 3.5 -29t13.5 -25t26 -18t42 -7h130zM145 483l68 21q-22 5 -34 27t-12 41q0 27 11 49.5t29 38.5t40.5 25.5t45.5 10.5t44 -6t36 -25l-42 -38q-13 10 -31 13t-34.5 -1.5t-28 -16.5t-11.5 -30
q0 -15 6.5 -26.5t16 -19.5t20 -12.5t19.5 -5.5l89 26v-53l-232 -69v51z" />
    <glyph glyph-name="alefhamzabelowfina" unicode="&#x625;" horiz-adv-x="248" arabic-form="final" 
d="M74 642l77 22v-575h112v-89h-189v642zM8 -273l68 21q-22 5 -34 27t-12 41q0 27 11 49.5t29 38.5t40.5 25.5t45.5 10.5t44 -6t36 -25l-42 -38q-13 10 -31 13t-34.5 -1.5t-28 -16.5t-11.5 -30q0 -15 6.5 -26.5t16 -19.5t20 -12.5t19.5 -5.5l89 26v-53l-232 -69v51z" />
    <glyph glyph-name="hamzakirsehfina" unicode="&#x626;" horiz-adv-x="868" arabic-form="final" 
d="M303 -151q-59 0 -106.5 19t-81 49t-52 67.5t-18.5 74.5q0 46 7 81.5t18 62.5t24 47.5t25 37.5h60q-22 -41 -39 -87.5t-17 -91.5q0 -48 12.5 -80t36 -51.5t57 -27.5t75.5 -8q88 0 134 12.5t65.5 32t21 44.5t1.5 50q0 12 -16 12h-72q-39 0 -64.5 3t-40.5 10.5t-21 21
t-6 34.5q0 39 15.5 84.5t47 84t80.5 64t117 25.5q65 0 105.5 -33.5t64 -84t34 -108t14.5 -105.5h99v-89h-177q0 82 -7.5 140.5t-20 97.5t-28.5 62t-32.5 35t-32.5 15t-28 3q-29 0 -58.5 -10.5t-53.5 -30.5t-39 -48.5t-15 -64.5q0 -10 4.5 -22t20.5 -12h114q15 0 28 -2
t22.5 -10t15 -25.5t5.5 -47.5q0 -68 -17.5 -112.5t-53.5 -70.5t-92.5 -37t-134.5 -11zM96 394l68 21q-22 5 -34 27t-12 41q0 27 11 49.5t29 38.5t40.5 25.5t45.5 10.5t44 -6t36 -25l-42 -38q-13 10 -31 13t-34.5 -1.5t-28 -16.5t-11.5 -30q0 -15 6.5 -26.5t16 -19.5
t20 -12.5t19.5 -5.5l89 26v-53l-232 -69v51z" />
    <glyph glyph-name="hamzakirsehini" unicode="&#x626;" horiz-adv-x="348" arabic-form="initial" 
d="M211 89v313l77 22v-424h-303v89h226zM88 516l68 21q-22 5 -34 27t-12 41q0 27 11 49.5t29 38.5t40.5 25.5t45.5 10.5t44 -6t36 -25l-42 -38q-13 10 -31 13t-34.5 -1.5t-28 -16.5t-11.5 -30q0 -15 6.5 -26.5t16 -19.5t20 -12.5t19.5 -5.5l89 26v-53l-232 -69v51z" />
    <glyph glyph-name="hamzakirsehmedi" unicode="&#x626;" horiz-adv-x="397" arabic-form="medial" 
d="M173 89v313l77 22v-335h162v-89h-427v89h188zM88 516l68 21q-22 5 -34 27t-12 41q0 27 11 49.5t29 38.5t40.5 25.5t45.5 10.5t44 -6t36 -25l-42 -38q-13 10 -31 13t-34.5 -1.5t-28 -16.5t-11.5 -30q0 -15 6.5 -26.5t16 -19.5t20 -12.5t19.5 -5.5l89 26v-53l-232 -69v51z
" />
    <glyph glyph-name="aleffina" unicode="&#x627;" horiz-adv-x="248" arabic-form="final" 
d="M74 642l77 22v-575h112v-89h-189v642z" />
    <glyph glyph-name="behfina" unicode="&#x628;" horiz-adv-x="850" arabic-form="final" 
d="M865 89v-89h-93h-529q-42 0 -78 7t-63 23t-42 42t-15 63q0 56 10.5 96.5t25 69.5t30.5 50.5t27 40.5h70q-35 -56 -57.5 -110.5t-23.5 -97.5t24.5 -69t88.5 -26h455v313l77 22v-335h93zM377 -141q0 24 16 40t39 16t38.5 -16t15.5 -40q0 -23 -15.5 -38t-38.5 -15t-39 15
t-16 38z" />
    <glyph glyph-name="behini" unicode="&#x628;" horiz-adv-x="348" arabic-form="initial" 
d="M211 89v313l77 22v-424h-303v89h226zM110 -141q0 24 16 40t39 16t38.5 -16t15.5 -40q0 -23 -15.5 -38t-38.5 -15t-39 15t-16 38z" />
    <glyph glyph-name="behmedi" unicode="&#x628;" horiz-adv-x="397" arabic-form="medial" 
d="M173 89v313l77 22v-335h162v-89h-427v89h188zM165 -141q0 24 16 40t39 16t38.5 -16t15.5 -40q0 -23 -15.5 -38t-38.5 -15t-39 15t-16 38z" />
    <glyph glyph-name="tafina" unicode="&#x62a;" horiz-adv-x="850" arabic-form="final" 
d="M865 89v-89h-93h-529q-42 0 -78 7t-63 23t-42 42t-15 63q0 56 10.5 96.5t25 69.5t30.5 50.5t27 40.5h70q-35 -56 -57.5 -110.5t-23.5 -97.5t24.5 -69t88.5 -26h455v313l77 22v-335h93zM310 545q0 24 16 40t39 16t38.5 -16t15.5 -40q0 -23 -15.5 -38t-38.5 -15t-39 15
t-16 38zM474 545q0 24 16 40t39 16t38.5 -16t15.5 -40q0 -23 -15.5 -38t-38.5 -15t-39 15t-16 38z" />
    <glyph glyph-name="taini" unicode="&#x62a;" horiz-adv-x="348" arabic-form="initial" 
d="M211 89v313l77 22v-424h-303v89h226zM33 545q0 24 16 40t39 16t38.5 -16t15.5 -40q0 -23 -15.5 -38t-38.5 -15t-39 15t-16 38zM197 545q0 24 16 40t39 16t38.5 -16t15.5 -40q0 -23 -15.5 -38t-38.5 -15t-39 15t-16 38z" />
    <glyph glyph-name="tamedi" unicode="&#x62a;" horiz-adv-x="397" arabic-form="medial" 
d="M173 89v313l77 22v-335h162v-89h-427v89h188zM76 545q0 24 16 40t39 16t38.5 -16t15.5 -40q0 -23 -15.5 -38t-38.5 -15t-39 15t-16 38zM240 545q0 24 16 40t39 16t38.5 -16t15.5 -40q0 -23 -15.5 -38t-38.5 -15t-39 15t-16 38z" />
    <glyph glyph-name="thafina" unicode="&#x62b;" horiz-adv-x="850" arabic-form="final" 
d="M865 89v-89h-93h-529q-42 0 -78 7t-63 23t-42 42t-15 63q0 56 10.5 96.5t25 69.5t30.5 50.5t27 40.5h70q-35 -56 -57.5 -110.5t-23.5 -97.5t24.5 -69t88.5 -26h455v313l77 22v-335h93zM307 546q0 24 16 40t39 16t38.5 -16t15.5 -40q0 -23 -15.5 -38t-38.5 -15t-39 15
t-16 38zM471 546q0 24 16 40t39 16t38.5 -16t15.5 -40q0 -23 -15.5 -38t-38.5 -15t-39 15t-16 38zM387 682q0 24 16 40t39 16t38.5 -16t15.5 -40q0 -23 -15.5 -38t-38.5 -15t-39 15t-16 38z" />
    <glyph glyph-name="thaini" unicode="&#x62b;" horiz-adv-x="348" arabic-form="initial" 
d="M211 89v313l77 22v-424h-303v89h226zM37 546q0 24 16 40t39 16t38.5 -16t15.5 -40q0 -23 -15.5 -38t-38.5 -15t-39 15t-16 38zM201 546q0 24 16 40t39 16t38.5 -16t15.5 -40q0 -23 -15.5 -38t-38.5 -15t-39 15t-16 38zM117 682q0 24 16 40t39 16t38.5 -16t15.5 -40
q0 -23 -15.5 -38t-38.5 -15t-39 15t-16 38z" />
    <glyph glyph-name="thamedi" unicode="&#x62b;" horiz-adv-x="397" arabic-form="medial" 
d="M173 89v313l77 22v-335h162v-89h-427v89h188zM73 546q0 24 16 40t39 16t38.5 -16t15.5 -40q0 -23 -15.5 -38t-38.5 -15t-39 15t-16 38zM237 546q0 24 16 40t39 16t38.5 -16t15.5 -40q0 -23 -15.5 -38t-38.5 -15t-39 15t-16 38zM153 682q0 24 16 40t39 16t38.5 -16
t15.5 -40q0 -23 -15.5 -38t-38.5 -15t-39 15t-16 38z" />
    <glyph glyph-name="jeemfina" unicode="&#x62c;" horiz-adv-x="667" arabic-form="final" 
d="M603 218q-42 2 -83.5 -2t-79.5 -14q1 -27 12 -48t28.5 -35.5t39.5 -22t45 -7.5h117v-89h-130q-41 0 -73 17.5t-54 44.5t-33 59t-9 62q-55 -21 -101 -50.5t-79.5 -65t-52.5 -73.5t-19 -75q0 -44 20.5 -72.5t57.5 -45t89 -23.5t115 -7q28 0 58 2t62 6l-1 -73
q-89 -24 -172 -24q-57 0 -112.5 13.5t-100 39.5t-72 64t-27.5 88q0 63 26.5 123t77 111.5t122.5 91t164 62.5q-14 4 -39 15t-55 22.5t-62 20.5t-60 9q-13 0 -29 -4.5t-32.5 -13t-32.5 -21t-29 -28.5l-54 46q16 19 38 37.5t47.5 33t52.5 23.5t53 9q29 0 73 -18.5t104 -38.5
q57 -19 101.5 -28t88.5 -10v-111zM277 -67q0 24 16 40t39 16t38.5 -16t15.5 -40q0 -23 -15.5 -38t-38.5 -15t-39 15t-16 38z" />
    <glyph glyph-name="jeemini" unicode="&#x62c;" horiz-adv-x="681" arabic-form="initial" 
d="M631 0h-645l-1 89h493q-28 55 -53.5 102t-50 80.5t-49 52.5t-50.5 19t-53 -21t-53 -53l-51 46q19 21 39.5 40.5t43.5 35t48.5 24.5t55.5 9q33 0 61 -20.5t56 -59.5t60.5 -96t74.5 -130q3 -5 7 -10t12.5 -9t21.5 -7t33 -3v-89zM251 -141q0 24 16 40t39 16t38.5 -16
t15.5 -40q0 -23 -15.5 -38t-38.5 -15t-39 15t-16 38z" />
    <glyph glyph-name="jeemmedi" unicode="&#x62c;" horiz-adv-x="656" arabic-form="medial" 
d="M671 0h-684v89h492q-28 55 -53.5 102t-50.5 80.5t-49.5 52.5t-50.5 19t-53 -21t-53 -53l-51 46q19 21 39.5 40.5t43.5 35t48.5 24.5t55.5 9q33 0 61 -20.5t56 -59.5t60.5 -96t74.5 -130q11 -19 24 -29h90v-89zM250 -141q0 24 16 40t39 16t38.5 -16t15.5 -40
q0 -23 -15.5 -38t-38.5 -15t-39 15t-16 38z" />
    <glyph glyph-name="haafina" unicode="&#x62d;" horiz-adv-x="667" arabic-form="final" 
d="M603 218q-42 2 -83.5 -2t-79.5 -14q1 -27 12 -48t28.5 -35.5t39.5 -22t45 -7.5h117v-89h-130q-41 0 -73 17.5t-54 44.5t-33 59t-9 62q-55 -21 -101 -50.5t-79.5 -65t-52.5 -73.5t-19 -75q0 -44 20.5 -72.5t57.5 -45t89 -23.5t115 -7q28 0 58 2t62 6l-1 -73
q-89 -24 -172 -24q-57 0 -112.5 13.5t-100 39.5t-72 64t-27.5 88q0 63 26.5 123t77 111.5t122.5 91t164 62.5q-14 4 -39 15t-55 22.5t-62 20.5t-60 9q-13 0 -29 -4.5t-32.5 -13t-32.5 -21t-29 -28.5l-54 46q16 19 38 37.5t47.5 33t52.5 23.5t53 9q29 0 73 -18.5t104 -38.5
q57 -19 101.5 -28t88.5 -10v-111z" />
    <glyph glyph-name="haaini" unicode="&#x62d;" horiz-adv-x="681" arabic-form="initial" 
d="M631 0h-645l-1 89h493q-28 55 -53.5 102t-50 80.5t-49 52.5t-50.5 19t-53 -21t-53 -53l-51 46q19 21 39.5 40.5t43.5 35t48.5 24.5t55.5 9q33 0 61 -20.5t56 -59.5t60.5 -96t74.5 -130q3 -5 7 -10t12.5 -9t21.5 -7t33 -3v-89z" />
    <glyph glyph-name="haamedi" unicode="&#x62d;" horiz-adv-x="656" arabic-form="medial" 
d="M671 0h-684v89h492q-28 55 -53.5 102t-50.5 80.5t-49.5 52.5t-50.5 19t-53 -21t-53 -53l-51 46q19 21 39.5 40.5t43.5 35t48.5 24.5t55.5 9q33 0 61 -20.5t56 -59.5t60.5 -96t74.5 -130q11 -19 24 -29h90v-89z" />
    <glyph glyph-name="khafina" unicode="&#x62e;" horiz-adv-x="667" arabic-form="final" 
d="M603 218q-42 2 -83.5 -2t-79.5 -14q1 -27 12 -48t28.5 -35.5t39.5 -22t45 -7.5h117v-89h-130q-41 0 -73 17.5t-54 44.5t-33 59t-9 62q-55 -21 -101 -50.5t-79.5 -65t-52.5 -73.5t-19 -75q0 -44 20.5 -72.5t57.5 -45t89 -23.5t115 -7q28 0 58 2t62 6l-1 -73
q-89 -24 -172 -24q-57 0 -112.5 13.5t-100 39.5t-72 64t-27.5 88q0 63 26.5 123t77 111.5t122.5 91t164 62.5q-14 4 -39 15t-55 22.5t-62 20.5t-60 9q-13 0 -29 -4.5t-32.5 -13t-32.5 -21t-29 -28.5l-54 46q16 19 38 37.5t47.5 33t52.5 23.5t53 9q29 0 73 -18.5t104 -38.5
q57 -19 101.5 -28t88.5 -10v-111zM271 546q0 24 16 40t39 16t38.5 -16t15.5 -40q0 -23 -15.5 -38t-38.5 -15t-39 15t-16 38z" />
    <glyph glyph-name="khaini" unicode="&#x62e;" horiz-adv-x="681" arabic-form="initial" 
d="M631 0h-645l-1 89h493q-28 55 -53.5 102t-50 80.5t-49 52.5t-50.5 19t-53 -21t-53 -53l-51 46q19 21 39.5 40.5t43.5 35t48.5 24.5t55.5 9q33 0 61 -20.5t56 -59.5t60.5 -96t74.5 -130q3 -5 7 -10t12.5 -9t21.5 -7t33 -3v-89zM226 546q0 24 16 40t39 16t38.5 -16
t15.5 -40q0 -23 -15.5 -38t-38.5 -15t-39 15t-16 38z" />
    <glyph glyph-name="khamedi" unicode="&#x62e;" horiz-adv-x="656" arabic-form="medial" 
d="M671 0h-684v89h492q-28 55 -53.5 102t-50.5 80.5t-49.5 52.5t-50.5 19t-53 -21t-53 -53l-51 46q19 21 39.5 40.5t43.5 35t48.5 24.5t55.5 9q33 0 61 -20.5t56 -59.5t60.5 -96t74.5 -130q11 -19 24 -29h90v-89zM226 546q0 24 16 40t39 16t38.5 -16t15.5 -40
q0 -23 -15.5 -38t-38.5 -15t-39 15t-16 38z" />
    <glyph glyph-name="dalfina" unicode="&#x62f;" horiz-adv-x="568" arabic-form="final" 
d="M55 104q11 -4 24 -8q11 -3 26 -5t33 -2h241q-1 30 -10 68.5t-30.5 77.5t-57.5 74t-91 59l23 84q59 -23 111 -71q22 -20 44 -47.5t42 -63.5t35.5 -81t23.5 -100h114v-89h-454q-18 0 -32 2.5t-25 5.5q-12 4 -22 8z" />
    <glyph glyph-name="zalfina" unicode="&#x630;" horiz-adv-x="568" arabic-form="final" 
d="M55 104q11 -4 24 -8q11 -3 26 -5t33 -2h241q-1 30 -10 68.5t-30.5 77.5t-57.5 74t-91 59l23 84q59 -23 111 -71q22 -20 44 -47.5t42 -63.5t35.5 -81t23.5 -100h114v-89h-454q-18 0 -32 2.5t-25 5.5q-12 4 -22 8zM167 546q0 24 16 40t39 16t38.5 -16t15.5 -40
q0 -23 -15.5 -38t-38.5 -15t-39 15t-16 38z" />
    <glyph glyph-name="rafina" unicode="&#x631;" horiz-adv-x="359" arabic-form="final" 
d="M232 429q7 -41 12.5 -85.5t9 -89.5t6 -87t3.5 -78h111v-89h-110q-2 -26 -13.5 -63.5t-40 -73.5t-78.5 -62t-129 -29l-23 74q57 4 103 24q19 9 37.5 22t33 31.5t23.5 44t9 58.5q0 90 -5 189t-28 190z" />
    <glyph glyph-name="zafina" unicode="&#x632;" horiz-adv-x="359" arabic-form="final" 
d="M232 429q7 -41 12.5 -85.5t9 -89.5t6 -87t3.5 -78h111v-89h-110q-2 -26 -13.5 -63.5t-40 -73.5t-78.5 -62t-129 -29l-23 74q57 4 103 24q19 9 37.5 22t33 31.5t23.5 44t9 58.5q0 90 -5 189t-28 190zM107 546q0 24 16 40t39 16t38.5 -16t15.5 -40q0 -23 -15.5 -38
t-38.5 -15t-39 15t-16 38z" />
    <glyph glyph-name="seenfina" unicode="&#x633;" horiz-adv-x="1152" arabic-form="final" 
d="M191 233q-26 -43 -47 -96.5t-21 -104.5q0 -48 12.5 -80.5t36 -52t57 -27.5t75.5 -8q68 0 118 31t64 88q2 10 4 21t2 22v376l77 22v-335h150v313l77 22v-335h151v313l77 22v-335h143v-89h-598q-21 -121 -89.5 -175t-176.5 -54q-59 0 -106.5 19t-81 49.5t-52 68t-18.5 74.5
q0 54 9.5 93t23.5 68.5t29 50.5t27 39h57z" />
    <glyph glyph-name="seenini" unicode="&#x633;" horiz-adv-x="733" arabic-form="initial" 
d="M145 89v313l77 22v-335h150v313l77 22v-335h151v313l77 22v-424h-692v89h160z" />
    <glyph glyph-name="seenmedi" unicode="&#x633;" horiz-adv-x="805" arabic-form="medial" 
d="M145 89v313l77 22v-335h150v313l77 22v-335h151v313l77 22v-335h143v-89h-835v89h160z" />
    <glyph glyph-name="sheenfina" unicode="&#x634;" horiz-adv-x="1152" arabic-form="final" 
d="M191 233q-26 -43 -47 -96.5t-21 -104.5q0 -48 12.5 -80.5t36 -52t57 -27.5t75.5 -8q68 0 118 31t64 88q2 10 4 21t2 22v376l77 22v-335h150v313l77 22v-335h151v313l77 22v-335h143v-89h-598q-21 -121 -89.5 -175t-176.5 -54q-59 0 -106.5 19t-81 49.5t-52 68t-18.5 74.5
q0 54 9.5 93t23.5 68.5t29 50.5t27 39h57zM621 546q0 24 16 40t39 16t38.5 -16t15.5 -40q0 -23 -15.5 -38t-38.5 -15t-39 15t-16 38zM785 546q0 24 16 40t39 16t38.5 -16t15.5 -40q0 -23 -15.5 -38t-38.5 -15t-39 15t-16 38zM701 682q0 24 16 40t39 16t38.5 -16t15.5 -40
q0 -23 -15.5 -38t-38.5 -15t-39 15t-16 38z" />
    <glyph glyph-name="sheenini" unicode="&#x634;" horiz-adv-x="733" arabic-form="initial" 
d="M145 89v313l77 22v-335h150v313l77 22v-335h151v313l77 22v-424h-692v89h160zM275 546q0 24 16 40t39 16t38.5 -16t15.5 -40q0 -23 -15.5 -38t-38.5 -15t-39 15t-16 38zM439 546q0 24 16 40t39 16t38.5 -16t15.5 -40q0 -23 -15.5 -38t-38.5 -15t-39 15t-16 38zM355 682
q0 24 16 40t39 16t38.5 -16t15.5 -40q0 -23 -15.5 -38t-38.5 -15t-39 15t-16 38z" />
    <glyph glyph-name="sheenmedi" unicode="&#x634;" horiz-adv-x="805" arabic-form="medial" 
d="M145 89v313l77 22v-335h150v313l77 22v-335h151v313l77 22v-335h143v-89h-835v89h160zM288 546q0 24 16 40t39 16t38.5 -16t15.5 -40q0 -23 -15.5 -38t-38.5 -15t-39 15t-16 38zM452 546q0 24 16 40t39 16t38.5 -16t15.5 -40q0 -23 -15.5 -38t-38.5 -15t-39 15t-16 38z
M368 682q0 24 16 40t39 16t38.5 -16t15.5 -40q0 -23 -15.5 -38t-38.5 -15t-39 15t-16 38z" />
    <glyph glyph-name="sadfina" unicode="&#x635;" horiz-adv-x="1170" arabic-form="final" 
d="M1023 89v74q0 28 -4.5 55t-19 48.5t-40 34.5t-67.5 13q-28 0 -66.5 -16.5t-80.5 -46.5t-84.5 -71.5t-79.5 -90.5h442zM1099 89h86v-89h-616q-21 -121 -89.5 -175t-176.5 -54q-59 0 -106.5 19t-81 49.5t-52 68t-18.5 74.5q0 54 9.5 93t23.5 68.5t29 50.5t27 39h57
q-26 -43 -47 -96.5t-21 -104.5q0 -48 12.5 -80.5t36 -52t57 -27.5t75.5 -8q68 0 118 31t64 88q2 10 4 21t2 22v18v267l77 25v-63v-88q98 103 185.5 152t165.5 49q57 0 91.5 -26.5t54 -67.5t26.5 -89.5t8 -93.5z" />
    <glyph glyph-name="sadini" unicode="&#x635;" horiz-adv-x="752" arabic-form="initial" 
d="M610 89v74q0 28 -4.5 55t-19 48.5t-40 34.5t-67.5 13q-28 0 -66.5 -16.5t-80.5 -46.5t-84.5 -71.5t-79.5 -90.5h442zM79 89v222l77 25v-151q98 103 185.5 152t165.5 49q57 0 91.5 -26.5t54 -67.5t26.5 -89.5t8 -93.5v-109h-702v89h94z" />
    <glyph glyph-name="sadmedi" unicode="&#x635;" horiz-adv-x="759" arabic-form="medial" 
d="M610 89v74q0 28 -4.5 55t-19 48.5t-40 34.5t-67.5 13q-28 0 -66.5 -16.5t-80.5 -46.5t-85 -71.5t-80 -90.5h443zM79 89v222l77 25v-151q98 103 185.5 152t165.5 49q57 0 91.5 -26.5t54 -67.5t26.5 -89.5t8 -93.5v-20h87v-89h-789v89h94z" />
    <glyph glyph-name="dadfina" unicode="&#x636;" horiz-adv-x="1170" arabic-form="final" 
d="M1023 89v74q0 28 -4.5 55t-19 48.5t-40 34.5t-67.5 13q-28 0 -66.5 -16.5t-80.5 -46.5t-84.5 -71.5t-79.5 -90.5h442zM1099 89h86v-89h-616q-21 -121 -89.5 -175t-176.5 -54q-59 0 -106.5 19t-81 49.5t-52 68t-18.5 74.5q0 54 9.5 93t23.5 68.5t29 50.5t27 39h57
q-26 -43 -47 -96.5t-21 -104.5q0 -48 12.5 -80.5t36 -52t57 -27.5t75.5 -8q68 0 118 31t64 88q2 10 4 21t2 22v18v267l77 25v-63v-88q98 103 185.5 152t165.5 49q57 0 91.5 -26.5t54 -67.5t26.5 -89.5t8 -93.5zM787 546q0 24 16 40t39 16t38.5 -16t15.5 -40q0 -23 -15.5 -38
t-38.5 -15t-39 15t-16 38z" />
    <glyph glyph-name="dadini" unicode="&#x636;" horiz-adv-x="752" arabic-form="initial" 
d="M610 89v74q0 28 -4.5 55t-19 48.5t-40 34.5t-67.5 13q-28 0 -66.5 -16.5t-80.5 -46.5t-84.5 -71.5t-79.5 -90.5h442zM79 89v222l77 25v-151q98 103 185.5 152t165.5 49q57 0 91.5 -26.5t54 -67.5t26.5 -89.5t8 -93.5v-109h-702v89h94zM353 546q0 24 16 40t39 16t38.5 -16
t15.5 -40q0 -23 -15.5 -38t-38.5 -15t-39 15t-16 38z" />
    <glyph glyph-name="dadmedi" unicode="&#x636;" horiz-adv-x="759" arabic-form="medial" 
d="M610 89v74q0 28 -4.5 55t-19 48.5t-40 34.5t-67.5 13q-28 0 -66.5 -16.5t-80.5 -46.5t-85 -71.5t-80 -90.5h443zM79 89v222l77 25v-151q98 103 185.5 152t165.5 49q57 0 91.5 -26.5t54 -67.5t26.5 -89.5t8 -93.5v-20h87v-89h-789v89h94zM332 546q0 24 16 40t39 16
t38.5 -16t15.5 -40q0 -23 -15.5 -38t-38.5 -15t-39 15t-16 38z" />
    <glyph glyph-name="tahfina" unicode="&#x637;" horiz-adv-x="894" arabic-form="final" 
d="M745 90v73q0 28 -4.5 55t-19 48.5t-40 34.5t-67.5 13q-28 0 -66.5 -16.5t-80.5 -46.5t-84.5 -71.5t-79.5 -90.5zM214 89v553l77 25v-482q98 103 185.5 152t165.5 49q57 0 91.5 -26.5t54 -67.5t26.5 -89.5t8 -93.5v-20h87v-89h-782l-13 89h100z" />
    <glyph glyph-name="tahini" unicode="&#x637;" horiz-adv-x="752" arabic-form="initial" 
d="M610 89v74q0 28 -4.5 55t-19 48.5t-40 34.5t-67.5 13q-28 0 -66.5 -16.5t-80.5 -46.5t-84.5 -71.5t-79.5 -90.5h442zM79 89v553l77 25v-482q98 103 185.5 152t165.5 49q57 0 91.5 -26.5t54 -67.5t26.5 -89.5t8 -93.5v-37v-72h-702v89h94z" />
    <glyph glyph-name="tahmedi" unicode="&#x637;" horiz-adv-x="759" arabic-form="medial" 
d="M610 89v74q0 28 -4.5 55t-19 48.5t-40 34.5t-67.5 13q-28 0 -66.5 -16.5t-80.5 -46.5t-84.5 -71.5t-79.5 -90.5h442zM79 89v553l77 25v-482q98 103 185.5 152t165.5 49q57 0 91.5 -26.5t54 -67.5t26.5 -89.5t8 -93.5v-20h87v-89h-789v89h94z" />
    <glyph glyph-name="zadfina" unicode="&#x638;" horiz-adv-x="894" arabic-form="final" 
d="M745 90v73q0 28 -4.5 55t-19 48.5t-40 34.5t-67.5 13q-28 0 -66.5 -16.5t-80.5 -46.5t-84.5 -71.5t-79.5 -90.5zM214 89v553l77 25v-482q98 103 185.5 152t165.5 49q57 0 91.5 -26.5t54 -67.5t26.5 -89.5t8 -93.5v-20h87v-89h-782l-13 89h100zM496 546q0 24 16 40t39 16
t38.5 -16t15.5 -40q0 -23 -15.5 -38t-38.5 -15t-39 15t-16 38z" />
    <glyph glyph-name="zadini" unicode="&#x638;" horiz-adv-x="752" arabic-form="initial" 
d="M610 89v74q0 28 -4.5 55t-19 48.5t-40 34.5t-67.5 13q-28 0 -66.5 -16.5t-80.5 -46.5t-84.5 -71.5t-79.5 -90.5h442zM79 89v553l77 25v-482q98 103 185.5 152t165.5 49q57 0 91.5 -26.5t54 -67.5t26.5 -89.5t8 -93.5v-37v-72h-702v89h94zM327 546q0 24 16 40t39 16
t38.5 -16t15.5 -40q0 -23 -15.5 -38t-38.5 -15t-39 15t-16 38z" />
    <glyph glyph-name="zadmedi" unicode="&#x638;" horiz-adv-x="759" arabic-form="medial" 
d="M610 89v74q0 28 -4.5 55t-19 48.5t-40 34.5t-67.5 13q-28 0 -66.5 -16.5t-80.5 -46.5t-84.5 -71.5t-79.5 -90.5h442zM79 89v553l77 25v-482q98 103 185.5 152t165.5 49q57 0 91.5 -26.5t54 -67.5t26.5 -89.5t8 -93.5v-20h87v-89h-789v89h94zM328 546q0 24 16 40t39 16
t38.5 -16t15.5 -40q0 -23 -15.5 -38t-38.5 -15t-39 15t-16 38z" />
    <glyph glyph-name="aynfina" unicode="&#x639;" horiz-adv-x="600" arabic-form="final" 
d="M467 275q-11 13 -27 26t-37.5 23.5t-47 17.5t-55.5 7q-31 0 -56 -7.5t-45 -18.5t-34.5 -24.5t-23.5 -25.5l159 -195zM495 -299q-42 -9 -82 -14t-77 -5q-49 0 -102 11.5t-96.5 36t-71.5 62.5t-28 91q0 31 10 60t31 53.5t52.5 44t74.5 31.5l-158 200q30 39 58 67t58 46
t63 26.5t73 8.5t72.5 -8t62.5 -25.5t59 -45t61 -66.5l-146 -186h206v-89h-235q-23 0 -45.5 5.5t-36.5 19.5q-49 -14 -83 -26t-55.5 -27t-31.5 -36.5t-10 -55.5q0 -23 11.5 -42.5t41.5 -34.5t83 -23.5t136 -8.5q23 0 50.5 2.5t55.5 6.5z" />
    <glyph glyph-name="aynini" unicode="&#x639;" horiz-adv-x="598" arabic-form="initial" 
d="M-15 89h181q-19 38 -25.5 78.5t-6.5 78.5q0 81 59.5 127.5t164.5 49.5q42 2 95 -5t101 -16v-75q-15 4 -37.5 9t-49 9t-55 6.5t-55.5 2.5t-52 -6t-44.5 -19.5t-31 -34t-11.5 -48.5q0 -44 13.5 -87.5t28.5 -69.5h298v-89h-573v89z" />
    <glyph glyph-name="aynmidi" unicode="&#x639;" horiz-adv-x="588" arabic-form="medial" 
d="M360 0q-32 0 -48 5t-24 28q-13 -23 -29.5 -28t-48.5 -5h-225v89h197l-146 183q30 39 58 67t58 46t63 26.5t73 8.5t72.5 -8t62.5 -25.5t59 -45t61 -66.5l-146 -186h206v-89h-243zM455 275q-11 13 -27 26t-37.5 23.5t-47 17.5t-55.5 7q-31 0 -56 -7.5t-45 -18.5
t-34.5 -24.5t-23.5 -25.5l159 -191z" />
    <glyph glyph-name="ghafina" unicode="&#x63a;" horiz-adv-x="600" arabic-form="final" 
d="M467 275q-11 13 -27 26t-37.5 23.5t-47 17.5t-55.5 7q-31 0 -56 -7.5t-45 -18.5t-34.5 -24.5t-23.5 -25.5l159 -195zM495 -299q-42 -9 -82 -14t-77 -5q-49 0 -102 11.5t-96.5 36t-71.5 62.5t-28 91q0 31 10 60t31 53.5t52.5 44t74.5 31.5l-158 200q30 39 58 67t58 46
t63 26.5t73 8.5t72.5 -8t62.5 -25.5t59 -45t61 -66.5l-146 -186h206v-89h-235q-23 0 -45.5 5.5t-36.5 19.5q-49 -14 -83 -26t-55.5 -27t-31.5 -36.5t-10 -55.5q0 -23 11.5 -42.5t41.5 -34.5t83 -23.5t136 -8.5q23 0 50.5 2.5t55.5 6.5zM245 546q0 24 16 40t39 16t38.5 -16
t15.5 -40q0 -23 -15.5 -38t-38.5 -15t-39 15t-16 38z" />
    <glyph glyph-name="ghaini" unicode="&#x63a;" horiz-adv-x="598" arabic-form="initial" 
d="M-15 89h181q-19 38 -25.5 78.5t-6.5 78.5q0 81 59.5 127.5t164.5 49.5q42 2 95 -5t101 -16v-75q-15 4 -37.5 9t-49 9t-55 6.5t-55.5 2.5t-52 -6t-44.5 -19.5t-31 -34t-11.5 -48.5q0 -44 13.5 -87.5t28.5 -69.5h298v-89h-573v89zM302 546q0 24 16 40t39 16t38.5 -16
t15.5 -40q0 -23 -15.5 -38t-38.5 -15t-39 15t-16 38z" />
    <glyph glyph-name="ghamedi" unicode="&#x63a;" horiz-adv-x="588" arabic-form="medial" 
d="M360 0q-32 0 -48 5t-24 28q-13 -23 -29.5 -28t-48.5 -5h-225v89h197l-146 183q30 39 58 67t58 46t63 26.5t73 8.5t72.5 -8t62.5 -25.5t59 -45t61 -66.5l-146 -186h206v-89h-243zM455 275q-11 13 -27 26t-37.5 23.5t-47 17.5t-55.5 7q-31 0 -56 -7.5t-45 -18.5
t-34.5 -24.5t-23.5 -25.5l159 -191zM233 546q0 24 16 40t39 16t38.5 -16t15.5 -40q0 -23 -15.5 -38t-38.5 -15t-39 15t-16 38z" />
    <glyph glyph-name="fafina" unicode="&#x641;" horiz-adv-x="881" arabic-form="final" 
d="M896 89v-89h-653q-42 0 -78 7t-63 23t-42 42t-15 63q0 56 10.5 96.5t25 69.5t30.5 50.5t27 40.5h70q-35 -56 -57.5 -110.5t-23.5 -97.5t24.5 -69t88.5 -26h338q-19 12 -38 29t-34 37t-24.5 42.5t-9.5 46.5q0 33 9.5 65.5t32 59t59.5 43t92 16.5q51 0 82 -23t48 -59
t23 -80t6 -87v-74q0 -5 -0.5 -8.5t-0.5 -7.5h73zM747 94q0 73 -1.5 123.5t-10.5 82t-29.5 46t-58.5 14.5q-29 0 -48 -6.5t-30 -18.5t-15 -30t-4 -41q0 -30 14.5 -59t41 -53t62.5 -39.5t79 -18.5zM612 546q0 24 16 40t39 16t38.5 -16t15.5 -40q0 -23 -15.5 -38t-38.5 -15
t-39 15t-16 38z" />
    <glyph glyph-name="faini" unicode="&#x641;" horiz-adv-x="487" arabic-form="initial" 
d="M445 105q0 -105 -75 -105h-385v89h216q-20 12 -39 29t-34.5 37t-25 42.5t-9.5 46.5q0 33 9.5 65.5t32 59t59.5 43t92 16.5q51 0 82 -23t48 -59t23 -80t6 -87v-74zM368 94q0 73 -1.5 123.5t-10.5 82t-29.5 46t-58.5 14.5q-29 0 -48 -6.5t-30 -18.5t-15 -30t-4 -41
q0 -30 14.5 -59t41 -53t62.5 -39.5t79 -18.5zM208 546q0 24 16 40t39 16t38.5 -16t15.5 -40q0 -23 -15.5 -38t-38.5 -15t-39 15t-16 38z" />
    <glyph glyph-name="famedi" unicode="&#x641;" horiz-adv-x="565" arabic-form="medial" 
d="M261 361q-36 0 -60.5 -8.5t-40 -23t-22.5 -33t-7 -37.5q0 -59 30 -105.5t100 -66.5q71 19 103 65.5t32 106.5q0 18 -7 36t-22.5 33t-41.5 24t-64 9zM-15 0v89h147q-42 33 -59.5 73t-17.5 76q0 42 13.5 77t39.5 60.5t65 39.5t89 14q52 0 91.5 -14t66 -39.5t40 -60.5
t13.5 -77q0 -35 -18 -77t-56 -72h181v-89h-595zM206 546q0 24 16 40t39 16t38.5 -16t15.5 -40q0 -23 -15.5 -38t-38.5 -15t-39 15t-16 38z" />
    <glyph glyph-name="kaaffina" unicode="&#x642;" horiz-adv-x="783" arabic-form="final" 
d="M631 89q0 5 -0.5 9.5t-0.5 9.5q0 24 -1 51.5t-3 55.5t-4.5 56t-5.5 52q-105 -25 -151.5 -62.5t-48.5 -92.5q0 -15 3.5 -29t13.5 -25t26 -18t42 -7h130zM709 0q-1 -24 -11 -63t-36 -75.5t-71.5 -63t-117.5 -26.5h-169q-46 0 -92.5 15.5t-83.5 47t-60 79t-23 112.5
q0 53 7.5 91.5t19 67.5t25 50t25.5 39h57q-25 -42 -42 -95t-17 -103q0 -31 6 -68.5t27 -70t60.5 -54.5t106.5 -22h127h24.5t36 3t40.5 11t38.5 23.5t29 40t13.5 61.5h-113q-91 0 -136 40.5t-45 125.5q0 39 19 77.5t61 71.5t107.5 58t158.5 38q11 -69 19.5 -149t9.5 -173h88
v-89h-89zM412 545q0 24 16 40t39 16t38.5 -16t15.5 -40q0 -23 -15.5 -38t-38.5 -15t-39 15t-16 38zM576 545q0 24 16 40t39 16t38.5 -16t15.5 -40q0 -23 -15.5 -38t-38.5 -15t-39 15t-16 38z" />
    <glyph glyph-name="kaafini" unicode="&#x642;" horiz-adv-x="487" arabic-form="initial" 
d="M445 105q0 -105 -75 -105h-385v89h216q-20 12 -39 29t-34.5 37t-25 42.5t-9.5 46.5q0 33 9.5 65.5t32 59t59.5 43t92 16.5q51 0 82 -23t48 -59t23 -80t6 -87v-74zM368 94q0 73 -1.5 123.5t-10.5 82t-29.5 46t-58.5 14.5q-29 0 -48 -6.5t-30 -18.5t-15 -30t-4 -41
q0 -30 14.5 -59t41 -53t62.5 -39.5t79 -18.5zM132 545q0 24 16 40t39 16t38.5 -16t15.5 -40q0 -23 -15.5 -38t-38.5 -15t-39 15t-16 38zM296 545q0 24 16 40t39 16t38.5 -16t15.5 -40q0 -23 -15.5 -38t-38.5 -15t-39 15t-16 38z" />
    <glyph glyph-name="kaafmedi" unicode="&#x642;" horiz-adv-x="565" arabic-form="medial" 
d="M261 361q-36 0 -60.5 -8.5t-40 -23t-22.5 -33t-7 -37.5q0 -59 30 -105.5t100 -66.5q71 19 103 65.5t32 106.5q0 18 -7 36t-22.5 33t-41.5 24t-64 9zM-15 0v89h147q-42 33 -59.5 73t-17.5 76q0 42 13.5 77t39.5 60.5t65 39.5t89 14q52 0 91.5 -14t66 -39.5t40 -60.5
t13.5 -77q0 -35 -18 -77t-56 -72h181v-89h-595zM132 545q0 24 16 40t39 16t38.5 -16t15.5 -40q0 -23 -15.5 -38t-38.5 -15t-39 15t-16 38zM296 545q0 24 16 40t39 16t38.5 -16t15.5 -40q0 -23 -15.5 -38t-38.5 -15t-39 15t-16 38z" />
    <glyph glyph-name="kaffina" unicode="&#x643;" horiz-adv-x="788" arabic-form="final" 
d="M803 89v-89h-560q-42 0 -78 7t-63 23t-42 42t-15 63q0 56 10.5 96.5t25 69.5t30.5 50.5t27 40.5h70q-35 -56 -57.5 -110.5t-23.5 -97.5t24.5 -69t88.5 -26h393v553l77 22v-575h93zM286 332l68 21q-22 5 -34 27t-12 41q0 27 11 49.5t29 38.5t40.5 25.5t45.5 10.5t44 -6.5
t36 -24.5l-42 -38q-13 10 -31 13t-34.5 -1.5t-28 -16.5t-11.5 -30q0 -15 6.5 -26.5t16 -19.5t20 -12.5t19.5 -5.5l89 26v-53l-232 -69v51z" />
    <glyph glyph-name="lamfina" unicode="&#x644;" horiz-adv-x="655" arabic-form="final" 
d="M568 0q-5 -54 -26.5 -96.5t-56.5 -72t-81 -45t-101 -15.5q-59 0 -106.5 19t-81 49.5t-52 68t-18.5 74.5q0 54 9.5 93t23.5 68.5t29 50.5t27 39h57q-26 -43 -47 -96.5t-21 -104.5q0 -48 12.5 -80.5t36 -52t57 -27.5t75.5 -8q68 0 118 31t64 88q2 10 4 21t2 22v616l77 22
v-575h101v-89h-102z" />
    <glyph glyph-name="lamini" unicode="&#x644;" horiz-adv-x="251" arabic-form="initial" 
d="M118 89v553l77 22v-664h-210v89h133z" />
    <glyph glyph-name="lammedi" unicode="&#x644;" horiz-adv-x="312" arabic-form="medial" 
d="M195 89h132v-89h-132h-210v89h133v553l77 22v-575z" />
    <glyph glyph-name="meemfina" unicode="&#x645;" horiz-adv-x="625" arabic-form="final" 
d="M233 62q-22 9 -39.5 13.5t-29.5 0.5t-18.5 -17.5t-6.5 -39.5v-249h-77v302q0 27 11 50t30 38t44.5 19t54.5 -7q28 53 57 96t54.5 73t46.5 46.5t35 16.5q23 0 43.5 -19t36.5 -48.5t28.5 -66t20.5 -71.5t11.5 -64.5t2.5 -45.5h102v-89h-127q-14 -26 -23.5 -32.5t-24.5 -6.5
q-13 0 -28 7q-30 12 -79.5 37t-124.5 57zM461 56q-4 45 -10 89.5t-15 80t-20.5 57t-26.5 21.5q-14 0 -33 -20t-37 -46t-32 -51t-19 -35q21 -16 46 -30.5t50.5 -27t50.5 -22.5t46 -16z" />
    <glyph glyph-name="meemini" unicode="&#x645;" horiz-adv-x="491" arabic-form="initial" 
d="M450 87q-1 -13 -2 -29.5t-12 -36.5t-18 -32t-13.5 -18t-12.5 -8t-15 -2q-13 0 -28 7q-30 12 -80.5 34.5t-123.5 59.5q-17 -38 -41 -50t-66 -12h-53v89h87q30 66 64.5 123.5t67 100t60 67t43.5 24.5q24 0 44 -19.5t36.5 -49.5t28.5 -67t20 -72t11.5 -64.5t2.5 -44.5z
M373 56q-4 45 -10 89.5t-15 80t-20.5 57t-26.5 21.5q-14 0 -33 -20t-37 -46t-32 -51t-19 -35q21 -16 46 -30.5t50.5 -27t50.5 -22.5t46 -16z" />
    <glyph glyph-name="meemmedi" unicode="&#x645;" horiz-adv-x="537" arabic-form="medial" 
d="M425 0q-14 -26 -23.5 -32.5t-24.5 -6.5q-13 0 -28 7q-30 12 -80.5 34.5t-123.5 59.5q-17 -38 -41 -50t-66 -12h-53v89h87q30 66 64.5 123.5t67 100t60 67t43.5 24.5q23 0 43.5 -19t36.5 -48.5t28.5 -66t20.5 -71.5t11.5 -64.5t2.5 -45.5h102v-89h-127zM373 56
q-4 45 -10 89.5t-15 80t-20.5 57t-26.5 21.5q-14 0 -33 -20t-37 -46t-32 -51t-19 -35q21 -16 46 -30.5t50.5 -27t50.5 -22.5t46 -16z" />
    <glyph glyph-name="nounfina" unicode="&#x646;" horiz-adv-x="655" arabic-form="final" 
d="M570 0q-15 -42 -40.5 -71t-57.5 -46.5t-69 -25.5t-76 -8h-23q-46 0 -92.5 15.5t-83.5 47t-60 79t-23 112.5q0 43 8.5 77t20.5 60.5t25.5 46.5t24.5 37h59q-9 -20 -20 -41t-20.5 -43t-16 -44t-6.5 -43q0 -31 6 -68.5t27 -70.5t60.5 -55t106.5 -22h17q88 0 131 51.5
t44 135.5q1 65 -7.5 132.5t-23.5 131.5l80 26q30 -141 30 -280q0 -12 -0.5 -23t-1.5 -22h81v-89h-100zM266 489q0 24 16 40t39 16t38.5 -16t15.5 -40q0 -23 -15.5 -38t-38.5 -15t-39 15t-16 38z" />
    <glyph glyph-name="nounini" unicode="&#x646;" horiz-adv-x="348" arabic-form="initial" 
d="M211 89v313l77 22v-424h-303v89h226zM95 546q0 24 16 40t39 16t38.5 -16t15.5 -40q0 -23 -15.5 -38t-38.5 -15t-39 15t-16 38z" />
    <glyph glyph-name="nounmedi" unicode="&#x646;" horiz-adv-x="397" arabic-form="medial" 
d="M173 89v313l77 22v-335h162v-89h-427v89h188zM156 546q0 24 16 40t39 16t38.5 -16t15.5 -40q0 -23 -15.5 -38t-38.5 -15t-39 15t-16 38z" />
    <glyph glyph-name="haiso" unicode="&#x647;" horiz-adv-x="420" arabic-form="isolated" 
d="M328 165q0 21 -8.5 47.5t-24.5 52t-39.5 46t-52.5 29.5q-21 -12 -40.5 -32.5t-35 -45t-25 -52t-9.5 -53.5q0 -40 23.5 -58t80.5 -18q39 0 64 8t40 20t21 27t6 29zM402 162q0 -44 -20.5 -75.5t-51.5 -52t-67 -30t-66 -9.5q-46 0 -79 11t-54.5 29t-31.5 42.5t-10 51.5
q0 31 7 64.5t22 66t37.5 61t52.5 51.5l-44 19l31 47q73 -14 125 -41.5t85 -64t48.5 -80.5t15.5 -90z" />
    <glyph glyph-name="hafina" unicode="&#x647;" horiz-adv-x="588" arabic-form="final" 
d="M74 182q0 40 22 78t69 69.5t120 54.5t174 34v-329h144v-89h-180q-11 7 -18.5 15.5t-12.5 15.5q-5 8 -8 16q-5 -13 -20 -24q-13 -9 -37.5 -16t-66.5 -7q-96 0 -141 48.5t-45 133.5zM160 181q0 -35 8.5 -53.5t21.5 -27t29.5 -10t32.5 -1.5h130v242q-61 -11 -103.5 -27
t-68.5 -35.5t-38 -41.5t-12 -46z" />
    <glyph glyph-name="haini" unicode="&#x647;" horiz-adv-x="633" arabic-form="initial" 
d="M254 89q17 11 23.5 33.5t6.5 50.5q0 59 -20.5 95t-48.5 36q-30 0 -46 -29.5t-16 -71.5q0 -16 2 -33t7 -32.5t12.5 -28.5t19.5 -20h60zM563 0h-578v89h131q-19 24 -25.5 57t-6.5 60q0 23 8.5 47t24 44.5t36 35t44.5 18.5q-60 0 -90 17.5t-37 69.5q38 -11 96 -20.5
t148 -17.5q81 -10 130 -26t75.5 -47.5t35 -82.5t8.5 -131v-113zM486 89q-1 81 -11 127.5t-31.5 71.5t-56 33.5t-84.5 14.5q21 -20 34 -52.5t16.5 -68t-2 -69.5t-20.5 -57h155z" />
    <glyph glyph-name="hamedi" unicode="&#x647;" horiz-adv-x="646" arabic-form="medial" 
d="M254 89q17 11 23.5 33.5t6.5 50.5q0 59 -20.5 95t-48.5 36q-30 0 -46 -29.5t-16 -71.5q0 -16 2 -33t7 -32.5t12.5 -28.5t19.5 -20h60zM563 0h-578v89h132q-20 24 -26.5 57t-6.5 60q0 23 8.5 47t24 44.5t36 35t44.5 18.5q-60 0 -90 17.5t-37 69.5q38 -11 96 -20.5
t148 -17.5q81 -10 130 -26t75.5 -47.5t35 -82.5t8.5 -131v-24h98v-89h-98zM486 89q-1 81 -11 127.5t-32 71t-56.5 33.5t-83.5 15q21 -20 34 -52.5t16.5 -68t-2 -69.5t-20.5 -57h155z" />
    <glyph glyph-name="wawfina" unicode="&#x648;" horiz-adv-x="482" arabic-form="final" 
d="M409 0q-1 -24 -12 -60.5t-38 -71t-73 -62t-117 -33.5l-22 70q46 3 84 21q16 7 32 18.5t29.5 28t23.5 38.5t13 51h-113q-91 0 -136 40.5t-45 125.5q0 39 19 77.5t61 71.5t107.5 58t158.5 38q11 -69 19.5 -149.5t9.5 -172.5h87v-89h-88zM331 89q0 5 -0.5 9.5t-0.5 9.5
q0 24 -1 51.5t-3 55.5t-4.5 56t-5.5 52q-105 -25 -151.5 -62.5t-48.5 -92.5q0 -15 3.5 -29t13.5 -25t26 -18t42 -7h130z" />
    <glyph glyph-name="yaini" unicode="&#x6cc;" horiz-adv-x="348" arabic-form="initial" 
d="M211 89v313l77 22v-424h-303v89h226zM11 -142q0 24 16 40t39 16t38.5 -16t15.5 -40q0 -23 -15.5 -38t-38.5 -15t-39 15t-16 38zM175 -142q0 24 16 40t39 16t38.5 -16t15.5 -40q0 -23 -15.5 -38t-38.5 -15t-39 15t-16 38z" />
    <glyph glyph-name="yamedi" unicode="&#x6cc;" horiz-adv-x="397" arabic-form="medial" 
d="M173 89v313l77 22v-335h162v-89h-427v89h188zM71 -142q0 24 16 40t39 16t38.5 -16t15.5 -40q0 -23 -15.5 -38t-38.5 -15t-39 15t-16 38zM235 -142q0 24 16 40t39 16t38.5 -16t15.5 -40q0 -23 -15.5 -38t-38.5 -15t-39 15t-16 38z" />
    <glyph glyph-name="tehmarboutaiso" unicode="&#x629;" horiz-adv-x="420" arabic-form="isolated" 
d="M328 165q0 21 -8.5 47.5t-24.5 52t-39.5 46t-52.5 29.5q-21 -12 -40.5 -32.5t-35 -45t-25 -52t-9.5 -53.5q0 -40 23.5 -58t80.5 -18q39 0 64 8t40 20t21 27t6 29zM402 162q0 -44 -20.5 -75.5t-51.5 -52t-67 -30t-66 -9.5q-46 0 -79 11t-54.5 29t-31.5 42.5t-10 51.5
q0 31 7 64.5t22 66t37.5 61t52.5 51.5l-44 19l31 47q73 -14 125 -41.5t85 -64t48.5 -80.5t15.5 -90zM49 545q0 24 16 40t39 16t38.5 -16t15.5 -40q0 -23 -15.5 -38t-38.5 -15t-39 15t-16 38zM213 545q0 24 16 40t39 16t38.5 -16t15.5 -40q0 -23 -15.5 -38t-38.5 -15t-39 15
t-16 38z" />
    <glyph glyph-name="alefma2souraiso" unicode="&#x649;" horiz-adv-x="651" arabic-form="isolated" 
d="M551 354q-29 0 -57.5 -10.5t-51 -31t-37 -49t-14.5 -64.5q0 -10 4.5 -22t20.5 -12h114q15 0 28 -2t22.5 -10t15 -25.5t5.5 -47.5q0 -68 -17.5 -112.5t-53.5 -70.5t-92.5 -37t-134.5 -11q-59 0 -106.5 19t-81 49t-52 67.5t-18.5 74.5q0 46 7 81.5t18 62.5t24 47.5t25 37.5
h60q-22 -41 -39 -87.5t-17 -91.5q0 -48 12.5 -80t36 -51.5t57 -27.5t75.5 -8q88 0 134 12.5t65.5 32t21 44.5t1.5 50q0 12 -16 12h-72q-39 0 -64.5 3t-40.5 10.5t-21 21t-6 34.5q0 39 15.5 84.5t47 84t80.5 64t117 25.5q20 0 27.5 -8.5t7.5 -20.5q0 -5 -1.5 -12.5
t-4.5 -14.5t-7 -12t-10 -5t-12.5 3.5t-14.5 3.5z" />
    <glyph glyph-name="kirsehini" unicode="&#x649;" horiz-adv-x="348" arabic-form="initial" 
d="M211 89v313l77 22v-424h-303v89h226z" />
    <glyph glyph-name="kirsehmedi" unicode="&#x649;" horiz-adv-x="397" arabic-form="medial" 
d="M173 89v313l77 22v-335h162v-89h-427v89h188z" />
    <glyph glyph-name="tehmarboutafina" unicode="&#x629;" horiz-adv-x="588" arabic-form="final" 
d="M74 182q0 40 22 78t69 69.5t120 54.5t174 34v-329h144v-89h-180q-11 7 -18.5 15.5t-12.5 15.5q-5 8 -8 16q-5 -13 -20 -24q-13 -9 -37.5 -16t-66.5 -7q-96 0 -141 48.5t-45 133.5zM160 181q0 -35 8.5 -53.5t21.5 -27t29.5 -10t32.5 -1.5h130v242q-61 -11 -103.5 -27
t-68.5 -35.5t-38 -41.5t-12 -46zM157 546q0 24 16 40t39 16t38.5 -16t15.5 -40q0 -23 -15.5 -38t-38.5 -15t-39 15t-16 38zM321 546q0 24 16 40t39 16t38.5 -16t15.5 -40q0 -23 -15.5 -38t-38.5 -15t-39 15t-16 38z" />
    <glyph glyph-name="yafina" unicode="&#x64a;" horiz-adv-x="868" arabic-form="final" 
d="M303 -151q-59 0 -106.5 19t-81 49t-52 67.5t-18.5 74.5q0 46 7 81.5t18 62.5t24 47.5t25 37.5h60q-22 -41 -39 -87.5t-17 -91.5q0 -48 12.5 -80t36 -51.5t57 -27.5t75.5 -8q88 0 134 12.5t65.5 32t21 44.5t1.5 50q0 12 -16 12h-72q-39 0 -64.5 3t-40.5 10.5t-21 21
t-6 34.5q0 39 15.5 84.5t47 84t80.5 64t117 25.5q65 0 105.5 -33.5t64 -84t34 -108t14.5 -105.5h99v-89h-177q0 82 -7.5 140.5t-20 97.5t-28.5 62t-32.5 35t-32.5 15t-28 3q-29 0 -58.5 -10.5t-53.5 -30.5t-39 -48.5t-15 -64.5q0 -10 4.5 -22t20.5 -12h114q15 0 28 -2
t22.5 -10t15 -25.5t5.5 -47.5q0 -68 -17.5 -112.5t-53.5 -70.5t-92.5 -37t-134.5 -11zM195 -283q0 24 16 40t39 16t38.5 -16t15.5 -40q0 -23 -15.5 -38t-38.5 -15t-39 15t-16 38zM359 -283q0 24 16 40t39 16t38.5 -16t15.5 -40q0 -23 -15.5 -38t-38.5 -15t-39 15t-16 38z
" />
    <glyph glyph-name="vehiso" unicode="&#x6a4;" horiz-adv-x="874" arabic-form="isolated" 
d="M824 105q0 -105 -75 -105h-506q-42 0 -78 7t-63 23t-42 42t-15 63q0 56 10.5 96.5t25 69.5t30.5 50.5t27 40.5h70q-35 -56 -57.5 -109.5t-23.5 -95.5t24.5 -68.5t88.5 -29.5h339q-20 12 -39 29t-34 37t-24.5 42.5t-9.5 46.5q0 33 9.5 65.5t32 59t59.5 43t92 16.5
q51 0 82 -23t48 -59t23 -80t6 -87v-74zM747 94q0 73 -1.5 123.5t-10.5 82t-29.5 46t-58.5 14.5q-29 0 -48 -6.5t-30 -18.5t-15 -30t-4 -41q0 -30 14.5 -59t41 -53t62.5 -39.5t79 -18.5zM493 546q0 24 16 40t39 16t38.5 -16t15.5 -40q0 -23 -15.5 -38t-38.5 -15t-39 15
t-16 38zM657 546q0 24 16 40t39 16t38.5 -16t15.5 -40q0 -23 -15.5 -38t-38.5 -15t-39 15t-16 38zM573 682q0 24 16 40t39 16t38.5 -16t15.5 -40q0 -23 -15.5 -38t-38.5 -15t-39 15t-16 38z" />
    <glyph glyph-name="vehfina" unicode="&#x6a4;" horiz-adv-x="881" arabic-form="final" 
d="M896 89v-89h-653q-42 0 -78 7t-63 23t-42 42t-15 63q0 56 10.5 96.5t25 69.5t30.5 50.5t27 40.5h70q-35 -56 -57.5 -110.5t-23.5 -97.5t24.5 -69t88.5 -26h338q-19 12 -38 29t-34 37t-24.5 42.5t-9.5 46.5q0 33 9.5 65.5t32 59t59.5 43t92 16.5q51 0 82 -23t48 -59
t23 -80t6 -87v-74q0 -5 -0.5 -8.5t-0.5 -7.5h73zM747 94q0 73 -1.5 123.5t-10.5 82t-29.5 46t-58.5 14.5q-29 0 -48 -6.5t-30 -18.5t-15 -30t-4 -41q0 -30 14.5 -59t41 -53t62.5 -39.5t79 -18.5zM519 546q0 24 16 40t39 16t38.5 -16t15.5 -40q0 -23 -15.5 -38t-38.5 -15
t-39 15t-16 38zM683 546q0 24 16 40t39 16t38.5 -16t15.5 -40q0 -23 -15.5 -38t-38.5 -15t-39 15t-16 38zM599 682q0 24 16 40t39 16t38.5 -16t15.5 -40q0 -23 -15.5 -38t-38.5 -15t-39 15t-16 38z" />
    <glyph glyph-name="vehini" unicode="&#x6a4;" horiz-adv-x="487" arabic-form="initial" 
d="M445 105q0 -105 -75 -105h-385v89h216q-20 12 -39 29t-34.5 37t-25 42.5t-9.5 46.5q0 33 9.5 65.5t32 59t59.5 43t92 16.5q51 0 82 -23t48 -59t23 -80t6 -87v-74zM368 94q0 73 -1.5 123.5t-10.5 82t-29.5 46t-58.5 14.5q-29 0 -48 -6.5t-30 -18.5t-15 -30t-4 -41
q0 -30 14.5 -59t41 -53t62.5 -39.5t79 -18.5zM111 546q0 24 16 40t39 16t38.5 -16t15.5 -40q0 -23 -15.5 -38t-38.5 -15t-39 15t-16 38zM275 546q0 24 16 40t39 16t38.5 -16t15.5 -40q0 -23 -15.5 -38t-38.5 -15t-39 15t-16 38zM191 682q0 24 16 40t39 16t38.5 -16t15.5 -40
q0 -23 -15.5 -38t-38.5 -15t-39 15t-16 38z" />
    <glyph glyph-name="vehmedi" unicode="&#x6a4;" horiz-adv-x="565" arabic-form="medial" 
d="M261 361q-36 0 -60.5 -8.5t-40 -23t-22.5 -33t-7 -37.5q0 -59 30 -105.5t100 -66.5q71 19 103 65.5t32 106.5q0 18 -7 36t-22.5 33t-41.5 24t-64 9zM-15 0v89h147q-42 33 -59.5 73t-17.5 76q0 42 13.5 77t39.5 60.5t65 39.5t89 14q52 0 91.5 -14t66 -39.5t40 -60.5
t13.5 -77q0 -35 -18 -77t-56 -72h181v-89h-595zM131 546q0 24 16 40t39 16t38.5 -16t15.5 -40q0 -23 -15.5 -38t-38.5 -15t-39 15t-16 38zM295 546q0 24 16 40t39 16t38.5 -16t15.5 -40q0 -23 -15.5 -38t-38.5 -15t-39 15t-16 38zM211 682q0 24 16 40t39 16t38.5 -16
t15.5 -40q0 -23 -15.5 -38t-38.5 -15t-39 15t-16 38z" />
    <glyph glyph-name="otherhafina" unicode="&#x6c1;" horiz-adv-x="588" arabic-form="final" 
d="M74 182q0 40 22 78t69 69.5t120 54.5t174 34v-329h144v-89h-180q-11 7 -18.5 15.5t-12.5 15.5q-5 8 -8 16q-5 -13 -20 -24q-13 -9 -37.5 -16t-66.5 -7q-96 0 -141 48.5t-45 133.5zM160 181q0 -35 8.5 -53.5t21.5 -27t29.5 -10t32.5 -1.5h130v242q-61 -11 -103.5 -27
t-68.5 -35.5t-38 -41.5t-12 -46z" />
    <glyph glyph-name=".notdef" horiz-adv-x="477" 
d="M477 680v-680h-477v680h477zM428 46v588h-379v-588h379zM199 265q0 36 19 61l44 59q29 35 29 66q0 26 -16.5 43t-43.5 17q-28 0 -45 -16t-24 -51l-55 11q8 51 41.5 79.5t84.5 28.5t83.5 -32t32.5 -80q0 -43 -32 -84l-44 -59q-16 -22 -16 -48v-29h-58v34zM260 183v-69h-65
v69h65z" />
    <glyph glyph-name="NULL" horiz-adv-x="0" 
 />
    <glyph glyph-name="nonmarkingreturn" horiz-adv-x="256" 
 />
    <glyph glyph-name="space" unicode=" " horiz-adv-x="256" 
 />
    <glyph glyph-name="space" unicode="&#xa0;" horiz-adv-x="256" 
 />
    <glyph glyph-name="exclam" unicode="!" horiz-adv-x="287" 
d="M95 680h97l-18 -496h-60zM191 105v-105h-95v105h95z" />
    <glyph glyph-name="comma" unicode="," horiz-adv-x="230" 
d="M159 -11l-88 -121v237h88v-116z" />
    <glyph glyph-name="period" unicode="." horiz-adv-x="236" 
d="M71 105h94v-105h-94v105z" />
    <glyph glyph-name="slash" unicode="/" horiz-adv-x="416" 
d="M289 691h72l-227 -702h-73z" />
    <glyph glyph-name="colon" unicode=":" horiz-adv-x="244" 
d="M75 480h94v-105h-94v105zM169 105v-105h-94v105h94z" />
    <glyph glyph-name="semicolon" unicode=";" horiz-adv-x="244" 
d="M75 480h94v-105h-94v105zM168 105v-113l-92 -126v239h92z" />
    <glyph glyph-name="equal" unicode="=" 
d="M61 412h419v-74h-419v74zM61 215h419v-74h-419v74z" />
    <glyph glyph-name="guillemotleft" unicode="&#xab;" horiz-adv-x="535" 
d="M256 471v-95l-111 -112l112 -112v-95l-205 207zM471 471v-95l-111 -112l111 -112v-95l-204 207z" />
    <glyph glyph-name="guillemotright" unicode="&#xbb;" horiz-adv-x="535" 
d="M71 152l110 112l-110 112v95l201 -207l-201 -210v98zM286 152l109 112l-109 112v95l201 -207l-201 -210v98z" />
    <glyph glyph-name="divide" unicode="&#xf7;" 
d="M325 438q0 -24 -16 -40q-17 -15 -39 -15q-23 0 -39 15q-15 16 -15 40q0 23 15 38q17 17 39 17t39 -17q16 -15 16 -38zM480 239h-419v74h419v-74zM325 115q0 -24 -16 -40q-17 -15 -39 -15q-23 0 -39 15q-15 16 -15 40q0 23 15 38q17 17 39 17t39 -17q16 -15 16 -38z" />
    <glyph glyph-name="arabiccoma" unicode="&#x60c;" horiz-adv-x="221" 
d="M131 -2q-30 0 -49.5 27.5t-19.5 69.5q0 58 33 102q9 11 21.5 22t29.5 23l12 -21l-19.5 -19.5t-15.5 -16.5q-20 -29 -20 -49q0 -21 41 -30q18 -5 29.5 -20t11.5 -35q0 -23 -15.5 -38t-38.5 -15z" />
    <glyph glyph-name="arabicsemicolon" unicode="&#x61b;" horiz-adv-x="199" 
d="M51 51q0 24 16 40t39 16t38.5 -16t15.5 -40q0 -23 -15.5 -38t-38.5 -15t-39 15t-16 38zM109 243q-30 0 -49.5 27.5t-19.5 69.5q0 58 33 102q9 11 21.5 22t29.5 23l12 -21l-19.5 -19.5t-15.5 -16.5q-20 -29 -20 -49q0 -21 41 -30q18 -5 29.5 -20t11.5 -35q0 -23 -15.5 -38
t-38.5 -15z" />
    <glyph glyph-name="arabicquestionmark" unicode="&#x61f;" horiz-adv-x="478" 
d="M220 175q0 26 -1 43t-5 29.5t-12.5 22t-23.5 20.5q-47 33 -74 56t-41 42.5t-18 38.5t-4 43q0 42 14.5 77t43.5 60.5t74 40t105 14.5q50 0 84 -8t67 -31l-30 -66q-18 10 -33.5 17t-30.5 10.5t-30 5t-32 1.5q-26 0 -53 -5.5t-50 -19t-37.5 -37.5t-14.5 -60q0 -12 2.5 -22
t12 -23t28.5 -30.5t52 -44.5q23 -18 39 -33t26 -33t14.5 -43.5t4.5 -64.5h-77zM204 51q0 24 16 40t39 16t38.5 -16t15.5 -40q0 -23 -15.5 -38t-38.5 -15t-39 15t-16 38z" />
    <glyph glyph-name="tatweel" unicode="&#x640;" horiz-adv-x="342" 
d="M-10 89h362v-89h-362v89z" />
    <glyph glyph-name="fathatan" unicode="&#x64b;" horiz-adv-x="0" 
d="M38 736l203 57v-45l-203 -57v45zM38 819l203 57v-45l-203 -57v45z" />
    <glyph glyph-name="damatan" unicode="&#x64c;" horiz-adv-x="0" 
d="M184 811q-5 20 -11.5 34.5t-14.5 14.5q-7 -2 -11 -7.5t-6 -12.5q-3 -8 -4 -17q0 -9 6 -13.5t15 -4.5q6 0 12.5 2t13.5 4zM36 727q9 12 26 20.5t31 8.5q10 0 22 -7.5t19 -21.5q16 7 28.5 18.5t18.5 27.5q-6 -1 -16 -2.5t-20 -1.5q-18 0 -30.5 7.5t-12.5 32.5q0 18 6 34.5
t15.5 29t21 20t22.5 7.5t20.5 -8t16 -20.5t10.5 -28.5t4 -32q0 -30 -7.5 -51.5t-20.5 -36.5t-32 -25.5t-41 -19.5q-8 26 -16.5 34.5t-19.5 8.5q-10 0 -24 -9.5t-22 -17.5z" />
    <glyph glyph-name="kasratan" unicode="&#x64d;" horiz-adv-x="0" 
d="M46 -551l203 57v-45l-203 -57v45zM46 -468l203 57v-45l-203 -57v45z" />
    <glyph glyph-name="fatha" unicode="&#x64e;" horiz-adv-x="0" 
d="M21 868l203 57v-45l-203 -57v45z" />
    <glyph glyph-name="damma" unicode="&#x64f;" horiz-adv-x="0" 
d="M61.1602 821.571q21.1748 7.36328 42.8105 18.4072q21.6348 11.0439 29.9209 32.2129q-7.36523 -0.920898 -18.873 -2.76172q-11.5088 -1.84082 -23.0166 -0.459961t-20.7148 7.3623q-9.20703 5.98242 -10.127 20.708q-1.8418 17.4873 3.22168 34.0537
q5.06348 16.5654 13.3496 28.9902t19.334 20.248t22.0957 8.74316q8.28613 0.920898 16.5713 -4.60156q8.28613 -5.52246 15.1914 -15.1855q6.9043 -9.66406 11.5078 -22.0889t5.52441 -25.3096q1.84082 -35.8936 -5.98438 -58.9023t-23.0166 -38.1943
q-15.1904 -15.1855 -35.4453 -24.3896q-20.2539 -9.20312 -42.3496 -17.4863v38.6543zM135.732 907.164q-3.68164 18.4072 -10.127 32.2119q-6.44434 13.8057 -13.8096 12.8857q-8.28613 -1.84082 -12.8896 -13.3457q-4.60254 -11.5039 -5.52344 -17.0264
q-1.8418 -17.4863 12.4287 -19.3271t29.9209 4.60156z" />
    <glyph glyph-name="kasra" unicode="&#x650;" horiz-adv-x="0" 
d="M46 -471l203 57v-45l-203 -57v45z" />
    <glyph glyph-name="shaddah" unicode="&#x651;" horiz-adv-x="0" 
d="M66 783q0 -8 -0.5 -18t1 -20t6.5 -16.5t15 -6.5q14 0 20.5 11t6.5 26v32l41 11v-30q0 -14 5 -22.5t16 -8.5q13 0 19.5 9.5t6.5 25.5v34l41 11v-39q0 -45 -19 -65.5t-44 -20.5q-11 0 -25 3.5t-21 11.5q-19 -32 -49 -32q-31 0 -42.5 21t-11.5 44v29z" />
    <glyph glyph-name="soukoun" unicode="&#x652;" horiz-adv-x="0" 
d="M114 785q23 0 29.5 9.5t6.5 20.5q0 19 -9 33.5t-27 14.5q-17 0 -26.5 -14.5t-9.5 -33.5q0 -11 6 -20.5t30 -9.5zM113 750q-22 0 -36 6t-22.5 15t-12 20.5t-3.5 23.5q0 14 4.5 28.5t14 26t23.5 19t33 7.5t33 -7.5t23.5 -19t14 -26t4.5 -28.5q0 -12 -3.5 -24t-12 -21
t-23 -14.5t-37.5 -5.5z" />
    <glyph glyph-name="zeroarabic" unicode="&#x660;" 
d="M72 340q0 176 14 223q20 63 67 95.5t117 32.5q144 0 185 -128q14 -47 14 -223q0 -175 -14 -223q-41 -128 -185 -128q-70 0 -117 32.5t-67 95.5q-14 48 -14 223zM270 65q79 0 103 69q12 34 12 206q0 171 -12 207q-24 68 -103 68q-78 0 -102 -68q-12 -36 -12 -207
q0 -172 12 -206q24 -69 102 -69z" />
    <glyph glyph-name="zeroarabic" unicode="&#x6f0;" 
d="M72 340q0 176 14 223q20 63 67 95.5t117 32.5q144 0 185 -128q14 -47 14 -223q0 -175 -14 -223q-41 -128 -185 -128q-70 0 -117 32.5t-67 95.5q-14 48 -14 223zM270 65q79 0 103 69q12 34 12 206q0 171 -12 207q-24 68 -103 68q-78 0 -102 -68q-12 -36 -12 -207
q0 -172 12 -206q24 -69 102 -69z" />
    <glyph glyph-name="onearabic" unicode="&#x661;" horiz-adv-x="485" 
d="M252 578l-126 -89v95l132 96h77v-680h-83v578z" />
    <glyph glyph-name="onearabic" unicode="&#x6f1;" horiz-adv-x="485" 
d="M252 578l-126 -89v95l132 96h77v-680h-83v578z" />
    <glyph glyph-name="twoarabic" unicode="&#x662;" 
d="M411 639q52 -52 52 -133q0 -80 -66 -162l-213 -268h279v-76h-383v68l250 320q50 65 50 118q0 48 -30.5 78.5t-79.5 30.5q-48 0 -77 -28.5t-36 -83.5l-79 18q4 39 19.5 70.5t40.5 53.5t59 34t75 12q87 0 139 -52z" />
    <glyph glyph-name="twoarabic" unicode="&#x6f2;" 
d="M411 639q52 -52 52 -133q0 -80 -66 -162l-213 -268h279v-76h-383v68l250 320q50 65 50 118q0 48 -30.5 78.5t-79.5 30.5q-48 0 -77 -28.5t-36 -83.5l-79 18q4 39 19.5 70.5t40.5 53.5t59 34t75 12q87 0 139 -52z" />
    <glyph glyph-name="threearabic" unicode="&#x663;" 
d="M460 508q0 -49 -20.5 -85.5t-65.5 -63.5q42 -18 71 -63t29 -106q0 -88 -57 -145q-59 -56 -146 -56q-40 0 -74.5 11t-60.5 31t-44 48.5t-25 63.5l79 19q29 -96 125 -96q54 0 86.5 33.5t32.5 87.5q0 57 -35 92.5t-92 35.5h-40v75h39q51 0 82.5 32t31.5 83t-29.5 80.5
t-80.5 29.5q-45 0 -74 -24t-38 -70l-78 19q6 34 22 62t41.5 47.5t58 30.5t71.5 11q43 0 78.5 -13.5t60.5 -37.5t38.5 -57.5t13.5 -74.5z" />
    <glyph glyph-name="threearabic" unicode="&#x6f3;" 
d="M460 508q0 -49 -20.5 -85.5t-65.5 -63.5q42 -18 71 -63t29 -106q0 -88 -57 -145q-59 -56 -146 -56q-40 0 -74.5 11t-60.5 31t-44 48.5t-25 63.5l79 19q29 -96 125 -96q54 0 86.5 33.5t32.5 87.5q0 57 -35 92.5t-92 35.5h-40v75h39q51 0 82.5 32t31.5 83t-29.5 80.5
t-80.5 29.5q-45 0 -74 -24t-38 -70l-78 19q6 34 22 62t41.5 47.5t58 30.5t71.5 11q43 0 78.5 -13.5t60.5 -37.5t38.5 -57.5t13.5 -74.5z" />
    <glyph glyph-name="sevenarabic" unicode="&#x667;" 
d="M382 604h-215v-101h-80v177h383v-75l-241 -605h-85z" />
    <glyph glyph-name="sevenarabic" unicode="&#x6f7;" 
d="M382 604h-215v-101h-80v177h383v-75l-241 -605h-85z" />
    <glyph glyph-name="eightarabic" unicode="&#x668;" 
d="M160 358q-37 20 -60 59t-23 87q0 77 53 133q52 54 140 54t141 -54q53 -56 53 -133q0 -48 -23 -88t-60 -58q46 -23 72.5 -67t26.5 -102q0 -88 -59 -144t-151 -56t-151 56q-58 57 -58 144q0 58 25.5 101t73.5 68zM380 505q0 48 -30.5 79t-79.5 31q-48 0 -78.5 -31
t-30.5 -79t30.5 -78.5t78.5 -30.5q49 0 79.5 30.5t30.5 78.5zM270 66q57 0 91.5 34.5t34.5 91.5t-34.5 92.5t-91.5 35.5t-91 -35.5t-34 -92.5t34 -91.5t91 -34.5z" />
    <glyph glyph-name="eightarabic" unicode="&#x6f8;" 
d="M160 358q-37 20 -60 59t-23 87q0 77 53 133q52 54 140 54t141 -54q53 -56 53 -133q0 -48 -23 -88t-60 -58q46 -23 72.5 -67t26.5 -102q0 -88 -59 -144t-151 -56t-151 56q-58 57 -58 144q0 58 25.5 101t73.5 68zM380 505q0 48 -30.5 79t-79.5 31q-48 0 -78.5 -31
t-30.5 -79t30.5 -78.5t78.5 -30.5q49 0 79.5 30.5t30.5 78.5zM270 66q57 0 91.5 34.5t34.5 91.5t-34.5 92.5t-91.5 35.5t-91 -35.5t-34 -92.5t34 -91.5t91 -34.5z" />
    <glyph glyph-name="ninearabic" unicode="&#x669;" 
d="M255 278q-83 0 -138 55q-55 56 -55 147q0 97 58 154t150 57q90 0 149 -56t59 -152q0 -73 -45 -154l-176 -329h-88l159 298q-25 -20 -73 -20zM270 354q55 0 89.5 35.5t34.5 95.5q0 58 -34.5 94t-89.5 36t-89.5 -36.5t-34.5 -93.5q0 -60 34.5 -95.5t89.5 -35.5z" />
    <glyph glyph-name="ninearabic" unicode="&#x6f9;" 
d="M255 278q-83 0 -138 55q-55 56 -55 147q0 97 58 154t150 57q90 0 149 -56t59 -152q0 -73 -45 -154l-176 -329h-88l159 298q-25 -20 -73 -20zM270 354q55 0 89.5 35.5t34.5 95.5q0 58 -34.5 94t-89.5 36t-89.5 -36.5t-34.5 -93.5q0 -60 34.5 -95.5t89.5 -35.5z" />
    <glyph glyph-name="percentarabic" unicode="&#x66a;" horiz-adv-x="700" 
d="M239 0h-70l337 666h67zM89 607q0 24 16 40t39 16t38.5 -16t15.5 -40q0 -23 -15.5 -38t-38.5 -15t-39 15t-16 38zM553 49q0 24 16 40t39 16t38.5 -16t15.5 -40q0 -23 -15.5 -38t-38.5 -15t-39 15t-16 38z" />
    <glyph glyph-name="arabicalefsuperscript" unicode="&#x670;" horiz-adv-x="156" 
d="M75 690h31v-159l-17 -2q-4 0 -14 -2v163z" />
    <glyph glyph-name="fourfarsi" unicode="&#x6f4;" horiz-adv-x="480" 
d="M52 190l226 490h87l-222 -484h189v194h83v-194h78v-76h-78v-120h-83l-1 120h-279v70z" />
    <glyph glyph-name="sixfarsi" unicode="&#x6f6;" horiz-adv-x="484" 
d="M108 352l177 328h87l-160 -297q23 19 74 19q83 0 138 -55q55 -56 55 -146q0 -98 -59 -155q-60 -57 -149 -57q-90 0 -150 57q-58 55 -58 151q0 72 45 155zM271 326q-55 0 -89.5 -36t-34.5 -94t33.5 -94t90.5 -36t90.5 36t33.5 94t-33.5 94t-90.5 36z" />
    <glyph glyph-name="afii61664" unicode="&#x200c;" horiz-adv-x="22" 
d="M22 0h-22v795h22v-795z" />
    <glyph glyph-name="afii301" unicode="&#x200d;" horiz-adv-x="22" 
d="M78 730l-15 -14l-41 41v-757h-22v757l-41 -41l-15 14l53 53l-53 52l15 15l52 -53l52 53l15 -15l-52 -52z" />
    <glyph glyph-name="afii299" unicode="&#x200e;" horiz-adv-x="22" 
d="M148 783l-67 -67l-15 15l42 42h-86v-773h-22v795h106l-40 40l15 15z" />
    <glyph glyph-name="afii300" unicode="&#x200f;" horiz-adv-x="22" 
d="M22 0h-22v773h-86l42 -42l-15 -15l-67 67l67 67l15 -15l-40 -40h106v-795z" />
    <glyph glyph-name="madda" unicode="&#x653;" horiz-adv-x="436" 
d="M-24 783q26 -14 78.5 -19t115.5 6q17 3 36 6.5t36 6.5q88 16 144 0.5t88 -64.5q-25 14 -75 20t-113 -5q-20 -4 -41 -9t-41 -8q-83 -14 -140.5 2t-87.5 64z" />
    <glyph glyph-name="arabichamzaabove" unicode="&#x654;" horiz-adv-x="254" 
d="M9 734l68 21q-22 5 -34 27t-12 41q0 27 11 49.5t29 38.5t40.5 25.5t45.5 10.5t44 -6t36 -25l-42 -38q-13 10 -31 13t-34.5 -1.5t-28 -16.5t-11.5 -30q0 -15 6.5 -26.5t16 -19.5t20 -12.5t19.5 -5.5l89 26v-53l-232 -69v51z" />
    <glyph glyph-name="arabichamzabelow" unicode="&#x655;" horiz-adv-x="254" 
d="M9 -273l68 21q-22 5 -34 27t-12 41q0 27 11 49.5t29 38.5t40.5 25.5t45.5 10.5t44 -6t36 -25l-42 -38q-13 10 -31 13t-34.5 -1.5t-28 -16.5t-11.5 -30q0 -15 6.5 -26.5t16 -19.5t20 -12.5t19.5 -5.5l89 26v-53l-232 -69v51z" />
    <glyph glyph-name="uni066C" unicode="&#x66c;" horiz-adv-x="210" 
d="M63 22l88 121v-237h-88v116z" />
    <glyph glyph-name="uni066B" unicode="&#x66b;" horiz-adv-x="237" 
d="M159 -11l-88 -121v237h88v-116z" />
    <glyph glyph-name="parenleft" unicode="(" horiz-adv-x="285" 
d="M63 328q0 224 125 412h56q-101 -194 -101 -412q0 -108 25 -212t76 -200h-55q-126 187 -126 412z" />
    <glyph glyph-name="parenright" unicode=")" horiz-adv-x="285" 
d="M147 328q0 109 -25.5 213.5t-76.5 198.5h56q63 -93 94.5 -196.5t31.5 -215.5q0 -111 -32 -215t-93 -197h-56q51 94 76 198.5t25 213.5z" />
    <glyph glyph-name="multiply" unicode="&#xd7;" horiz-adv-x="544" 
d="M278 223l-134 -132l-50 52l132 133l-132 133l50 52l134 -132l133 132l50 -52l-133 -133l133 -133l-50 -52z" />
    <glyph glyph-name="plus" unicode="+" 
d="M232 239h-171v74h171v173h77v-173h171v-74h-171v-173h-77v173z" />
    <glyph glyph-name="hyphen" unicode="-" horiz-adv-x="380" 
d="M47 304h286v-75h-286v75z" />
    <glyph glyph-name="uni0656" unicode="&#x656;" horiz-adv-x="589" 
d="M327 -485l-35 -4l-11 147l46 6v-149z" />
    <glyph glyph-name="periodcentered" unicode="&#xb7;" horiz-adv-x="199" 
d="M100 300q12 0 21.5 -4t17.5 -12q15 -17 15 -39q0 -23 -15 -39q-8 -8 -17.5 -12t-21.5 -4q-21 0 -39 16q-16 18 -16 39q0 12 4 21.5t12 17.5q18 16 39 16z" />
    <glyph glyph-name="dottedcircle" unicode="&#x25cc;" horiz-adv-x="649" 
d="M49 387l25 -9q-4 -9 -6.5 -18.5t-4.5 -19.5t-3 -19.5t-2 -19.5h-27q3 44 18 86zM39 215q-6 21 -6 43l25 3q3 -38 20 -78l-26 -9q-5 10 -8 20t-5 21zM121 496l19 -21q-8 -6 -14.5 -13t-13.5 -15q-6 -8 -11.5 -16.5t-11.5 -17.5l-22 13q12 20 25.5 37.5t28.5 32.5zM97 99
q-7 8 -13 17t-13 19l24 13q5 -8 10.5 -16t11.5 -16q7 -8 13.5 -14.5l14.5 -14.5l-18 -19q-19 16 -30 31zM192 544q11 5 20 9.5t20 7.5l9 -25q-39 -13 -71 -36l-17 23q11 6 20 11t19 10zM199 20q-10 5 -19.5 10t-18.5 12l14 21q9 -5 17.5 -10t17.5 -10q15 -7 37 -12l-6 -26
q-23 7 -42 15zM298 574q6 1 12 1h12h9.5t9.5 -1h10.5t9.5 -1l-3 -27q-9 1 -18.5 1.5t-18.5 0.5h-10t-11 -1q-11 0 -21 -3l-6 27q6 1 12.5 1.5t12.5 1.5zM347 -6q-6 -1 -11.5 -1h-11.5q-20 0 -42 3l4 26q16 -3 35 -3q10 0 21 1t22 3l6 -27q-6 -1 -12 -1.5t-11 -0.5zM445 548
q10 -5 19.5 -10t17.5 -13l-15 -20q-16 11 -34 19q-9 5 -18 8t-19 6l8 25q22 -6 41 -15zM452 23q-11 -5 -20.5 -8.5t-19.5 -7.5l-10 25q21 7 38 16q19 10 34 19l16 -22q-9 -6 -19 -11.5t-19 -10.5zM546 469q7 -8 13 -17t12 -19l-23 -14q-8 16 -22 33q-6 7 -12.5 14t-14.5 15
l18 19l15.5 -15.5t13.5 -15.5zM552 106q-14 -17 -30 -33l-18 20q14 11 27 29q13 16 22 33l24 -13q-6 -10 -12 -18.5t-13 -17.5zM605 353q5 -23 5 -43l-24 -3q-1 9 -2.5 19t-4.5 20t-6 19.5t-7 19.5l25 9q5 -10 8.5 -20t5.5 -21zM594 181l-24 9q3 10 5.5 19t4.5 19q4 19 6 39
h26q-2 -44 -18 -86z" />
    <glyph glyph-name="minus.001" horiz-adv-x="549" 
d="M470 286q6 0 6 -6v-56q0 -6 -6 -6h-420q-6 0 -6 6v56q0 6 6 6h420z" />
    <glyph glyph-name="fivefarsi" unicode="&#x6f5;" horiz-adv-x="480" 
d="M163 161q10 -48 40 -71.5t76 -23.5q79 0 101 67q10 24 10 86q0 55 -11 88q-21 66 -100 66q-39 0 -67 -19t-38 -55h-76v381h362l-1 -76h-283v-202q16 21 46.5 34t67.5 13q64 0 107 -28.5t61 -83.5q15 -48 15 -118q0 -65 -14 -110q-18 -57 -66 -88.5t-114 -31.5
q-79 0 -131.5 41t-61.5 111z" />
    <glyph glyph-name="ellipsis" unicode="&#x2026;" horiz-adv-x="708" 
d="M71 105h94v-105h-94v105zM307 105h94v-105h-94v105zM543 105h94v-105h-94v105z" />
    <glyph glyph-name="uni2010.001" horiz-adv-x="411" 
d="M343 0h-275v73h275v-73z" />
    <glyph glyph-name="braceleft" unicode="{" horiz-adv-x="332" 
d="M239 -84q-105 0 -105 113v183q0 43 -17.5 62.5t-55.5 18.5v75q39 0 56 19.5t17 61.5v179q0 112 105 112h56v-66h-38q-46 0 -46 -49v-175q0 -55 -14 -81t-49 -38q18 -6 30 -15t19.5 -23t10.5 -34t3 -48v-179q0 -50 46 -50h38v-66h-56z" />
    <glyph glyph-name="bar" unicode="|" horiz-adv-x="288" 
d="M109 740h70v-824h-70v824z" />
    <glyph glyph-name="braceright" unicode="}" horiz-adv-x="332" 
d="M199 628v-179q0 -45 17.5 -63t54.5 -18v-75q-36 0 -54 -18t-18 -63v-183q0 -113 -106 -113h-55v66h38q46 0 46 50v179q0 57 13.5 82t49.5 37q-35 12 -49 38.5t-14 81.5v175q0 49 -46 49h-38v66h55q106 0 106 -112z" />
    <glyph glyph-name="bracketleft" unicode="[" horiz-adv-x="282" 
d="M81 740h163v-66h-85v-692h85v-66h-163v824z" />
    <glyph glyph-name="bracketright" unicode="]" horiz-adv-x="282" 
d="M201 -84h-163v66h85v692h-85v66h163v-824z" />
    <glyph glyph-name="quotedbl" unicode="&#x22;" horiz-adv-x="330" 
d="M68 680h63v-176h-63v176zM198 680h64v-176h-64v176z" />
    <glyph glyph-name="numbersign" unicode="#" horiz-adv-x="516" 
d="M406 480h87v-62h-95l-20 -142h90v-61h-98l-29 -215h-65l29 215h-133l-29 -215h-65l29 215h-83v61h91l20 142h-86v62h94l27 200h65l-27 -200h133l27 200h65zM200 418l-20 -142h133l20 142h-133z" />
    <glyph glyph-name="dollar" unicode="$" 
d="M309 -8v-63h-49v61q-116 4 -198 72l49 63q70 -53 149 -59v241q-88 14 -133.5 63t-45.5 124q0 40 12.5 74t36 59.5t56.5 41.5t74 20v62h49v-62q43 -3 80 -15.5t77 -38.5l-42 -64q-60 35 -115 41v-230q183 -32 183 -188q0 -85 -48 -138.5t-135 -63.5zM260 389v223
q-48 -7 -73 -37t-25 -75t23.5 -72t74.5 -39zM411 190q0 87 -102 110v-232q102 17 102 122z" />
    <glyph glyph-name="percent" unicode="%" horiz-adv-x="776" 
d="M624 691l-406 -701h-66l406 701h66zM83 407q-8 32 -8 102q0 72 8 102q12 37 42.5 57t73.5 20q42 0 72.5 -20.5t42.5 -56.5q8 -30 8 -102q0 -70 -8 -102q-12 -36 -42.5 -56.5t-72.5 -20.5q-43 0 -73.5 20.5t-42.5 56.5zM252 423q6 13 6 86q0 72 -6 87q-11 36 -53 36
q-43 0 -55 -36q-5 -13 -5 -87t5 -86q12 -36 55 -36q42 0 53 36zM455 171q0 72 8 102q11 35 42 56t73 21t73 -21t42 -56q8 -29 8 -102q0 -75 -8 -102q-11 -36 -42 -57t-73 -21t-73 21t-42 57q-8 29 -8 102zM578 48q42 0 54 36q6 16 6 87q0 69 -6 86q-12 36 -54 36t-54 -36
q-6 -17 -6 -86q0 -71 6 -87q12 -36 54 -36z" />
    <glyph glyph-name="ampersand" unicode="&#x26;" horiz-adv-x="632" 
d="M432 546q0 -47 -31 -90q-25 -35 -90 -88l129 -166l75 92l54 -45l-85 -105l36 -46q16 -22 40 -22h24v-76h-37q-29 0 -47 10t-39 37l-28 37q-45 -49 -89 -72t-93 -23q-84 0 -132.5 48.5t-48.5 129.5q0 60 34 109.5t101 103.5q-55 70 -69 100q-16 31 -16 64q0 65 45 106
q46 41 112 41q33 0 61.5 -11t49.5 -30.5t32.5 -46t11.5 -57.5zM199 546q0 -21 12 -42q5 -11 19 -30t36 -47q51 40 70 65q19 23 19 55q0 31 -22 52t-55 21q-34 0 -56.5 -21t-22.5 -53zM148 171q0 -49 28.5 -78.5t79.5 -29.5q34 0 64.5 18t68.5 60l-140 181q-52 -42 -76.5 -78
t-24.5 -73z" />
    <glyph glyph-name="quotesingle" unicode="'" horiz-adv-x="199" 
d="M131 504h-63v176h63v-176z" />
    <glyph glyph-name="asterisk" unicode="*" horiz-adv-x="342" 
d="M152 496l-86 -50l-24 44l85 49l-85 48l24 45l86 -51v99h50l-1 -99l86 51l25 -45l-86 -48l86 -49l-25 -44l-86 50l1 -99h-50v99z" />
    <glyph glyph-name="zero" unicode="0" 
d="M72 340q0 176 14 223q20 63 67 95.5t117 32.5q144 0 185 -128q14 -47 14 -223q0 -175 -14 -223q-41 -128 -185 -128q-70 0 -117 32.5t-67 95.5q-14 48 -14 223zM270 65q79 0 103 69q12 34 12 206q0 171 -12 207q-24 68 -103 68q-78 0 -102 -68q-12 -36 -12 -207
q0 -172 12 -206q24 -69 102 -69z" />
    <glyph glyph-name="one" unicode="1" horiz-adv-x="485" 
d="M252 578l-126 -89v95l132 96h77v-680h-83v578z" />
    <glyph glyph-name="two" unicode="2" 
d="M411 639q52 -52 52 -133q0 -80 -66 -162l-213 -268h279v-76h-383v68l250 320q50 65 50 118q0 48 -30.5 78.5t-79.5 30.5q-48 0 -77 -28.5t-36 -83.5l-79 18q4 39 19.5 70.5t40.5 53.5t59 34t75 12q87 0 139 -52z" />
    <glyph glyph-name="three" unicode="3" 
d="M460 508q0 -49 -20.5 -85.5t-65.5 -63.5q42 -18 71 -63t29 -106q0 -88 -57 -145q-59 -56 -146 -56q-40 0 -74.5 11t-60.5 31t-44 48.5t-25 63.5l79 19q29 -96 125 -96q54 0 86.5 33.5t32.5 87.5q0 57 -35 92.5t-92 35.5h-40v75h39q51 0 82.5 32t31.5 83t-29.5 80.5
t-80.5 29.5q-45 0 -74 -24t-38 -70l-78 19q6 34 22 62t41.5 47.5t58 30.5t71.5 11q43 0 78.5 -13.5t60.5 -37.5t38.5 -57.5t13.5 -74.5z" />
    <glyph glyph-name="four" unicode="4" horiz-adv-x="566" 
d="M52 190l226 490h87l-222 -484h189v194h83v-194h78v-76h-78v-120h-83l-1 120h-279v70z" />
    <glyph glyph-name="five" unicode="5" 
d="M163 161q10 -48 40 -71.5t76 -23.5q79 0 101 67q10 24 10 86q0 55 -11 88q-21 66 -100 66q-39 0 -67 -19t-38 -55h-76v381h362l-1 -76h-283v-202q16 21 46.5 34t67.5 13q64 0 107 -28.5t61 -83.5q15 -48 15 -118q0 -65 -14 -110q-18 -57 -66 -88.5t-114 -31.5
q-79 0 -131.5 41t-61.5 111z" />
    <glyph glyph-name="six" unicode="6" 
d="M108 352l177 328h87l-160 -297q23 19 74 19q83 0 138 -55q55 -56 55 -146q0 -98 -59 -155q-60 -57 -149 -57q-90 0 -150 57q-58 55 -58 151q0 72 45 155zM271 326q-55 0 -89.5 -36t-34.5 -94t33.5 -94t90.5 -36t90.5 36t33.5 94t-33.5 94t-90.5 36z" />
    <glyph glyph-name="seven" unicode="7" 
d="M382 604h-215v-101h-80v177h383v-75l-241 -605h-85z" />
    <glyph glyph-name="eight" unicode="8" 
d="M160 358q-37 20 -60 59t-23 87q0 77 53 133q52 54 140 54t141 -54q53 -56 53 -133q0 -48 -23 -88t-60 -58q46 -23 72.5 -67t26.5 -102q0 -88 -59 -144t-151 -56t-151 56q-58 57 -58 144q0 58 25.5 101t73.5 68zM380 505q0 48 -30.5 79t-79.5 31q-48 0 -78.5 -31
t-30.5 -79t30.5 -78.5t78.5 -30.5q49 0 79.5 30.5t30.5 78.5zM270 66q57 0 91.5 34.5t34.5 91.5t-34.5 92.5t-91.5 35.5t-91 -35.5t-34 -92.5t34 -91.5t91 -34.5z" />
    <glyph glyph-name="nine" unicode="9" 
d="M255 278q-83 0 -138 55q-55 56 -55 147q0 97 58 154t150 57q90 0 149 -56t59 -152q0 -73 -45 -154l-176 -329h-88l159 298q-25 -20 -73 -20zM270 354q55 0 89.5 35.5t34.5 95.5q0 58 -34.5 94t-89.5 36t-89.5 -36.5t-34.5 -93.5q0 -60 34.5 -95.5t89.5 -35.5z" />
    <glyph glyph-name="less" unicode="&#x3c;" 
d="M61 309l419 171v-81l-314 -123l314 -122v-82l-419 172v65z" />
    <glyph glyph-name="greater" unicode="&#x3e;" 
d="M60 154l314 122l-314 123v81l420 -172v-64l-420 -172v82z" />
    <glyph glyph-name="at" unicode="@" horiz-adv-x="892" 
d="M731 550q110 -110 110 -282q0 -103 -43.5 -158t-115.5 -55q-85 0 -119 72q-35 -71 -136 -71q-111 0 -142 99q-13 38 -13 108q0 71 13 109q32 98 139 98q42 0 72.5 -15t44.5 -43v48h69v-255q0 -42 20.5 -64t52.5 -22q42 0 65 37t23 112q0 145 -89 237q-88 91 -236 91
t-236 -90q-88 -88 -88 -238q0 -148 88 -239t236 -91q126 0 226 52l25 -57q-104 -59 -251 -59q-172 0 -285 110q-109 109 -109 284q0 173 109 282q113 110 285 110q175 0 285 -110zM351 342q-9 -26 -9 -79q0 -54 9 -79q21 -63 91 -63t91 63q8 24 8 79t-8 79q-21 64 -91 64
t-91 -64z" />
    <glyph glyph-name="backslash" unicode="\" horiz-adv-x="416" 
d="M61 691h73l227 -702h-72z" />
    <glyph glyph-name="fourarabic" unicode="&#x664;" horiz-adv-x="566" 
d="M52 190l226 490h87l-222 -484h189v194h83v-194h78v-76h-78v-120h-83l-1 120h-279v70z" />
    <glyph glyph-name="fivearabic" unicode="&#x665;" 
d="M163 161q10 -48 40 -71.5t76 -23.5q79 0 101 67q10 24 10 86q0 55 -11 88q-21 66 -100 66q-39 0 -67 -19t-38 -55h-76v381h362l-1 -76h-283v-202q16 21 46.5 34t67.5 13q64 0 107 -28.5t61 -83.5q15 -48 15 -118q0 -65 -14 -110q-18 -57 -66 -88.5t-114 -31.5
q-79 0 -131.5 41t-61.5 111z" />
    <glyph glyph-name="sixarabic" unicode="&#x666;" 
d="M108 352l177 328h87l-160 -297q23 19 74 19q83 0 138 -55q55 -56 55 -146q0 -98 -59 -155q-60 -57 -149 -57q-90 0 -150 57q-58 55 -58 151q0 72 45 155zM271 326q-55 0 -89.5 -36t-34.5 -94t33.5 -94t90.5 -36t90.5 36t33.5 94t-33.5 94t-90.5 36z" />
    <glyph glyph-name="lam-alef-comp" horiz-adv-x="659" 
d="M112 508q5 3 16.5 7.5t22.5 9.5q13 5 27 11q30 -47 57 -108.5t49.5 -123.5t40 -119t28.5 -96h14q19 0 35.5 1.5t28.5 9t19 24t7 46.5v470l77 24v-532q0 -16 4.5 -24.5t12 -12.5t18.5 -5t25 -1h80v-89h-35q-48 0 -82 13.5t-51 43.5q-11 -14 -23.5 -25t-30 -18t-41.5 -10.5
t-59 -3.5h-332l24 89h236q-9 37 -24 88t-36 107.5t-48 114.5t-60 109z" />
    <glyph glyph-name="hamza-comp" horiz-adv-x="254" 
d="M9 734l68 21q-22 5 -34 27t-12 41q0 27 11 49.5t29 38.5t40.5 25.5t45.5 10.5t44 -6t36 -25l-42 -38q-13 10 -31 13t-34.5 -1.5t-28 -16.5t-11.5 -30q0 -15 6.5 -26.5t16 -19.5t20 -12.5t19.5 -5.5l89 26v-53l-232 -69v51z" />
    <glyph glyph-name="madda-lamalef-comp" horiz-adv-x="448" 
d="M-24 783q26 -14 78.5 -19t115.5 6q17 3 36 6.5t36 6.5q88 16 144 0.5t88 -64.5q-25 14 -75 20t-113 -5q-20 -4 -41 -9t-41 -8q-83 -14 -140.5 2t-87.5 64z" />
    <glyph glyph-name="ya-med-comp" horiz-adv-x="397" 
d="M173 89v313l77 22v-335h162v-89h-427v89h188z" />
    <glyph glyph-name="two-dots-comp" horiz-adv-x="341" 
d="M33 -142q0 24 16 40t39 16t38.5 -16t15.5 -40q0 -23 -15.5 -38t-38.5 -15t-39 15t-16 38zM197 -142q0 24 16 40t39 16t38.5 -16t15.5 -40q0 -23 -15.5 -38t-38.5 -15t-39 15t-16 38z" />
    <glyph glyph-name="alef-mid-comp" horiz-adv-x="248" 
d="M74 642l77 22v-575h112v-89h-189v642z" />
    <glyph glyph-name="madda-alef-comp" horiz-adv-x="436" 
d="M-24 783q26 -14 78.5 -19t115.5 6q17 3 36 6.5t36 6.5q88 16 144 0.5t88 -64.5q-25 14 -75 20t-113 -5q-20 -4 -41 -9t-41 -8q-83 -14 -140.5 2t-87.5 64z" />
    <glyph glyph-name="alef-comp" horiz-adv-x="208" 
d="M61 642l77 22v-664h-77v642z" />
    <glyph glyph-name="one-dot-comp" horiz-adv-x="174" 
d="M33 546q0 24 16 40t39 16t38.5 -16t15.5 -40q0 -23 -15.5 -38t-38.5 -15t-39 15t-16 38z" />
    <glyph glyph-name="three-dots-comp" horiz-adv-x="308" 
d="M33 546q0 24 16 40t39 16t38.5 -16t15.5 -40q0 -23 -15.5 -38t-38.5 -15t-39 15t-16 38zM197 546q0 24 16 40t39 16t38.5 -16t15.5 -40q0 -23 -15.5 -38t-38.5 -15t-39 15t-16 38zM113 682q0 24 16 40t39 16t38.5 -16t15.5 -40q0 -23 -15.5 -38t-38.5 -15t-39 15t-16 38z
" />
    <glyph glyph-name="ya-ini-comp" horiz-adv-x="348" 
d="M211 89v313l77 22v-424h-303v89h226z" />
    <glyph glyph-name="ya-end-comp" horiz-adv-x="868" 
d="M303 -151q-59 0 -106.5 19t-81 49t-52 67.5t-18.5 74.5q0 46 7 81.5t18 62.5t24 47.5t25 37.5h60q-22 -41 -39 -87.5t-17 -91.5q0 -48 12.5 -80t36 -51.5t57 -27.5t75.5 -8q88 0 134 12.5t65.5 32t21 44.5t1.5 50q0 12 -16 12h-72q-39 0 -64.5 3t-40.5 10.5t-21 21
t-6 34.5q0 39 15.5 84.5t47 84t80.5 64t117 25.5q65 0 105.5 -33.5t64 -84t34 -108t14.5 -105.5h99v-89h-177q0 82 -7.5 140.5t-20 97.5t-28.5 62t-32.5 35t-32.5 15t-28 3q-29 0 -58.5 -10.5t-53.5 -30.5t-39 -48.5t-15 -64.5q0 -10 4.5 -22t20.5 -12h114q15 0 28 -2
t22.5 -10t15 -25.5t5.5 -47.5q0 -68 -17.5 -112.5t-53.5 -70.5t-92.5 -37t-134.5 -11z" />
    <glyph glyph-name="ya-end-iso-comp" horiz-adv-x="651" 
d="M551 354q-29 0 -57.5 -10.5t-51 -31t-37 -49t-14.5 -64.5q0 -10 4.5 -22t20.5 -12h114q15 0 28 -2t22.5 -10t15 -25.5t5.5 -47.5q0 -68 -17.5 -112.5t-53.5 -70.5t-92.5 -37t-134.5 -11q-59 0 -106.5 19t-81 49t-52 67.5t-18.5 74.5q0 46 7 81.5t18 62.5t24 47.5t25 37.5
h60q-22 -41 -39 -87.5t-17 -91.5q0 -48 12.5 -80t36 -51.5t57 -27.5t75.5 -8q88 0 134 12.5t65.5 32t21 44.5t1.5 50q0 12 -16 12h-72q-39 0 -64.5 3t-40.5 10.5t-21 21t-6 34.5q0 39 15.5 84.5t47 84t80.5 64t117 25.5q20 0 27.5 -8.5t7.5 -20.5q0 -5 -1.5 -12.5
t-4.5 -14.5t-7 -12t-10 -5t-12.5 3.5t-14.5 3.5z" />
    <glyph glyph-name="waw-mid-comp" horiz-adv-x="482" 
d="M409 0q-1 -24 -12 -60.5t-38 -71t-73 -62t-117 -33.5l-22 70q46 3 84 21q16 7 32 18.5t29.5 28t23.5 38.5t13 51h-113q-91 0 -136 40.5t-45 125.5q0 39 19 77.5t61 71.5t107.5 58t158.5 38q11 -69 19.5 -149.5t9.5 -172.5h87v-89h-88zM331 89q0 5 -0.5 9.5t-0.5 9.5
q0 24 -1 51.5t-3 55.5t-4.5 56t-5.5 52q-105 -25 -151.5 -62.5t-48.5 -92.5q0 -15 3.5 -29t13.5 -25t26 -18t42 -7h130z" />
    <glyph glyph-name="waw-iso-comp" horiz-adv-x="446" 
d="M147 -157q46 3 84 21q16 7 32 18.5t29.5 28t23.5 38.5t13 51h-113q-91 0 -136 40.5t-45 125.5q0 39 19 77.5t61 71.5t107.5 58t158.5 38q14 -85 23 -188t5 -223q-1 -24 -12 -60.5t-38 -71t-73 -62t-117 -33.5zM330 89v19q0 24 -1 51.5t-3 55.5t-4.5 56t-5.5 52
q-105 -25 -151.5 -62.5t-48.5 -92.5q0 -15 3.5 -29t13.5 -25.5t26 -18t42 -6.5h129z" />
    <glyph glyph-name="tah-marbouta-comp" horiz-adv-x="588" 
d="M74 182q0 40 22 78t69 69.5t120 54.5t174 34v-329h144v-89h-180q-11 7 -18.5 15.5t-12.5 15.5q-5 8 -8 16q-5 -13 -20 -24q-13 -9 -37.5 -16t-66.5 -7q-96 0 -141 48.5t-45 133.5zM160 181q0 -35 8.5 -53.5t21.5 -27t29.5 -10t32.5 -1.5h130v242q-61 -11 -103.5 -27
t-68.5 -35.5t-38 -41.5t-12 -46z" />
    <glyph glyph-name="tah-marbouta-iso-comp" horiz-adv-x="420" 
d="M328 165q0 21 -8.5 47.5t-24.5 52t-39.5 46t-52.5 29.5q-21 -12 -40.5 -32.5t-35 -45t-25 -52t-9.5 -53.5q0 -40 23.5 -58t80.5 -18q39 0 64 8t40 20t21 27t6 29zM402 162q0 -44 -20.5 -75.5t-51.5 -52t-67 -30t-66 -9.5q-46 0 -79 11t-54.5 29t-31.5 42.5t-10 51.5
q0 31 7 64.5t22 66t37.5 61t52.5 51.5l-44 19l31 47q73 -14 125 -41.5t85 -64t48.5 -80.5t15.5 -90z" />
    <glyph glyph-name="kaf-mid-comp" horiz-adv-x="565" 
d="M261 361q-36 0 -60.5 -8.5t-40 -23t-22.5 -33t-7 -37.5q0 -59 30 -105.5t100 -66.5q71 19 103 65.5t32 106.5q0 18 -7 36t-22.5 33t-41.5 24t-64 9zM-15 0v89h147q-42 33 -59.5 73t-17.5 76q0 42 13.5 77t39.5 60.5t65 39.5t89 14q52 0 91.5 -14t66 -39.5t40 -60.5
t13.5 -77q0 -35 -18 -77t-56 -72h181v-89h-595z" />
    <glyph glyph-name="kaf-ini-comp" horiz-adv-x="487" 
d="M445 105q0 -105 -75 -105h-385v89h216q-20 12 -39 29t-34.5 37t-25 42.5t-9.5 46.5q0 33 9.5 65.5t32 59t59.5 43t92 16.5q51 0 82 -23t48 -59t23 -80t6 -87v-74zM368 94q0 73 -1.5 123.5t-10.5 82t-29.5 46t-58.5 14.5q-29 0 -48 -6.5t-30 -18.5t-15 -30t-4 -41
q0 -30 14.5 -59t41 -53t62.5 -39.5t79 -18.5z" />
    <glyph glyph-name="kaf-final-iso-comp" horiz-adv-x="746" 
d="M631 89q0 5 -0.5 9.5t-0.5 9.5q0 24 -1 51.5t-3 55.5t-4.5 56t-5.5 52q-105 -25 -151.5 -62.5t-48.5 -92.5q0 -15 3.5 -29t13.5 -25t26 -18t42 -7h130zM179 274q-25 -42 -42 -95t-17 -103q0 -31 6 -68.5t27 -70t60.5 -54.5t106.5 -22h127h24.5t36 3t40.5 11t38.5 23.5
t29 40t13.5 61.5h-113q-91 0 -136 40.5t-45 125.5q0 39 19 77.5t61 71.5t107.5 58t158.5 38q14 -85 23 -188t5 -223q-1 -24 -11 -63t-36 -75.5t-71.5 -63t-117.5 -26.5h-169q-46 0 -92.5 15.5t-83.5 47t-60 79t-23 112.5q0 53 7.5 91.5t19 67.5t25 50t25.5 39h57z" />
    <glyph glyph-name="kaf-fina-comp" horiz-adv-x="783" 
d="M631 89q0 5 -0.5 9.5t-0.5 9.5q0 24 -1 51.5t-3 55.5t-4.5 56t-5.5 52q-105 -25 -151.5 -62.5t-48.5 -92.5q0 -15 3.5 -29t13.5 -25t26 -18t42 -7h130zM709 0q-1 -24 -11 -63t-36 -75.5t-71.5 -63t-117.5 -26.5h-169q-46 0 -92.5 15.5t-83.5 47t-60 79t-23 112.5
q0 53 7.5 91.5t19 67.5t25 50t25.5 39h57q-25 -42 -42 -95t-17 -103q0 -31 6 -68.5t27 -70t60.5 -54.5t106.5 -22h127h24.5t36 3t40.5 11t38.5 23.5t29 40t13.5 61.5h-113q-91 0 -136 40.5t-45 125.5q0 39 19 77.5t61 71.5t107.5 58t158.5 38q11 -69 19.5 -149t9.5 -173h88
v-89h-89z" />
    <glyph glyph-name="ayn-mid-comp" horiz-adv-x="588" 
d="M360 0q-32 0 -48 5t-24 28q-13 -23 -29.5 -28t-48.5 -5h-225v89h197l-146 183q30 39 58 67t58 46t63 26.5t73 8.5t72.5 -8t62.5 -25.5t59 -45t61 -66.5l-146 -186h206v-89h-243zM455 275q-11 13 -27 26t-37.5 23.5t-47 17.5t-55.5 7q-31 0 -56 -7.5t-45 -18.5
t-34.5 -24.5t-23.5 -25.5l159 -191z" />
    <glyph glyph-name="ayn-ini-comp" horiz-adv-x="598" 
d="M-15 89h181q-19 38 -25.5 78.5t-6.5 78.5q0 81 59.5 127.5t164.5 49.5q42 2 95 -5t101 -16v-75q-15 4 -37.5 9t-49 9t-55 6.5t-55.5 2.5t-52 -6t-44.5 -19.5t-31 -34t-11.5 -48.5q0 -44 13.5 -87.5t28.5 -69.5h298v-89h-573v89z" />
    <glyph glyph-name="ayn-fina-comp" horiz-adv-x="600" 
d="M467 275q-11 13 -27 26t-37.5 23.5t-47 17.5t-55.5 7q-31 0 -56 -7.5t-45 -18.5t-34.5 -24.5t-23.5 -25.5l159 -195zM495 -299q-42 -9 -82 -14t-77 -5q-49 0 -102 11.5t-96.5 36t-71.5 62.5t-28 91q0 31 10 60t31 53.5t52.5 44t74.5 31.5l-158 200q30 39 58 67t58 46
t63 26.5t73 8.5t72.5 -8t62.5 -25.5t59 -45t61 -66.5l-146 -186h206v-89h-235q-23 0 -45.5 5.5t-36.5 19.5q-49 -14 -83 -26t-55.5 -27t-31.5 -36.5t-10 -55.5q0 -23 11.5 -42.5t41.5 -34.5t83 -23.5t136 -8.5q23 0 50.5 2.5t55.5 6.5z" />
    <glyph glyph-name="ayn-fina-iso-comp" horiz-adv-x="543" 
d="M498 109q-85 -15 -154 -37.5t-117.5 -49.5t-75 -57.5t-26.5 -62.5q0 -27 11.5 -51t41.5 -42t83 -28t136 -10q26 0 57.5 3.5t63.5 7.5l-1 -78q-91 -22 -174 -22q-40 0 -91.5 11.5t-97.5 36t-77.5 62.5t-31.5 91q0 34 16 66t41.5 60t58 51t65.5 39q-128 44 -128 157
q0 37 12 69.5t36 57t61 39t87 14.5q61 0 124 -23l2 -53q-33 12 -75.5 15.5t-79.5 -5t-62.5 -31.5t-25.5 -64q0 -66 37 -100.5t95 -34.5q34 16 87 28t102 21v-80z" />
    <glyph glyph-name="tah-mid-comp" horiz-adv-x="759" 
d="M610 89v74q0 28 -4.5 55t-19 48.5t-40 34.5t-67.5 13q-28 0 -66.5 -16.5t-80.5 -46.5t-84.5 -71.5t-79.5 -90.5h442zM79 89v553l77 25v-482q98 103 185.5 152t165.5 49q57 0 91.5 -26.5t54 -67.5t26.5 -89.5t8 -93.5v-20h87v-89h-789v89h94z" />
    <glyph glyph-name="tah-ini-comp" horiz-adv-x="752" 
d="M610 89v74q0 28 -4.5 55t-19 48.5t-40 34.5t-67.5 13q-28 0 -66.5 -16.5t-80.5 -46.5t-84.5 -71.5t-79.5 -90.5h442zM79 89v553l77 25v-482q98 103 185.5 152t165.5 49q57 0 91.5 -26.5t54 -67.5t26.5 -89.5t8 -93.5v-37v-72h-702v89h94z" />
    <glyph glyph-name="tah-fina-comp" horiz-adv-x="894" 
d="M745 90v73q0 28 -4.5 55t-19 48.5t-40 34.5t-67.5 13q-28 0 -66.5 -16.5t-80.5 -46.5t-84.5 -71.5t-79.5 -90.5zM214 89v553l77 25v-482q98 103 185.5 152t165.5 49q57 0 91.5 -26.5t54 -67.5t26.5 -89.5t8 -93.5v-20h87v-89h-782l-13 89h100z" />
    <glyph glyph-name="tah-fina-iso-comp" horiz-adv-x="812" 
d="M670 89v74q0 28 -4.5 55t-19 48.5t-40 34.5t-67.5 13q-28 0 -66.5 -16.5t-80.5 -46.5t-85 -71.5t-80 -90.5h443zM139 89v553l77 25v-482q98 103 185.5 152t165.5 49q57 0 91.5 -26.5t54 -67.5t26.5 -89.5t8 -93.5v-37v-72h-702v89h94z" />
    <glyph glyph-name="sad-midi-comp" horiz-adv-x="759" 
d="M610 89v74q0 28 -4.5 55t-19 48.5t-40 34.5t-67.5 13q-28 0 -66.5 -16.5t-80.5 -46.5t-85 -71.5t-80 -90.5h443zM79 89v222l77 25v-151q98 103 185.5 152t165.5 49q57 0 91.5 -26.5t54 -67.5t26.5 -89.5t8 -93.5v-20h87v-89h-789v89h94z" />
    <glyph glyph-name="sad-fina-comp" horiz-adv-x="1170" 
d="M1023 89v74q0 28 -4.5 55t-19 48.5t-40 34.5t-67.5 13q-28 0 -66.5 -16.5t-80.5 -46.5t-84.5 -71.5t-79.5 -90.5h442zM1099 89h86v-89h-616q-21 -121 -89.5 -175t-176.5 -54q-59 0 -106.5 19t-81 49.5t-52 68t-18.5 74.5q0 54 9.5 93t23.5 68.5t29 50.5t27 39h57
q-26 -43 -47 -96.5t-21 -104.5q0 -48 12.5 -80.5t36 -52t57 -27.5t75.5 -8q68 0 118 31t64 88q2 10 4 21t2 22v18v267l77 25v-63v-88q98 103 185.5 152t165.5 49q57 0 91.5 -26.5t54 -67.5t26.5 -89.5t8 -93.5z" />
    <glyph glyph-name="sad-ini-comp" horiz-adv-x="752" 
d="M610 89v74q0 28 -4.5 55t-19 48.5t-40 34.5t-67.5 13q-28 0 -66.5 -16.5t-80.5 -46.5t-84.5 -71.5t-79.5 -90.5h442zM79 89v222l77 25v-151q98 103 185.5 152t165.5 49q57 0 91.5 -26.5t54 -67.5t26.5 -89.5t8 -93.5v-109h-702v89h94z" />
    <glyph glyph-name="sad-iso-comp" horiz-adv-x="1165" 
d="M1023 89v74q0 28 -4.5 55t-19 48.5t-40 34.5t-67.5 13q-28 0 -66.5 -16.5t-80.5 -46.5t-84.5 -71.5t-79.5 -90.5h442zM492 44v267l77 25v-63v-88q98 103 185.5 152t165.5 49q57 0 91.5 -26.5t54 -67.5t26.5 -89.5t8 -93.5v-109h-531q-21 -121 -89.5 -175t-176.5 -54
q-59 0 -106.5 19t-81 49.5t-52 68t-18.5 74.5q0 54 9.5 93t23.5 68.5t29 50.5t27 39h57q-26 -43 -47 -96.5t-21 -104.5q0 -48 12.5 -80.5t36 -52t57 -27.5t75.5 -8q68 0 118 31t64 88q2 10 4 21t2 22v18z" />
    <glyph glyph-name="seen-ini-comp" horiz-adv-x="733" 
d="M145 89v313l77 22v-335h150v313l77 22v-335h151v313l77 22v-424h-692v89h160z" />
    <glyph glyph-name="seen-medi-comp" horiz-adv-x="805" 
d="M145 89v313l77 22v-335h150v313l77 22v-335h151v313l77 22v-335h143v-89h-835v89h160z" />
    <glyph glyph-name="seen-fina-comp" horiz-adv-x="1152" 
d="M191 233q-26 -43 -47 -96.5t-21 -104.5q0 -48 12.5 -80.5t36 -52t57 -27.5t75.5 -8q68 0 118 31t64 88q2 10 4 21t2 22v376l77 22v-335h150v313l77 22v-335h151v313l77 22v-335h143v-89h-598q-21 -121 -89.5 -175t-176.5 -54q-59 0 -106.5 19t-81 49.5t-52 68t-18.5 74.5
q0 54 9.5 93t23.5 68.5t29 50.5t27 39h57z" />
    <glyph glyph-name="seen-iso-comp" horiz-adv-x="1080" 
d="M191 233q-26 -43 -47 -96.5t-21 -104.5q0 -48 12.5 -80.5t36 -52t57 -27.5t75.5 -8q68 0 118 31t64 88q2 10 4 21t2 22v376l77 22v-335h150v313l77 22v-335h151v313l77 22v-424h-455q-21 -121 -89.5 -175t-176.5 -54q-59 0 -106.5 19t-81 49.5t-52 68t-18.5 74.5
q0 54 9.5 93t23.5 68.5t29 50.5t27 39h57z" />
    <glyph glyph-name="ra-midi-comp" horiz-adv-x="359" 
d="M232 429q7 -41 12.5 -85.5t9 -89.5t6 -87t3.5 -78h111v-89h-110q-2 -26 -13.5 -63.5t-40 -73.5t-78.5 -62t-129 -29l-23 74q57 4 103 24q19 9 37.5 22t33 31.5t23.5 44t9 58.5q0 90 -5 189t-28 190z" />
    <glyph glyph-name="ra-iso-comp" horiz-adv-x="306" 
d="M233 429q15 -86 25.5 -195t6.5 -234q-1 -26 -12 -63.5t-40.5 -73.5t-79.5 -62t-129 -29l-24 74q57 4 103 24q19 9 38 22t33.5 31.5t23.5 44t9 58.5q0 90 -5 189t-28 190z" />
    <glyph glyph-name="da-medi-comp" horiz-adv-x="568" 
d="M55 104q11 -4 24 -8q11 -3 26 -5t33 -2h241q-1 30 -10 68.5t-30.5 77.5t-57.5 74t-91 59l23 84q59 -23 111 -71q22 -20 44 -47.5t42 -63.5t35.5 -81t23.5 -100h114v-89h-454q-18 0 -32 2.5t-25 5.5q-12 4 -22 8z" />
    <glyph glyph-name="da-iso-comp" horiz-adv-x="510" 
d="M55 104q11 -4 24 -8q11 -3 26 -5t33 -2h241q-1 30 -10 68.5t-30.5 77.5t-57.5 74t-91 59l23 84q46 -14 91.5 -51.5t82.5 -89.5t60 -114t23 -125v-72h-341q-18 0 -32 2.5t-25 5.5q-12 4 -22 8z" />
    <glyph glyph-name="kha-medi-comp" horiz-adv-x="656" 
d="M671 0h-684v89h492q-28 55 -53.5 102t-50.5 80.5t-49.5 52.5t-50.5 19t-53 -21t-53 -53l-51 46q19 21 39.5 40.5t43.5 35t48.5 24.5t55.5 9q33 0 61 -20.5t56 -59.5t60.5 -96t74.5 -130q11 -19 24 -29h90v-89z" />
    <glyph glyph-name="kha-ini-comp" horiz-adv-x="681" 
d="M631 0h-645l-1 89h493q-28 55 -53.5 102t-50 80.5t-49 52.5t-50.5 19t-53 -21t-53 -53l-51 46q19 21 39.5 40.5t43.5 35t48.5 24.5t55.5 9q33 0 61 -20.5t56 -59.5t60.5 -96t74.5 -130q3 -5 7 -10t12.5 -9t21.5 -7t33 -3v-89z" />
    <glyph glyph-name="kha-fina-comp" horiz-adv-x="667" 
d="M603 218q-42 2 -83.5 -2t-79.5 -14q1 -27 12 -48t28.5 -35.5t39.5 -22t45 -7.5h117v-89h-130q-41 0 -73 17.5t-54 44.5t-33 59t-9 62q-55 -21 -101 -50.5t-79.5 -65t-52.5 -73.5t-19 -75q0 -44 20.5 -72.5t57.5 -45t89 -23.5t115 -7q28 0 58 2t62 6l-1 -73
q-89 -24 -172 -24q-57 0 -112.5 13.5t-100 39.5t-72 64t-27.5 88q0 63 26.5 123t77 111.5t122.5 91t164 62.5q-14 4 -39 15t-55 22.5t-62 20.5t-60 9q-13 0 -29 -4.5t-32.5 -13t-32.5 -21t-29 -28.5l-54 46q16 19 38 37.5t47.5 33t52.5 23.5t53 9q29 0 73 -18.5t104 -38.5
q57 -19 101.5 -28t88.5 -10v-111z" />
    <glyph glyph-name="kha-iso-comp" horiz-adv-x="643" 
d="M603 218q-62 4 -120.5 -7t-111 -32t-96.5 -51t-76 -64.5t-50 -71.5t-18 -73q0 -44 20.5 -72.5t57.5 -45t89 -23.5t115 -7q28 0 58 2t62 6l-1 -73q-89 -24 -172 -24q-57 0 -112.5 13.5t-100 39.5t-72 64t-27.5 88q0 63 26.5 123t77 111.5t122.5 91t164 62.5q-14 4 -39 15
t-55 22.5t-62 20.5t-60 9q-13 0 -29 -4.5t-32.5 -13t-32.5 -21t-29 -28.5l-54 46q16 19 38 37.5t47.5 33t52.5 23.5t53 9q29 0 73 -18.5t104 -38.5q57 -19 101.5 -28t88.5 -10v-111z" />
    <glyph glyph-name="shaddah-comp" horiz-adv-x="255" 
d="M66 783q0 -8 -0.5 -18t1 -20t6.5 -16.5t15 -6.5q14 0 20.5 11t6.5 26v32l41 11v-30q0 -14 5 -22.5t16 -8.5q13 0 19.5 9.5t6.5 25.5v34l41 11v-39q0 -45 -19 -65.5t-44 -20.5q-11 0 -25 3.5t-21 11.5q-19 -32 -49 -32q-31 0 -42.5 21t-11.5 44v29z" />
    <glyph glyph-name="fatha-comp" horiz-adv-x="265" 
d="M38 736l203 57v-45l-203 -57v45z" />
    <glyph glyph-name="damma-comp" horiz-adv-x="218" 
d="M61 721q23 8 46.5 20t32.5 35q-8 -1 -20.5 -3t-25 -0.5t-22.5 8t-11 22.5q-2 19 3.5 37t14.5 31.5t21 22t24 9.5q9 1 18 -5t16.5 -16.5t12.5 -24t6 -27.5q2 -39 -6.5 -64t-25 -41.5t-38.5 -26.5t-46 -19v42zM142 814q-4 20 -11 35t-15 14q-9 -2 -14 -14.5t-6 -18.5
q-2 -19 13.5 -21t32.5 5z" />
    <glyph glyph-name="damatan-comp" horiz-adv-x="260" 
d="M184 811q-5 20 -11.5 34.5t-14.5 14.5q-7 -2 -11 -7.5t-6 -12.5q-3 -8 -4 -17q0 -9 6 -13.5t15 -4.5q6 0 12.5 2t13.5 4zM36 727q9 12 26 20.5t31 8.5q10 0 22 -7.5t19 -21.5q16 7 28.5 18.5t18.5 27.5q-6 -1 -16 -2.5t-20 -1.5q-18 0 -30.5 7.5t-12.5 32.5q0 18 6 34.5
t15.5 29t21 20t22.5 7.5t20.5 -8t16 -20.5t10.5 -28.5t4 -32q0 -30 -7.5 -51.5t-20.5 -36.5t-32 -25.5t-41 -19.5q-8 26 -16.5 34.5t-19.5 8.5q-10 0 -24 -9.5t-22 -17.5z" />
    <glyph glyph-name="bah-final-comp" horiz-adv-x="850" 
d="M865 89v-89h-93h-529q-42 0 -78 7t-63 23t-42 42t-15 63q0 56 10.5 96.5t25 69.5t30.5 50.5t27 40.5h70q-35 -56 -57.5 -110.5t-23.5 -97.5t24.5 -69t88.5 -26h455v313l77 22v-335h93z" />
    <glyph glyph-name="piso" horiz-adv-x="822" 
d="M695 89v313l77 22v-424h-529q-42 0 -78 7t-63 23t-42 42t-15 63q0 56 10.5 96.5t25 69.5t30.5 50.5t27 40.5h70q-35 -56 -57.5 -110.5t-23.5 -97.5t24.5 -69t88.5 -26h455z" />
    <glyph glyph-name="dot-comp" horiz-adv-x="211" 
d="M51 51q0 24 16 40t39 16t38.5 -16t15.5 -40q0 -23 -15.5 -38t-38.5 -15t-39 15t-16 38z" />
    <glyph glyph-name="coma-comp" horiz-adv-x="221" 
d="M131 -2q-30 0 -49.5 27.5t-19.5 69.5q0 58 33 102q9 11 21.5 22t29.5 23l12 -21l-19.5 -19.5t-15.5 -16.5q-20 -29 -20 -49q0 -21 41 -30q18 -5 29.5 -20t11.5 -35q0 -23 -15.5 -38t-38.5 -15z" />
    <glyph glyph-name="quote-comp" horiz-adv-x="177" 
d="M40 686h99l-8 -248h-99z" />
    <glyph glyph-name="quotedblright" unicode="&#x201d;" horiz-adv-x="371" 
d="M148 575l-80 -92v197h80v-105zM304 575l-80 -92v197h80v-105z" />
    <glyph glyph-name="quotedblleft" unicode="&#x201c;" horiz-adv-x="371" 
d="M148 484h-80v106l80 90v-196zM304 484h-80v106l80 90v-196z" />
    <glyph glyph-name="quoteleft" unicode="&#x2018;" horiz-adv-x="215" 
d="M148 484h-80v105l80 90v-195z" />
    <glyph glyph-name="quoteright" unicode="&#x2019;" horiz-adv-x="215" 
d="M68 680h80v-105l-80 -92v197z" />
    <glyph glyph-name="Euro" unicode="&#x20ac;" 
d="M114 125q-13 40 -13 124h-58v61h58v66h-58v61h58q0 78 13 118q45 136 192 136q67 0 115 -32t74 -95l-67 -33q-42 84 -122 84q-85 0 -110 -79q-11 -31 -11 -99h216l-15 -61h-201v-66h191l-15 -61h-176q0 -74 11 -104q25 -79 110 -79q78 0 122 84l67 -34q-25 -63 -73.5 -95
t-115.5 -32q-147 0 -192 136z" />
    <glyph glyph-name="sterling" unicode="&#xa3;" 
d="M99 0v71q12 12 20 22t12.5 21t6.5 25t2 34v113h-65v66h65v159q0 85 44 132.5t120 47.5q61 0 102.5 -34.5t55.5 -97.5l-80 -20q-13 76 -79 76q-37 0 -58 -23t-21 -68v-172h144v-66h-144v-101q0 -74 -29 -109h268v-76h-364z" />
    <glyph glyph-name="endash" unicode="&#x2013;" horiz-adv-x="512" 
d="M24 231v71h464v-71h-464z" />
    <glyph glyph-name="emdash" unicode="&#x2014;" horiz-adv-x="849" 
d="M24 231v71h801v-71h-801z" />
    <glyph glyph-name="A" unicode="A" horiz-adv-x="607" 
d="M267 680h82l239 -680h-88l-56 160h-276l-56 -160h-88zM417 240l-111 314l-110 -314h221z" />
    <glyph glyph-name="B" unicode="B" horiz-adv-x="604" 
d="M85 680h250q100 0 152.5 -46.5t52.5 -131.5q0 -112 -95 -150q46 -13 76.5 -55.5t30.5 -102.5q0 -94 -57 -144t-165 -50h-245v680zM333 385q57 0 88.5 29.5t31.5 78.5q0 51 -31.5 79.5t-88.5 28.5h-161v-216h161zM339 79q60 0 92.5 31t32.5 83t-32.5 82.5t-92.5 30.5h-167
v-227h167z" />
    <glyph glyph-name="C" unicode="C" horiz-adv-x="566" 
d="M78 149q-18 55 -18 191q0 137 18 191q26 79 83.5 119.5t142.5 40.5q87 0 152 -48q64 -48 84 -158h-89q-15 67 -54 96.5t-93 29.5q-105 0 -141 -102q-14 -44 -14 -169q0 -124 14 -169q36 -101 141 -101q51 0 91 29t53 89h90q-9 -51 -31 -88.5t-53 -62t-69.5 -36.5
t-80.5 -12q-85 0 -142.5 40.5t-83.5 119.5z" />
    <glyph glyph-name="D" unicode="D" horiz-adv-x="623" 
d="M85 680h238q174 0 222 -144q18 -56 18 -196t-18 -195q-48 -145 -222 -145h-238v680zM305 80q123 0 155 95q14 39 14 165q0 127 -14 166q-31 94 -155 94h-133v-520h133z" />
    <glyph glyph-name="E" unicode="E" horiz-adv-x="563" 
d="M85 680h427v-80h-340v-216h292v-80h-292v-224h340v-80h-427v680z" />
    <glyph glyph-name="F" unicode="F" horiz-adv-x="556" 
d="M85 680h427v-80h-340v-223h292v-80h-292v-297h-87v680z" />
    <glyph glyph-name="G" unicode="G" horiz-adv-x="618" 
d="M79 148q-19 54 -19 192q0 139 19 192q25 79 83.5 119t148.5 40q93 0 158 -49.5t83 -156.5h-90q-14 67 -54.5 96.5t-97.5 29.5q-113 0 -147 -102q-14 -45 -14 -169q0 -123 14 -168q34 -102 147 -102q55 0 93.5 25.5t54.5 73.5q14 42 14 114h-150v77h236v-60
q0 -99 -17 -150q-24 -76 -84.5 -118.5t-145.5 -42.5q-88 0 -147 40.5t-85 118.5z" />
    <glyph glyph-name="H" unicode="H" horiz-adv-x="651" 
d="M85 680h87v-296h310v296h87v-680h-87v304h-310v-304h-87v680z" />
    <glyph glyph-name="I" unicode="I" horiz-adv-x="257" 
d="M85 680h87v-680h-87v680z" />
    <glyph glyph-name="J" unicode="J" horiz-adv-x="491" 
d="M31 67l65 52q48 -49 107 -49q127 0 127 147v463h87v-463q0 -111 -57 -169.5t-160 -58.5q-51 0 -95.5 20t-73.5 58z" />
    <glyph glyph-name="K" unicode="K" horiz-adv-x="615" 
d="M85 680h87v-366l298 366h104l-223 -267l240 -413h-101l-196 344l-122 -146v-198h-87v680z" />
    <glyph glyph-name="L" unicode="L" horiz-adv-x="538" 
d="M85 680h87v-600h340v-80h-427v680z" />
    <glyph glyph-name="M" unicode="M" horiz-adv-x="756" 
d="M85 680h85l210 -467l206 467h85v-680h-82v492l-179 -395h-64l-179 395v-492h-82v680z" />
    <glyph glyph-name="N" unicode="N" horiz-adv-x="654" 
d="M85 680h85l318 -530v530h82v-680h-86l-317 531v-531h-82v680z" />
    <glyph glyph-name="O" unicode="O" horiz-adv-x="618" 
d="M79 148q-19 58 -19 192t19 192q25 78 83.5 118.5t146.5 40.5t146.5 -40t83.5 -119q19 -54 19 -192t-19 -192q-26 -78 -84 -118.5t-146 -40.5t-146.5 40.5t-83.5 118.5zM455 172q14 47 14 168t-14 169q-35 102 -146 102t-145 -102q-15 -45 -15 -169q0 -125 15 -168
q34 -102 145 -102t146 102z" />
    <glyph glyph-name="P" unicode="P" horiz-adv-x="592" 
d="M85 680h251q48 0 88 -14.5t68.5 -41t44 -64t15.5 -82.5q0 -47 -15.5 -84t-43.5 -63.5t-68 -40.5t-89 -14h-164v-276h-87v680zM331 357q63 0 98.5 32t35.5 89t-35.5 89.5t-98.5 32.5h-159v-243h159z" />
    <glyph glyph-name="Q" unicode="Q" horiz-adv-x="618" 
d="M534 -46l-76 77q-62 -42 -149 -42q-88 0 -146.5 40.5t-83.5 118.5q-19 58 -19 192t19 192q25 78 83.5 118.5t146.5 40.5t146.5 -40t83.5 -119q19 -54 19 -192t-19 -192q-6 -17 -12 -31t-13 -25l78 -78zM397 93l-83 84l58 59l77 -78l6 14q14 47 14 168t-14 169
q-35 102 -146 102t-145 -102q-15 -45 -15 -169q0 -125 15 -168q34 -102 145 -102q54 0 88 23z" />
    <glyph glyph-name="R" unicode="R" horiz-adv-x="617" 
d="M85 680h255q47 0 86 -14.5t67 -40t43.5 -61.5t15.5 -79q0 -69 -35.5 -117t-98.5 -67l152 -301h-99l-142 290h-157v-290h-87v680zM338 370q60 0 93.5 30.5t33.5 84.5t-33.5 84.5t-93.5 30.5h-166v-230h166z" />
    <glyph glyph-name="S" unicode="S" horiz-adv-x="592" 
d="M162 14q-68 26 -111 67l55 66q94 -77 198 -77q70 0 111 32t41 86q0 48 -33 76t-111 37l-33 5q-201 27 -201 187q0 90 60 144q61 54 162 54q126 0 215 -68l-45 -69q-42 28 -86.5 42.5t-86.5 14.5q-61 0 -95.5 -30.5t-34.5 -81.5q0 -46 34.5 -73.5t107.5 -37.5l34 -4
q201 -27 201 -190q0 -94 -64 -149.5t-184 -55.5q-72 0 -134 25z" />
    <glyph glyph-name="T" unicode="T" horiz-adv-x="538" 
d="M225 600h-203v80h494v-80h-203v-600h-88v600z" />
    <glyph glyph-name="U" unicode="U" horiz-adv-x="639" 
d="M79 237v443h88v-442q0 -81 40 -124.5t112 -43.5q73 0 113.5 43.5t40.5 124.5v442h87v-443q0 -59 -16.5 -105t-48 -77.5t-76 -48.5t-100.5 -17q-112 0 -176 65t-64 183z" />
    <glyph glyph-name="V" unicode="V" horiz-adv-x="563" 
d="M23 680h88l177 -542l172 542h89l-225 -680h-76z" />
    <glyph glyph-name="W" unicode="W" horiz-adv-x="822" 
d="M414 525l-149 -525h-72l-169 680h86l124 -523l146 523h68l149 -523l121 523h85l-168 -680h-72z" />
    <glyph glyph-name="X" unicode="X" horiz-adv-x="559" 
d="M285 272l-163 -272h-98l212 355l-194 325h98l145 -242l146 242h98l-195 -325l213 -355h-99z" />
    <glyph glyph-name="Y" unicode="Y" horiz-adv-x="526" 
d="M223 279l-206 401h93l159 -307l157 307h90l-205 -401v-279h-88v279z" />
    <glyph glyph-name="Z" unicode="Z" horiz-adv-x="536" 
d="M49 76l339 524h-327v80h426v-76l-339 -524h339v-80h-438v76z" />
    <glyph glyph-name="a" unicode="a" horiz-adv-x="518" 
d="M363 54q-18 -31 -54.5 -48t-88.5 -17q-75 0 -118 38t-43 107q0 147 187 147h115v42q0 52 -25.5 73.5t-89.5 21.5q-78 0 -124 -42l-38 62q59 52 169 52q101 0 144.5 -37.5t43.5 -125.5v-327h-78v54zM361 155v61h-103q-120 0 -120 -80q0 -37 26 -56.5t75 -19.5q58 0 90 25
t32 70z" />
    <glyph glyph-name="b" unicode="b" horiz-adv-x="538" 
d="M166 421q40 69 137 69q128 0 165 -115q17 -57 17 -135t-17 -135q-38 -116 -165 -116q-97 0 -137 70v-59h-83v680h83v-259zM177 341q-11 -33 -11 -101t11 -101q24 -73 106 -73t106 73q11 33 11 101t-11 101q-24 73 -106 73t-106 -73z" />
    <glyph glyph-name="c" unicode="c" horiz-adv-x="473" 
d="M69 362q19 61 69 94.5t119 33.5q110 0 170 -90l-60 -48q-41 62 -110 62q-83 0 -107 -76q-12 -35 -12 -98q0 -65 12 -98q24 -76 107 -76q32 0 60.5 16t49.5 45l60 -48q-29 -43 -72.5 -66.5t-97.5 -23.5q-69 0 -119 34t-69 95q-15 48 -15 122t15 122z" />
    <glyph glyph-name="d" unicode="d" horiz-adv-x="538" 
d="M373 59q-40 -70 -138 -70q-128 0 -164 116q-17 54 -17 135t17 135q36 115 164 115q97 0 138 -69v259h83v-680h-83v59zM361 139q12 34 12 101q0 66 -12 101q-22 73 -106 73q-81 0 -105 -73q-12 -35 -12 -101q0 -67 12 -101q24 -73 105 -73q84 0 106 73z" />
    <glyph glyph-name="e" unicode="e" horiz-adv-x="512" 
d="M69 120q-15 48 -15 120q0 74 15 122q19 61 68.5 94.5t118.5 33.5q70 0 119 -33.5t69 -94.5q15 -47 15 -146h-321q0 -43 8 -67q28 -84 122 -84q82 0 130 62l55 -49q-68 -89 -192 -89q-73 0 -122.5 34t-69.5 97zM375 281q0 34 -8 61q-25 76 -111 76t-111 -76q-7 -21 -7 -61
h237z" />
    <glyph glyph-name="f" unicode="f" horiz-adv-x="318" 
d="M98 412h-57v68h57v47q0 81 34.5 117t112.5 36h46v-76h-36q-23 0 -37.5 -3.5t-22.5 -11.5t-11 -22t-3 -36v-51h110v-68h-110v-412h-83v412z" />
    <glyph glyph-name="g" unicode="g" horiz-adv-x="529" 
d="M66 -113l57 54q24 -26 55 -41t64 -15q122 0 122 131v58q-38 -68 -134 -68q-124 0 -162 115q-16 47 -16 127q0 79 16 126q38 116 162 116q96 0 134 -69v59h83v-460q0 -103 -53 -157t-155 -54q-26 0 -51.5 6t-48.5 16.5t-42 24.5t-31 31zM352 154q12 33 12 94q0 59 -12 94
q-24 72 -102 72q-77 0 -101 -72q-13 -36 -13 -94q0 -59 13 -94q22 -73 101 -73q78 0 102 73z" />
    <glyph glyph-name="h" unicode="h" horiz-adv-x="545" 
d="M385 290q0 60 -27 92t-81 32q-51 0 -81 -32.5t-30 -86.5v-295h-83v680h83v-258q38 68 135 68q78 0 122.5 -48t44.5 -132v-310h-83v290z" />
    <glyph glyph-name="i" unicode="i" horiz-adv-x="248" 
d="M80 680h88v-91h-88v91zM83 480h83v-480h-83v480z" />
    <glyph glyph-name="j" unicode="j" horiz-adv-x="248" 
d="M80 680h88v-91h-88v91zM-7 -104h26q36 0 50 13.5t14 51.5v519h83v-518q0 -75 -34 -108.5t-109 -33.5h-30v76z" />
    <glyph glyph-name="k" unicode="k" horiz-adv-x="511" 
d="M249 235l-83 -98v-137h-83v680h83v-435l199 235h94l-156 -182l183 -298h-94z" />
    <glyph glyph-name="l" unicode="l" horiz-adv-x="277" 
d="M197 -5q-63 0 -89.5 30t-26.5 96v559h83v-555q0 -29 11 -41t36 -12h29v-77h-43z" />
    <glyph glyph-name="m" unicode="m" horiz-adv-x="847" 
d="M687 290q0 60 -27.5 92t-81.5 32q-51 0 -80.5 -32.5t-29.5 -86.5v-295h-83v290q0 60 -27 92t-81 32q-51 0 -81 -32.5t-30 -86.5v-295h-83v480h83v-58q38 68 135 68q99 0 140 -77q53 77 156 77q81 0 127 -48t46 -132v-310h-83v290z" />
    <glyph glyph-name="n" unicode="n" horiz-adv-x="545" 
d="M83 480h83v-58q38 68 135 68q78 0 122.5 -48t44.5 -132v-310h-83v290q0 60 -27 92t-81 32q-51 0 -81 -32.5t-30 -86.5v-295h-83v480z" />
    <glyph glyph-name="o" unicode="o" horiz-adv-x="516" 
d="M70 118q-16 48 -16 122t16 122q20 61 69 94.5t119 33.5t120 -33.5t69 -94.5q16 -48 16 -122t-16 -122q-20 -61 -69.5 -95t-119.5 -34t-119 34t-69 95zM367 142q11 33 11 98t-11 98q-27 76 -109 76q-83 0 -108 -76q-12 -35 -12 -98q0 -64 12 -98q25 -76 108 -76
q82 0 109 76z" />
    <glyph glyph-name="p" unicode="p" horiz-adv-x="538" 
d="M83 480h83v-59q40 69 137 69q128 0 165 -115q17 -57 17 -135t-17 -135q-38 -116 -165 -116q-97 0 -137 70v-239h-83v660zM389 139q11 33 11 101t-11 101q-24 73 -106 73t-106 -73q-11 -33 -11 -101t11 -101q24 -73 106 -73t106 73z" />
    <glyph glyph-name="q" unicode="q" horiz-adv-x="538" 
d="M373 59q-40 -70 -138 -70q-126 0 -164 116q-17 57 -17 135t17 135q37 115 164 115q97 0 138 -69v59h83v-660h-83v239zM361 139q12 34 12 101q0 66 -12 101q-22 73 -106 73q-81 0 -105 -73q-12 -35 -12 -101q0 -67 12 -101q24 -73 105 -73q84 0 106 73z" />
    <glyph glyph-name="r" unicode="r" horiz-adv-x="410" 
d="M83 480h83v-64q35 74 127 74q64 0 106 -43l-47 -62q-41 29 -83 29q-51 0 -77 -37t-26 -104v-273h-83v480z" />
    <glyph glyph-name="s" unicode="s" horiz-adv-x="490" 
d="M432 432l-45 -57q-64 43 -137 43q-45 0 -68.5 -18t-23.5 -49q0 -30 21.5 -45.5t72.5 -20.5l50 -5q144 -14 144 -134q0 -73 -51 -115t-142 -42q-119 0 -203 78l52 57q74 -62 156 -62q51 0 79 20t28 55q0 31 -20.5 47t-74.5 21l-50 5q-143 15 -143 135q0 69 46 107t131 38
q51 0 93.5 -13.5t84.5 -44.5z" />
    <glyph glyph-name="t" unicode="t" horiz-adv-x="316" 
d="M222 -5q-69 0 -99 32t-30 104v281h-57v68h57v150h83v-150h93v-68h-93v-278q0 -36 13.5 -49t47.5 -13h32v-77h-47z" />
    <glyph glyph-name="u" unicode="u" horiz-adv-x="540" 
d="M374 57q-41 -68 -133 -68q-78 0 -121.5 48.5t-43.5 132.5v310h83v-290q0 -60 27 -92t79 -32q49 0 79 32t30 86v296h83v-480h-83v57z" />
    <glyph glyph-name="v" unicode="v" horiz-adv-x="477" 
d="M26 480h88l129 -360l127 360h88l-180 -480h-73z" />
    <glyph glyph-name="w" unicode="w" horiz-adv-x="745" 
d="M376 357l-114 -357h-74l-156 480h86l111 -363l112 363h69l116 -363l107 363h86l-156 -480h-75z" />
    <glyph glyph-name="x" unicode="x" horiz-adv-x="479" 
d="M246 181l-123 -181h-93l170 250l-156 230h94l108 -161l109 161h93l-157 -230l171 -250h-94z" />
    <glyph glyph-name="y" unicode="y" horiz-adv-x="476" 
d="M79 -180v76h28q30 0 47.5 15.5t33.5 57.5l17 45l-180 466h88l132 -362l127 362h86l-193 -518q-31 -83 -63 -112q-32 -30 -87 -30h-36z" />
    <glyph glyph-name="z" unicode="z" horiz-adv-x="476" 
d="M55 0v68l270 337h-257v75h354v-72l-268 -333h268v-75h-367z" />
    <glyph glyph-name="question" unicode="?" horiz-adv-x="455" 
d="M412 521q0 -31 -8 -55q-8 -23 -30 -57q-11 -17 -31 -44t-49 -65q-15 -19 -20.5 -35.5t-5.5 -40.5v-42h-84v50q0 54 29 92l85 115q14 20 21.5 42t7.5 40q0 43 -26.5 68.5t-71.5 25.5q-43 0 -71 -26t-35 -80l-81 14q10 78 61 123t129 45q79 0 129 -47q51 -47 51 -123z
M273 0h-95v105h95v-105z" />
    <glyph glyph-name="asciitilde" unicode="~" 
d="M54 246q21 48 57 72.5t78 24.5q43 0 101 -37q44 -29 70 -29q46 0 81 62l53 -33q-38 -80 -111 -92q-14 -3 -27 -3q-45 0 -98 35q-43 28 -70 28q-47 0 -80 -61z" />
    <glyph glyph-name="acute" unicode="&#xb4;" horiz-adv-x="422" 
d="M217 700h88l-106 -143h-70z" />
    <glyph glyph-name="registered" unicode="&#xae;" horiz-adv-x="828" 
d="M664 589q101 -101 101 -249q0 -146 -101 -250q-101 -101 -250 -101t-250 101q-100 100 -100 250q0 149 100 249q100 102 250 102q149 0 250 -102zM208 548q-83 -83 -83 -208q0 -122 83 -208q83 -83 206 -83t206 83t83 208t-83 208q-83 84 -206 84q-124 0 -206 -84z
M562 424q0 -40 -21 -68t-58 -39l89 -177h-57l-83 170h-93v-170h-51v399h150q55 0 89.5 -32t34.5 -83zM339 492v-136h97q36 0 56 18t20 50t-20 50t-56 18h-97z" />
    <glyph glyph-name="copyright" unicode="&#xa9;" horiz-adv-x="828" 
d="M414 -11q-149 0 -250 101q-100 100 -100 250q0 149 100 249q100 102 250 102q149 0 250 -102q101 -101 101 -249q0 -146 -101 -250q-101 -101 -250 -101zM414 49q123 0 206 83t83 208t-83 208q-83 84 -206 84q-124 0 -206 -84q-83 -83 -83 -208q0 -122 83 -208
q83 -83 206 -83zM271 249q-11 36 -11 91q0 54 11 92q16 52 55 78.5t97 26.5q45 0 77.5 -16.5t58.5 -53.5l-47 -42q-34 52 -88 52q-69 0 -90 -63q-8 -26 -8 -74q0 -47 8 -73q21 -63 90 -63q25 0 48 13.5t41 37.5l46 -42q-48 -69 -136 -69q-58 0 -97 26.5t-55 78.5z" />
    <glyph glyph-name="trademark" unicode="&#x2122;" horiz-adv-x="833" 
d="M163 623h-121v57h305v-57h-121v-337h-63v337zM720 544l-96 -201h-48l-97 201v-258h-60v394h57l125 -265l122 265h57v-394h-60v258z" />
    <glyph glyph-name="notequal" unicode="&#x2260;" 
d="M235 141l-58 -111h-70l57 111h-103v74h141l65 123h-206v74h244l59 111h70l-58 -111h104v-74h-142l-65 -123h207v-74h-245z" />
    <glyph glyph-name="yen" unicode="&#xa5;" 
d="M234 149h-143v62h143v62h-143v62h120l-162 345h89l138 -315l137 315h89l-162 -345h119v-62h-142v-62h142v-62h-142v-149h-83v149z" />
    <glyph glyph-name="fraction" unicode="&#x2044;" horiz-adv-x="155" 
d="M254 691h66l-407 -702h-66z" />
    <glyph glyph-name="exclamdown" unicode="&#xa1;" horiz-adv-x="287" 
d="M96 375v105h95v-105h-95zM193 -201h-98l18 497h61z" />
    <glyph glyph-name="asciicircum" unicode="^" 
d="M275 579l-136 -306h-77l182 407h62l182 -407h-77z" />
    <glyph glyph-name="underscore" unicode="_" horiz-adv-x="476" 
d="M0 -130v54h476v-54h-476z" />
    <glyph glyph-name="grave" unicode="`" horiz-adv-x="422" 
d="M122 700h88l88 -143h-69z" />
    <glyph glyph-name="egrave" unicode="&#xe8;" horiz-adv-x="498" 
d="M132 700h88l88 -143h-69zM69 120q-15 48 -15 120q0 74 15 122q19 61 68.5 94.5t118.5 33.5q70 0 119 -33.5t69 -94.5q15 -47 15 -146h-321q0 -43 8 -67q28 -84 122 -84q82 0 130 62l55 -49q-68 -89 -192 -89q-73 0 -122.5 34t-69.5 97zM367 342q-25 76 -111 76t-111 -76
q-7 -21 -7 -61h237q0 34 -8 61z" />
    <glyph glyph-name="eacute" unicode="&#xe9;" horiz-adv-x="512" 
d="M294 700h88l-106 -143h-70zM69 120q-15 48 -15 120q0 74 15 122q19 61 68.5 94.5t118.5 33.5q70 0 119 -33.5t69 -94.5q15 -47 15 -146h-321q0 -43 8 -67q28 -84 122 -84q82 0 130 62l55 -49q-68 -89 -192 -89q-73 0 -122.5 34t-69.5 97zM367 342q-25 76 -111 76
t-111 -76q-7 -21 -7 -61h237q0 34 -8 61z" />
    <glyph glyph-name="fi" unicode="&#xfb01;" horiz-adv-x="566" 
d="M98 412h-57v68h57v47q0 81 34.5 117t112.5 36h46v-76h-36q-48 0 -61 -16q-13 -13 -13 -57v-51h110v-68h-110v-412h-83v412zM398 680h88v-91h-88v91zM401 480h83v-480h-83v480z" />
    <glyph glyph-name="fl" unicode="&#xfb02;" horiz-adv-x="595" 
d="M98 412h-57v68h57v47q0 81 34.5 117t112.5 36h46v-76h-36q-47 0 -60 -15q-14 -14 -14 -58v-51h110v-68h-110v-412h-83v412zM515 -5q-63 0 -89.5 30t-26.5 96v559h83v-555q0 -29 11 -41t36 -12h29v-77h-43z" />
    <glyph glyph-name="perthousand" unicode="&#x2030;" horiz-adv-x="1081" 
d="M624 691l-406 -701h-66l406 701h66zM83 407q-8 32 -8 102q0 72 8 102q12 37 42.5 57t73.5 20q42 0 72.5 -20.5t42.5 -56.5q8 -30 8 -102q0 -70 -8 -102q-12 -36 -42.5 -56.5t-72.5 -20.5q-43 0 -73.5 20.5t-42.5 56.5zM252 423q6 13 6 86q0 72 -6 87q-11 36 -53 36
q-43 0 -55 -36q-5 -13 -5 -87t5 -86q12 -36 55 -36q42 0 53 36zM455 171q0 72 8 102q11 35 42 56t73 21t73 -21t42 -56q8 -29 8 -102q0 -75 -8 -102q-11 -36 -42 -57t-73 -21t-73 21t-42 57q-8 29 -8 102zM760 171q0 72 8 102q11 35 42 56t73 21t73 -21t42 -56q8 -29 8 -102
q0 -75 -8 -102q-11 -36 -42 -57t-73 -21t-73 21t-42 57q-8 29 -8 102zM578 48q42 0 54 36q6 16 6 87q0 69 -6 86q-12 36 -54 36t-54 -36q-6 -17 -6 -86q0 -71 6 -87q12 -36 54 -36zM883 48q42 0 54 36q6 16 6 87q0 69 -6 86q-12 36 -54 36t-54 -36q-6 -17 -6 -86
q0 -71 6 -87q12 -36 54 -36z" />
    <glyph glyph-name="uni06D6" unicode="&#x6d6;" horiz-adv-x="0" 
d="M156 765h-135q-12 0 -20 10q-12 -10 -35 -10h-32q-31 0 -53 -16t-22 -34q0 -4 14 -4h218v-27h-219q-18 0 -22 2t-5 8q0 24 13 45q35 53 81 53h10l-15 98l-8 4q0 20 7 38l3 -2q0 -9 10 -13q1 -1 16 -6q0 -20 -5 -31l-7 3l16 -91q28 0 28 17q0 8 -3 19l7 10q7 -28 7 -29
q8 -17 23 -17q14 0 43.5 29t48.5 29q36 0 36 -45v-40zM130 805q0 16 -17 16q-13 0 -27 -10q-24 -16 -29 -19h52q21 0 21 13z" />
    <glyph glyph-name="lamalefisodamma" horiz-adv-x="499" 
d="M51 655q25 -23 60.5 -51t73 -60.5t75 -68.5t67.5 -75q2 2 7 10.5t10.5 20.5t9.5 26t4 26v159l77 22v-184q0 -80 -60 -149q83 -128 83 -228v-103h-423v119q37 24 73.5 53.5t68.5 58.5t58.5 55.5l43.5 43.5q-28 39 -63.5 74.5t-72.5 67t-72 58t-61 47.5zM385 89
q-2 22 -7.5 45.5t-14.5 46.5t-20.5 44t-24.5 38q-18 -19 -39.5 -41.5t-45.5 -46t-49 -46t-51 -40.5h252zM190 706q23 8 46.5 20t32.5 35q-8 -1 -20.5 -3t-25 -0.5t-22.5 8t-11 22.5q-2 19 3.5 37t14.5 31.5t21 22t24 9.5q9 1 18 -5t16.5 -16.5t12.5 -24t6 -27.5
q2 -39 -6.5 -64t-25 -41.5t-38.5 -26.5t-46 -19v42zM271 799q-4 20 -11 35t-15 14q-9 -2 -14 -14.5t-6 -18.5q-2 -19 13.5 -21t32.5 5z" />
    <glyph glyph-name="lamalefisofatha" horiz-adv-x="499" 
d="M51 655q25 -23 60.5 -51t73 -60.5t75 -68.5t67.5 -75q2 2 7 10.5t10.5 20.5t9.5 26t4 26v159l77 22v-184q0 -80 -60 -149q83 -128 83 -228v-103h-423v119q37 24 73.5 53.5t68.5 58.5t58.5 55.5l43.5 43.5q-28 39 -63.5 74.5t-72.5 67t-72 58t-61 47.5zM385 89
q-2 22 -7.5 45.5t-14.5 46.5t-20.5 44t-24.5 38q-18 -19 -39.5 -41.5t-45.5 -46t-49 -46t-51 -40.5h252zM135 709l203 57v-45l-203 -57v45z" />
    <glyph glyph-name="lamalefisofathatan" horiz-adv-x="499" 
d="M51 655q25 -23 60.5 -51t73 -60.5t75 -68.5t67.5 -75q2 2 7 10.5t10.5 20.5t9.5 26t4 26v159l77 22v-184q0 -80 -60 -149q83 -128 83 -228v-103h-423v119q37 24 73.5 53.5t68.5 58.5t58.5 55.5l43.5 43.5q-28 39 -63.5 74.5t-72.5 67t-72 58t-61 47.5zM385 89
q-2 22 -7.5 45.5t-14.5 46.5t-20.5 44t-24.5 38q-18 -19 -39.5 -41.5t-45.5 -46t-49 -46t-51 -40.5h252zM136 693l203 57v-45l-203 -57v45zM136 775l203 57v-45l-203 -57v45z" />
    <glyph glyph-name="lamalefisodamatan" horiz-adv-x="499" 
d="M51 655q25 -23 60.5 -51t73 -60.5t75 -68.5t67.5 -75q2 2 7 10.5t10.5 20.5t9.5 26t4 26v159l77 22v-184q0 -80 -60 -149q83 -128 83 -228v-103h-423v119q37 24 73.5 53.5t68.5 58.5t58.5 55.5l43.5 43.5q-28 39 -63.5 74.5t-72.5 67t-72 58t-61 47.5zM385 89
q-2 22 -7.5 45.5t-14.5 46.5t-20.5 44t-24.5 38q-18 -19 -39.5 -41.5t-45.5 -46t-49 -46t-51 -40.5h252zM280 796q-5 20 -11.5 34.5t-14.5 14.5q-7 -2 -11 -7.5t-6 -12.5q-3 -8 -4 -17q0 -9 6 -13.5t15 -4.5q6 0 12.5 2t13.5 4zM132 712q9 12 26 20.5t31 8.5q10 0 22 -7.5
t19 -21.5q16 7 28.5 18.5t18.5 27.5q-6 -1 -16 -2.5t-20 -1.5q-18 0 -30.5 7.5t-12.5 32.5q0 18 6 34.5t15.5 29t21 20t22.5 7.5t20.5 -8t16 -20.5t10.5 -28.5t4 -32q0 -30 -7.5 -51.5t-20.5 -36.5t-32 -25.5t-41 -19.5q-8 26 -16.5 34.5t-19.5 8.5q-10 0 -24 -9.5
t-22 -17.5z" />
    <glyph glyph-name="lamalefisoshaddah" horiz-adv-x="499" 
d="M51 655q25 -23 60.5 -51t73 -60.5t75 -68.5t67.5 -75q2 2 7 10.5t10.5 20.5t9.5 26t4 26v159l77 22v-184q0 -80 -60 -149q83 -128 83 -228v-103h-423v119q37 24 73.5 53.5t68.5 58.5t58.5 55.5l43.5 43.5q-28 39 -63.5 74.5t-72.5 67t-72 58t-61 47.5zM385 89
q-2 22 -7.5 45.5t-14.5 46.5t-20.5 44t-24.5 38q-18 -19 -39.5 -41.5t-45.5 -46t-49 -46t-51 -40.5h252zM159 770q0 -8 -0.5 -18t1 -20t6.5 -16.5t15 -6.5q14 0 20.5 11t6.5 26v32l41 11v-30q0 -14 5 -22.5t16 -8.5q13 0 19.5 9.5t6.5 25.5v34l41 11v-39q0 -45 -19 -65.5
t-44 -20.5q-11 0 -25 3.5t-21 11.5q-19 -32 -49 -32q-31 0 -42.5 21t-11.5 44v29z" />
    <glyph glyph-name="lamalefisosoukoun" horiz-adv-x="499" 
d="M51 655q25 -23 60.5 -51t73 -60.5t75 -68.5t67.5 -75q2 2 7 10.5t10.5 20.5t9.5 26t4 26v159l77 22v-184q0 -80 -60 -149q83 -128 83 -228v-103h-423v119q37 24 73.5 53.5t68.5 58.5t58.5 55.5l43.5 43.5q-28 39 -63.5 74.5t-72.5 67t-72 58t-61 47.5zM385 89
q-2 22 -7.5 45.5t-14.5 46.5t-20.5 44t-24.5 38q-18 -19 -39.5 -41.5t-45.5 -46t-49 -46t-51 -40.5h252zM233 758q23 0 29.5 9.5t6.5 20.5q0 19 -9 33.5t-27 14.5q-17 0 -26.5 -14.5t-9.5 -33.5q0 -11 6 -20.5t30 -9.5zM232 723q-22 0 -36 6t-22.5 15t-12 20.5t-3.5 23.5
q0 14 4.5 28.5t14 26t23.5 19t33 7.5t33 -7.5t23.5 -19t14 -26t4.5 -28.5q0 -12 -3.5 -24t-12 -21t-23 -14.5t-37.5 -5.5z" />
    <glyph glyph-name="lamalefisokasra" horiz-adv-x="499" 
d="M51 655q25 -23 60.5 -51t73 -60.5t75 -68.5t67.5 -75q2 2 7 10.5t10.5 20.5t9.5 26t4 26v159l77 22v-184q0 -80 -60 -149q83 -128 83 -228v-103h-423v119q37 24 73.5 53.5t68.5 58.5t58.5 55.5l43.5 43.5q-28 39 -63.5 74.5t-72.5 67t-72 58t-61 47.5zM385 89
q-2 22 -7.5 45.5t-14.5 46.5t-20.5 44t-24.5 38q-18 -19 -39.5 -41.5t-45.5 -46t-49 -46t-51 -40.5h252zM165 -136l203 57v-45l-203 -57v45z" />
    <glyph glyph-name="lamalefisokasratan" horiz-adv-x="499" 
d="M51 655q25 -23 60.5 -51t73 -60.5t75 -68.5t67.5 -75q2 2 7 10.5t10.5 20.5t9.5 26t4 26v159l77 22v-184q0 -80 -60 -149q83 -128 83 -228v-103h-423v119q37 24 73.5 53.5t68.5 58.5t58.5 55.5l43.5 43.5q-28 39 -63.5 74.5t-72.5 67t-72 58t-61 47.5zM385 89
q-2 22 -7.5 45.5t-14.5 46.5t-20.5 44t-24.5 38q-18 -19 -39.5 -41.5t-45.5 -46t-49 -46t-51 -40.5h252zM154 -205l203 57v-45l-203 -57v45zM154 -122l203 57v-45l-203 -57v45z" />
    <glyph glyph-name="Adieresis" unicode="&#xc4;" horiz-adv-x="607" 
d="M168 869h76v-91h-76v91zM367 869h77v-91h-77v91zM267 680h82l240 -680h-89l-56 160h-276l-56 -160h-88zM417 240l-110 314l-111 -314h221z" />
    <glyph glyph-name="Aring" unicode="&#xc5;" horiz-adv-x="607" 
d="M399 823q0 -38 -26 -67q-27 -27 -68 -27q-19 0 -36.5 7t-29.5 20q-27 27 -27 67t27 67q12 13 30 20t37 7q40 0 67 -27q26 -29 26 -67zM305 876q-23 0 -36 -15q-15 -15 -15 -38t15 -38q13 -15 36 -15t37 15q15 15 15 38t-15 38q-14 15 -37 15zM267 680h82l240 -680h-89
l-56 160h-276l-56 -160h-88zM417 240l-110 314l-111 -314h221z" />
    <glyph glyph-name="Ccedilla" unicode="&#xc7;" horiz-adv-x="566" 
d="M540 485h-89q-15 67 -54 96.5t-93 29.5q-105 0 -141 -102q-14 -44 -14 -169q0 -124 14 -169q36 -101 141 -101q51 0 91 29t53 89h90q-9 -51 -31 -88.5t-53 -62t-69.5 -36.5t-80.5 -12q-85 0 -142.5 40.5t-83.5 119.5q-18 55 -18 191q0 137 18 191q26 79 83.5 119.5
t142.5 40.5q87 0 152 -48q64 -48 84 -158zM211 -161v58q32 0 47.5 23.5t15.5 58.5h60q0 -60 -33 -99.5t-90 -40.5z" />
    <glyph glyph-name="Eacute" unicode="&#xc9;" horiz-adv-x="563" 
d="M320 888h89l-106 -144h-71zM85 680h427v-80h-340v-216h292v-80h-292v-224h340v-80h-427v680z" />
    <glyph glyph-name="Ntilde" unicode="&#xd1;" horiz-adv-x="654" 
d="M457 810q-16 -20 -35.5 -30t-38.5 -10q-26 0 -64 20q-30 18 -52 18q-14 0 -33.5 -10.5t-38.5 -28.5v62q15 21 35 31.5t40 10.5q25 0 63 -20q30 -18 53 -18q14 0 33 11t38 30v-66zM570 0h-86l-317 531v-531h-82v680h85l318 -530v530h82v-680z" />
    <glyph glyph-name="Odieresis" unicode="&#xd6;" horiz-adv-x="618" 
d="M171 869h76v-91h-76v91zM370 869h77v-91h-77v91zM79 148q-19 58 -19 192t19 192q25 78 83.5 118.5t146.5 40.5t146.5 -40t83.5 -119q19 -54 19 -192t-19 -192q-26 -78 -84 -118.5t-146 -40.5t-146.5 40.5t-83.5 118.5zM455 172q14 47 14 168t-14 169q-35 102 -146 102
t-145 -102q-15 -45 -15 -169q0 -125 15 -168q34 -102 145 -102t146 102z" />
    <glyph glyph-name="Udieresis" unicode="&#xdc;" horiz-adv-x="639" 
d="M258 778h-76v91h76v-91zM458 778h-77v91h77v-91zM560 237q0 -118 -63.5 -183t-177.5 -65q-112 0 -176 65t-64 183v443h88v-442q0 -81 40 -124.5t112 -43.5q73 0 113.5 43.5t40.5 124.5v442h87v-443z" />
    <glyph glyph-name="aacute" unicode="&#xe1;" horiz-adv-x="518" 
d="M301 700h88l-107 -143h-70zM363 54q-18 -31 -54.5 -48t-88.5 -17q-75 0 -118 38t-43 107q0 147 187 147h115v42q0 52 -25.5 73.5t-89.5 21.5q-78 0 -124 -42l-38 62q59 52 169 52q101 0 144.5 -37.5t43.5 -125.5v-327h-78v54zM361 155v61h-103q-120 0 -120 -80
q0 -37 26 -56.5t75 -19.5q58 0 90 25t32 70z" />
    <glyph glyph-name="agrave" unicode="&#xe0;" horiz-adv-x="518" 
d="M152 700h88l88 -143h-69zM363 54q-18 -31 -54.5 -48t-88.5 -17q-75 0 -118 38t-43 107q0 147 187 147h115v42q0 52 -25.5 73.5t-89.5 21.5q-78 0 -124 -42l-38 62q59 52 169 52q101 0 144.5 -37.5t43.5 -125.5v-327h-78v54zM361 155v61h-103q-120 0 -120 -80
q0 -37 26 -56.5t75 -19.5q58 0 90 25t32 70z" />
    <glyph glyph-name="acircumflex" unicode="&#xe2;" horiz-adv-x="518" 
d="M259 640l-74 -83h-65l109 143h60l109 -143h-65zM363 54q-18 -31 -54.5 -48t-88.5 -17q-75 0 -118 38t-43 107q0 147 187 147h115v42q0 52 -25.5 73.5t-89.5 21.5q-78 0 -124 -42l-38 62q59 52 169 52q101 0 144.5 -37.5t43.5 -125.5v-327h-78v54zM361 155v61h-103
q-120 0 -120 -80q0 -37 26 -56.5t75 -19.5q58 0 90 25t32 70z" />
    <glyph glyph-name="adieresis" unicode="&#xe4;" horiz-adv-x="518" 
d="M197 589h-77v91h77v-91zM396 589h-76v91h76v-91zM441 327v-327h-78v54q-18 -31 -54.5 -48t-88.5 -17q-75 0 -118 38t-43 107q0 147 187 147h115v42q0 52 -25.5 73.5t-89.5 21.5q-78 0 -124 -42l-38 62q59 52 169 52q101 0 144.5 -37.5t43.5 -125.5zM258 216
q-120 0 -120 -80q0 -37 26 -56.5t75 -19.5q58 0 90 25t32 70v61h-103z" />
    <glyph glyph-name="atilde" unicode="&#xe3;" horiz-adv-x="518" 
d="M252 600q-32 18 -53 18q-14 0 -33.5 -10.5t-37.5 -29.5v63q15 21 34.5 31.5t39.5 10.5q26 0 64 -20q28 -18 53 -18q14 0 33 10.5t38 29.5v-65q-16 -21 -36 -30.5t-39 -9.5q-25 0 -63 20zM363 54q-18 -31 -54.5 -48t-88.5 -17q-75 0 -118 38t-43 107q0 147 187 147h115v42
q0 52 -25.5 73.5t-89.5 21.5q-78 0 -124 -42l-38 62q59 52 169 52q101 0 144.5 -37.5t43.5 -125.5v-327h-78v54zM361 155v61h-103q-120 0 -120 -80q0 -37 26 -56.5t75 -19.5q58 0 90 25t32 70z" />
    <glyph glyph-name="aring" unicode="&#xe5;" horiz-adv-x="518" 
d="M246 645q18 18 36.5 29.5t28.5 11.5q8 0 8 -8q0 -10 -12 -29t-29 -36q-21 -22 -42.5 -33.5t-28.5 -6.5q-7 7 5.5 29t33.5 43zM441 327v-327h-78v54q-18 -31 -54.5 -48t-88.5 -17q-75 0 -118 38t-43 107q0 147 187 147h115v42q0 52 -25.5 73.5t-89.5 21.5q-78 0 -124 -42
l-38 62q59 52 169 52q101 0 144.5 -37.5t43.5 -125.5zM361 216h-103q-120 0 -120 -80q0 -37 26 -56.5t75 -19.5q58 0 90 25t32 70v61z" />
    <glyph glyph-name="ccedilla" unicode="&#xe7;" horiz-adv-x="473" 
d="M427 400l-60 -48q-41 62 -110 62q-83 0 -107 -76q-12 -35 -12 -98q0 -65 12 -98q24 -76 107 -76q32 0 60.5 16t49.5 45l60 -48q-29 -43 -72.5 -66.5t-97.5 -23.5q-69 0 -119 34t-69 95q-15 48 -15 122t15 122q19 61 69 94.5t119 33.5q110 0 170 -90zM164 -161v58
q33 0 48.5 23.5t15.5 58.5h60q0 -60 -33.5 -99.5t-90.5 -40.5z" />
    <glyph glyph-name="ecircumflex" unicode="&#xea;" horiz-adv-x="512" 
d="M255 640l-73 -83h-66l109 143h60l110 -143h-66zM69 120q-15 48 -15 120q0 74 15 122q19 61 68.5 94.5t118.5 33.5q70 0 119 -33.5t69 -94.5q15 -47 15 -146h-321q0 -43 8 -67q28 -84 122 -84q82 0 130 62l55 -49q-68 -89 -192 -89q-73 0 -122.5 34t-69.5 97zM367 342
q-25 76 -111 76t-111 -76q-7 -21 -7 -61h237q0 34 -8 61z" />
    <glyph glyph-name="edieresis" unicode="&#xeb;" horiz-adv-x="512" 
d="M194 589h-77v91h77v-91zM393 589h-76v91h76v-91zM444 362q15 -47 15 -146h-321q0 -43 8 -67q28 -84 122 -84q82 0 130 62l55 -49q-68 -89 -192 -89q-73 0 -122.5 34t-69.5 97q-15 48 -15 120q0 74 15 122q19 61 68.5 94.5t118.5 33.5q70 0 119 -33.5t69 -94.5zM145 342
q-7 -21 -7 -61h237q0 34 -8 61q-25 76 -111 76t-111 -76z" />
    <glyph glyph-name="iacute" unicode="&#xed;" horiz-adv-x="248" 
d="M176 700h89l-107 -143h-70zM83 480h83v-480h-83v480z" />
    <glyph glyph-name="igrave" unicode="&#xec;" horiz-adv-x="248" 
d="M-13 700h89l87 -143h-69zM83 480h83v-480h-83v480z" />
    <glyph glyph-name="icircumflex" unicode="&#xee;" horiz-adv-x="248" 
d="M125 640l-73 -83h-66l109 143h60l110 -143h-66zM83 480h83v-480h-83v480z" />
    <glyph glyph-name="idieresis" unicode="&#xef;" horiz-adv-x="248" 
d="M63 589h-77v91h77v-91zM263 589h-77v91h77v-91zM166 0h-83v480h83v-480z" />
    <glyph glyph-name="ntilde" unicode="&#xf1;" horiz-adv-x="545" 
d="M264 600q-30 18 -52 18q-15 0 -34 -10.5t-38 -29.5v63q15 21 35 31.5t40 10.5q25 0 63 -20q30 -18 53 -18q14 0 33 10.5t38 29.5v-65q-16 -21 -35 -30.5t-39 -9.5q-26 0 -64 20zM385 290q0 60 -27 92t-81 32q-51 0 -81 -32.5t-30 -86.5v-295h-83v480h83v-58q38 68 135 68
q78 0 122.5 -48t44.5 -132v-310h-83v290z" />
    <glyph glyph-name="oacute" unicode="&#xf3;" horiz-adv-x="516" 
d="M298 700h89l-107 -143h-70zM70 118q-16 48 -16 122t16 122q20 61 69 94.5t119 33.5t120 -33.5t69 -94.5q16 -48 16 -122t-16 -122q-20 -61 -69.5 -95t-119.5 -34t-119 34t-69 95zM367 142q11 33 11 98t-11 98q-27 76 -109 76q-83 0 -108 -76q-12 -35 -12 -98
q0 -64 12 -98q25 -76 108 -76q82 0 109 76z" />
    <glyph glyph-name="ograve" unicode="&#xf2;" horiz-adv-x="516" 
d="M130 700h88l87 -143h-69zM70 118q-16 48 -16 122t16 122q20 61 69 94.5t119 33.5t120 -33.5t69 -94.5q16 -48 16 -122t-16 -122q-20 -61 -69.5 -95t-119.5 -34t-119 34t-69 95zM367 142q11 33 11 98t-11 98q-27 76 -109 76q-83 0 -108 -76q-12 -35 -12 -98q0 -64 12 -98
q25 -76 108 -76q82 0 109 76z" />
    <glyph glyph-name="ocircumflex" unicode="&#xf4;" horiz-adv-x="516" 
d="M257 640l-73 -83h-66l109 143h60l110 -143h-66zM70 118q-16 48 -16 122t16 122q20 61 69 94.5t119 33.5t120 -33.5t69 -94.5q16 -48 16 -122t-16 -122q-20 -61 -69.5 -95t-119.5 -34t-119 34t-69 95zM367 142q11 33 11 98t-11 98q-27 76 -109 76q-83 0 -108 -76
q-12 -35 -12 -98q0 -64 12 -98q25 -76 108 -76q82 0 109 76z" />
    <glyph glyph-name="odieresis" unicode="&#xf6;" horiz-adv-x="516" 
d="M196 589h-77v91h77v-91zM395 589h-76v91h76v-91zM447 362q16 -48 16 -122t-16 -122q-20 -61 -69.5 -95t-119.5 -34t-119 34t-69 95q-16 48 -16 122t16 122q20 61 69 94.5t119 33.5t120 -33.5t69 -94.5zM150 338q-12 -35 -12 -98q0 -64 12 -98q25 -76 108 -76q82 0 109 76
q11 33 11 98t-11 98q-27 76 -109 76q-83 0 -108 -76z" />
    <glyph glyph-name="otilde" unicode="&#xf5;" horiz-adv-x="516" 
d="M250 600q-30 18 -52 18q-15 0 -34 -10.5t-38 -29.5v63q15 21 35 31.5t40 10.5q25 0 63 -20q30 -18 53 -18q14 0 33 10.5t38 29.5v-65q-16 -21 -35 -30.5t-39 -9.5q-26 0 -64 20zM70 118q-16 48 -16 122t16 122q20 61 69 94.5t119 33.5t120 -33.5t69 -94.5q16 -48 16 -122
t-16 -122q-20 -61 -69.5 -95t-119.5 -34t-119 34t-69 95zM367 142q11 33 11 98t-11 98q-27 76 -109 76q-83 0 -108 -76q-12 -35 -12 -98q0 -64 12 -98q25 -76 108 -76q82 0 109 76z" />
    <glyph glyph-name="uacute" unicode="&#xfa;" horiz-adv-x="540" 
d="M308 700h88l-106 -143h-70zM374 57q-41 -68 -133 -68q-78 0 -121.5 48.5t-43.5 132.5v310h83v-290q0 -60 27 -92t79 -32q49 0 79 32t30 86v296h83v-480h-83v57z" />
    <glyph glyph-name="ugrave" unicode="&#xf9;" horiz-adv-x="540" 
d="M138 700h88l87 -143h-69zM374 57q-41 -68 -133 -68q-78 0 -121.5 48.5t-43.5 132.5v310h83v-290q0 -60 27 -92t79 -32q49 0 79 32t30 86v296h83v-480h-83v57z" />
    <glyph glyph-name="ucircumflex" unicode="&#xfb;" horiz-adv-x="540" 
d="M269 640l-74 -83h-65l109 143h60l109 -143h-65zM374 57q-41 -68 -133 -68q-78 0 -121.5 48.5t-43.5 132.5v310h83v-290q0 -60 27 -92t79 -32q49 0 79 32t30 86v296h83v-480h-83v57z" />
    <glyph glyph-name="udieresis" unicode="&#xfc;" horiz-adv-x="540" 
d="M208 589h-77v91h77v-91zM407 589h-76v91h76v-91zM457 0h-83v57q-41 -68 -133 -68q-78 0 -121.5 48.5t-43.5 132.5v310h83v-290q0 -60 27 -92t79 -32q49 0 79 32t30 86v296h83v-480z" />
    <glyph glyph-name="dagger" unicode="&#x2020;" horiz-adv-x="491" 
d="M206 368h-157v72h157v240h80v-240h156v-72h-156v-548h-80v548z" />
    <glyph glyph-name="degree" unicode="&#xb0;" horiz-adv-x="457" 
d="M228 398q-62 0 -104 42q-41 44 -41 104q0 62 41 103q42 42 104 42t103 -42q42 -41 42 -103q0 -63 -42 -105q-41 -41 -103 -41zM138 544q0 -42 25 -68t65 -26q39 0 65 27t26 67q0 42 -25.5 68t-65.5 26t-65 -26t-25 -68z" />
    <glyph glyph-name="cent" unicode="&#xa2;" 
d="M401 127l60 -48q-54 -78 -151 -89v-91h-46v92q-60 6 -102 39t-59 88q-15 48 -15 122t15 122q17 54 59 87t102 40v91h46v-91q95 -6 151 -89l-60 -48q-35 54 -91 61v-346q53 9 91 60zM264 68v344q-60 -12 -80 -74q-12 -35 -12 -98q0 -65 12 -98q20 -63 80 -74z" />
    <glyph glyph-name="section" unicode="&#xa7;" horiz-adv-x="555" 
d="M106 -41l74 16q3 -96 94 -96q43 0 67.5 22t24.5 62q0 45 -29.5 69t-99.5 39q-144 31 -144 182q0 58 25.5 99.5t76.5 60.5q-40 21 -59.5 52t-19.5 76q0 64 46 107t118 43t117 -39.5t46 -105.5l-73 -16q-2 45 -25.5 68t-63.5 23t-63 -21.5t-23 -58.5q0 -43 27.5 -67
t95.5 -39q144 -35 144 -182q0 -57 -27.5 -100t-72.5 -60q45 -21 63.5 -51.5t18.5 -81.5q0 -66 -49 -109q-48 -42 -120 -42q-78 0 -122.5 39t-46.5 111zM384 253q0 54 -28.5 83t-77.5 29t-78 -29t-29 -83t29 -83.5t78 -29.5q48 0 77 29.5t29 83.5z" />
    <glyph glyph-name="bullet" unicode="&#x2022;" horiz-adv-x="441" 
d="M94 308q0 28 9.5 51.5t26.5 40.5t40 26.5t50 9.5q28 0 51.5 -9.5t40 -27t26 -41t9.5 -50.5q0 -28 -9.5 -51.5t-26.5 -40t-40.5 -26t-50.5 -9.5t-50.5 9.5t-40 27t-26 40.5t-9.5 50z" />
    <glyph glyph-name="paragraph" unicode="&#xb6;" horiz-adv-x="602" 
d="M440 608h-95v-788h-74v442q-87 4 -143 63q-53 62 -53 146q0 91 59 150t164 59h216v-860h-74v788z" />
    <glyph glyph-name="dieresis" unicode="&#xa8;" horiz-adv-x="422" 
d="M73 680h79v-91h-79v91zM271 680h78v-91h-78v91z" />
    <glyph glyph-name="AE" unicode="&#xc6;" horiz-adv-x="934" 
d="M405 680h481v-80h-340v-216h292v-80h-292v-224h340v-80h-427v160h-247l-90 -160h-98zM459 240v363l-204 -363h204z" />
    <glyph glyph-name="Oslash" unicode="&#xd8;" horiz-adv-x="618" 
d="M122 71q-27 35 -40 77q-19 54 -19 192t19 192q25 78 83.5 118.5t146.5 40.5q87 0 148 -43l36 62h65l-60 -101q13 -17 23 -36t18 -41q19 -58 19 -192t-19 -192q-25 -78 -83.5 -118.5t-146.5 -40.5q-87 0 -149 44l-36 -63h-64zM416 575q-41 36 -104 36q-112 0 -146 -102
q-15 -45 -15 -169q0 -73 5 -116.5t17 -68.5zM458 172q14 47 14 168q0 141 -22 184l-242 -419q37 -35 104 -35q111 0 146 102z" />
    <glyph glyph-name="infinity" unicode="&#x221e;" horiz-adv-x="766" 
d="M383 197q-49 -57 -93 -83.5t-92 -26.5q-69 0 -112 45q-43 44 -43 115q0 36 11.5 65.5t32 50.5t49.5 32.5t64 11.5q45 0 88 -27t95 -85q54 60 96 86t87 26q70 0 113 -46q45 -45 45 -114t-44 -115q-44 -45 -113 -45q-46 0 -90.5 26.5t-93.5 83.5zM342 247q-23 27 -41.5 46
t-35 31t-32 17t-31.5 5q-45 0 -70.5 -27.5t-25.5 -70.5t27 -71.5t69 -28.5q30 0 62.5 23.5t77.5 75.5zM661 248q0 43 -26 70.5t-71 27.5q-31 0 -62 -22.5t-78 -77.5q46 -53 76.5 -75.5t63.5 -22.5q43 0 70 29t27 71z" />
    <glyph glyph-name="plusminus" unicode="&#xb1;" 
d="M232 306h-171v74h171v173h77v-173h171v-74h-171v-173h-77v173zM61 75h419v-75h-419v75z" />
    <glyph glyph-name="lessequal" unicode="&#x2264;" 
d="M61 375l419 171v-81l-314 -123l314 -122v-82l-419 172v65zM61 0v75h419v-75h-419z" />
    <glyph glyph-name="greaterequal" unicode="&#x2265;" 
d="M61 220l313 122l-313 123v81l419 -171v-65l-419 -172v82zM61 0v75h419v-75h-419z" />
    <glyph glyph-name="mu" unicode="&#xb5;" horiz-adv-x="560" 
d="M261 -11q-67 0 -95 45v-214h-83v660h83v-296q0 -57 27.5 -87.5t78.5 -30.5t81 33t30 87v294h83v-370q0 -27 7.5 -32.5t31.5 -5.5v-77h-25q-45 0 -64 16.5t-26 56.5q-16 -36 -48.5 -57.5t-80.5 -21.5z" />
    <glyph glyph-name="partialdiff" unicode="&#x2202;" horiz-adv-x="542" 
d="M107 48q-53 59 -53 152q0 94 56 155q56 62 145 62q97 0 156 -71q1 118 -40 194q-41 77 -121 77q-61 0 -119 -48l-40 60q73 62 161 62q116 0 176 -91q60 -92 60 -244q0 -168 -60 -268q-59 -99 -177 -99q-90 0 -144 59zM407 279q-57 68 -138 68q-63 0 -99 -39t-36 -106
q0 -63 33.5 -99.5t90.5 -36.5q66 0 103.5 54t45.5 159z" />
    <glyph glyph-name="summation" unicode="&#x2211;" horiz-adv-x="535" 
d="M51 -110l189 430l-185 345v75h426v-80h-326l178 -333l-187 -427h345v-80h-440v70z" />
    <glyph glyph-name="product" unicode="&#x220f;" horiz-adv-x="652" 
d="M480 660h-308v-840h-87v920h483v-920h-88v840z" />
    <glyph glyph-name="pi" unicode="&#x3c0;" horiz-adv-x="594" 
d="M500 -5q-111 0 -111 119v290h-198v-404h-83v404h-73v76h512v-76h-75v-283q0 -49 42 -49h21v-77h-35z" />
    <glyph glyph-name="integral" unicode="&#x222b;" horiz-adv-x="413" 
d="M57 -176v75q15 -4 38 -4q37 0 53.5 23.5t16.5 77.5v551q0 102 33.5 147t108.5 47q12 0 24.5 -1t25.5 -3v-75q-20 3 -39 3q-36 0 -53 -23t-17 -77v-551q0 -102 -33.5 -147.5t-107.5 -46.5q-35 0 -50 4z" />
    <glyph glyph-name="ordfeminine" unicode="&#xaa;" horiz-adv-x="344" 
d="M231 421q-25 -34 -90 -34q-46 0 -73.5 22t-27.5 64q0 94 123 94h67v19q0 23 -16 33.5t-53 10.5q-48 0 -80 -23l-27 50q40 31 115 31q69 0 97.5 -23t28.5 -77v-196h-64v29zM230 488v29h-62q-63 0 -63 -38t54 -38q33 0 52 12.5t19 34.5z" />
    <glyph glyph-name="ordmasculine" unicode="&#xba;" horiz-adv-x="351" 
d="M38 536q0 42 10 68q27 84 128 84q99 0 128 -84q9 -29 9 -68q0 -40 -9 -68q-29 -83 -128 -83q-101 0 -128 83q-10 26 -10 68zM243 537q0 27 -7 47q-13 43 -60 43q-48 0 -61 -43q-7 -17 -7 -47q0 -31 7 -49q13 -42 61 -42q46 0 60 42q7 21 7 49z" />
    <glyph glyph-name="Omega" unicode="&#x2126;" horiz-adv-x="623" 
d="M63 0v80h90q-40 25 -61 61q-20 37 -26 82.5t-6 116.5q0 133 19 190q25 79 85 120t148 41q91 0 149 -41t82 -119q21 -66 21 -191q0 -51 -4.5 -92t-15 -72.5t-28.5 -55t-45 -40.5h89v-80h-208v80q69 22 96 83.5t27 176.5q0 118 -16 169q-33 102 -147 102t-147 -102
q-16 -47 -16 -169q0 -58 5 -102t18.5 -75.5t37.5 -52t61 -30.5v-80h-208z" />
    <glyph glyph-name="ae" unicode="&#xe6;" horiz-adv-x="815" 
d="M397 75q-41 -86 -177 -86q-75 0 -118 38t-43 107q0 147 187 147h115v42q0 52 -25.5 73.5t-89.5 21.5q-76 0 -124 -42l-38 62q61 52 169 52q126 0 160 -66q49 66 146 66q69 0 119 -33.5t69 -94.5q15 -47 15 -146h-321q0 -43 8 -67q29 -83 122 -83q81 0 130 61l55 -49
q-66 -89 -191 -89q-60 0 -101 20.5t-67 65.5zM670 342q-25 76 -111 76t-111 -76q-7 -21 -7 -61h237q0 34 -8 61zM361 155v61h-103q-119 0 -119 -80q0 -76 100 -76q58 0 90 25t32 70z" />
    <glyph glyph-name="oslash" unicode="&#xf8;" horiz-adv-x="516" 
d="M109 53q-24 27 -35 65q-16 48 -16 122t16 122q20 61 69 94.5t119 33.5q68 0 121 -35l38 55h50l-56 -84q20 -25 36 -64q16 -48 16 -122t-16 -122q-20 -61 -69.5 -95t-119.5 -34q-69 0 -121 36l-38 -55h-50zM338 390q-31 25 -76 25q-84 0 -109 -76q-12 -36 -12 -99
q0 -40 4.5 -66.5t14.5 -47.5zM372 141q11 35 11 99q0 50 -7 77q-2 10 -4.5 19t-6.5 18l-178 -264q29 -25 75 -25q83 0 110 76z" />
    <glyph glyph-name="questiondown" unicode="&#xbf;" horiz-adv-x="455" 
d="M186 375v105h95v-105h-95zM275 248q0 -51 -29 -92l-80 -107q-10 -15 -16.5 -26t-10.5 -21t-5.5 -20.5t-1.5 -22.5q0 -43 26.5 -68.5t71.5 -25.5q88 0 106 105l81 -13q-11 -81 -61.5 -124.5t-128.5 -43.5q-81 0 -130 47q-50 48 -50 122q0 36 12 67t39 64l67 91
q15 19 20.5 35.5t5.5 40.5v42h84v-50z" />
    <glyph glyph-name="logicalnot" unicode="&#xac;" 
d="M404 239h-343v74h419v-208h-76v134z" />
    <glyph glyph-name="radical" unicode="&#x221a;" horiz-adv-x="629" 
d="M145 117l-79 -37l-30 60l147 72l136 -284l223 812h74l-255 -920h-69z" />
    <glyph glyph-name="florin" unicode="&#x192;" 
d="M324 336l-56 -364q-6 -42 -18 -71t-30.5 -47t-45.5 -26t-64 -8h-35v74h30q40 0 57.5 16t24.5 60l56 366h-86v66h96l20 128q13 81 49 115.5t108 34.5h36v-74h-32q-37 0 -55.5 -16.5t-24.5 -58.5l-20 -129h103v-66h-113z" />
    <glyph glyph-name="approxequal" unicode="&#x2248;" 
d="M290 403q44 -29 70 -29q47 0 80 62l54 -33q-21 -48 -56.5 -73t-78.5 -25q-45 0 -101 38q-43 28 -70 28q-45 0 -80 -62l-54 33q21 48 57 73t78 25q43 0 101 -37zM290 210q44 -29 70 -29q47 0 80 62l54 -33q-21 -48 -56.5 -73t-78.5 -25q-45 0 -101 38q-43 28 -70 28
q-45 0 -80 -62l-54 33q21 48 57 73t78 25q43 0 101 -37z" />
    <glyph glyph-name="Delta" unicode="&#x2206;" horiz-adv-x="613" 
d="M270 680h81l241 -680h-564zM310 554l-171 -481h340z" />
    <glyph glyph-name="Agrave" unicode="&#xc0;" horiz-adv-x="607" 
d="M167 888h88l88 -144h-70zM267 680h82l240 -680h-89l-56 160h-276l-56 -160h-88zM417 240l-110 314l-111 -314h221z" />
    <glyph glyph-name="Atilde" unicode="&#xc3;" horiz-adv-x="607" 
d="M174 831q15 21 35 31.5t40 10.5q25 0 63 -20q30 -18 53 -18q14 0 33 10.5t38 29.5v-65q-31 -40 -74 -40q-26 0 -64 20q-30 18 -52 18q-15 0 -34.5 -10.5t-37.5 -29.5v63zM267 680h82l240 -680h-89l-56 160h-276l-56 -160h-88zM417 240l-110 314l-111 -314h221z" />
    <glyph glyph-name="Otilde" unicode="&#xd5;" horiz-adv-x="618" 
d="M178 831q15 21 34.5 31.5t39.5 10.5q26 0 64 -20q28 -18 53 -18q14 0 33 11t38 30v-66q-17 -20 -36.5 -30t-38.5 -10q-25 0 -63 20q-32 18 -53 18q-14 0 -33.5 -10.5t-37.5 -28.5v62zM79 148q-19 58 -19 192t19 192q25 78 83.5 118.5t146.5 40.5t146.5 -40t83.5 -119
q19 -54 19 -192t-19 -192q-26 -78 -84 -118.5t-146 -40.5t-146.5 40.5t-83.5 118.5zM455 172q14 47 14 168t-14 169q-35 102 -146 102t-145 -102q-15 -45 -15 -169q0 -125 15 -168q34 -102 145 -102t146 102z" />
    <glyph glyph-name="OE" unicode="&#x152;" horiz-adv-x="948" 
d="M80 148q-19 54 -19 192t19 192q25 78 83.5 118.5t146.5 40.5q109 0 160 -75v64h427v-80h-340v-216h292v-80h-292v-224h340v-80h-427v64q-51 -75 -160 -75q-88 0 -146.5 40.5t-83.5 118.5zM455 172q15 43 15 168q0 124 -15 169q-35 102 -145 102q-112 0 -146 -102
q-14 -48 -14 -169t14 -168q34 -102 146 -102q110 0 145 102z" />
    <glyph glyph-name="oe" unicode="&#x153;" horiz-adv-x="836" 
d="M420 74q-49 -85 -162 -85q-70 0 -119 34t-69 95q-16 45 -16 122t16 122q20 61 69 94.5t119 33.5q57 0 96 -20.5t66 -62.5q50 83 160 83q69 0 118 -33.5t69 -94.5q17 -53 15 -146h-321q1 -47 9 -67q29 -83 121 -83q42 0 74 14.5t57 47.5l55 -50q-36 -46 -82.5 -67.5
t-109.5 -21.5q-113 0 -165 85zM691 342q-26 76 -111 76q-86 0 -111 -76q-8 -29 -8 -61h237q0 40 -7 61zM367 142q11 33 11 98t-11 98q-27 76 -109 76q-83 0 -108 -76q-12 -35 -12 -98q0 -64 12 -98q25 -76 108 -76q82 0 109 76z" />
    <glyph glyph-name="lozenge" unicode="&#x25ca;" horiz-adv-x="559" 
d="M61 329l185 381h73l185 -381l-185 -381h-73zM423 329l-141 297l-139 -297l141 -297z" />
    <glyph glyph-name="ydieresis" unicode="&#xff;" horiz-adv-x="476" 
d="M182 589h-77v91h77v-91zM381 589h-76v91h76v-91zM265 -38q-31 -83 -63 -112q-32 -30 -87 -30h-36v76h28q30 0 47.5 15.5t33.5 57.5l17 45l-180 466h89l131 -361l127 361h86z" />
    <glyph glyph-name="Ydieresis" unicode="&#x178;" horiz-adv-x="526" 
d="M205 778h-76v91h76v-91zM405 778h-77v91h77v-91zM311 279v-279h-88v279l-206 401h93l159 -307l157 307h91z" />
    <glyph glyph-name="guilsinglleft" unicode="&#x2039;" horiz-adv-x="321" 
d="M257 471v-95l-112 -112l112 -112v-95l-205 207z" />
    <glyph glyph-name="guilsinglright" unicode="&#x203a;" horiz-adv-x="321" 
d="M71 152l110 112l-110 112v95l201 -207l-201 -210v98z" />
    <glyph glyph-name="daggerdbl" unicode="&#x2021;" horiz-adv-x="491" 
d="M206 32h-157v72h157v294h-157v72h157v210h80v-210h156v-72h-156v-294h156v-72h-156v-212h-80v212z" />
    <glyph glyph-name="periodcentered" horiz-adv-x="236" 
d="M71 318h94v-105h-94v105z" />
    <glyph glyph-name="quotesinglbase" unicode="&#x201a;" horiz-adv-x="215" 
d="M68 91h80v-105l-80 -92v197z" />
    <glyph glyph-name="quotedblbase" unicode="&#x201e;" horiz-adv-x="371" 
d="M148 -1l-80 -92v198h80v-106zM304 -1l-80 -92v198h80v-106z" />
    <glyph glyph-name="Acircumflex" unicode="&#xc2;" horiz-adv-x="607" 
d="M276 897h60l109 -143h-65l-74 83l-74 -83h-65zM267 680h82l240 -680h-89l-56 160h-276l-56 -160h-88zM417 240l-110 314l-111 -314h221z" />
    <glyph glyph-name="Ecircumflex" unicode="&#xca;" horiz-adv-x="563" 
d="M269 897h60l109 -143h-65l-74 83l-74 -83h-65zM85 680h427v-80h-340v-216h292v-80h-292v-224h340v-80h-427v680z" />
    <glyph glyph-name="Aacute" unicode="&#xc1;" horiz-adv-x="607" 
d="M361 888h88l-106 -144h-70zM267 680h82l240 -680h-89l-56 160h-276l-56 -160h-88zM417 240l-110 314l-111 -314h221z" />
    <glyph glyph-name="Edieresis" unicode="&#xcb;" horiz-adv-x="563" 
d="M157 869h77v-91h-77v91zM357 869h76v-91h-76v91zM85 680h427v-80h-340v-216h292v-80h-292v-224h340v-80h-427v680z" />
    <glyph glyph-name="Egrave" unicode="&#xc8;" horiz-adv-x="563" 
d="M179 888h88l88 -144h-70zM85 680h427v-80h-340v-216h292v-80h-292v-224h340v-80h-427v680z" />
    <glyph glyph-name="Iacute" unicode="&#xcd;" horiz-adv-x="257" 
d="M182 888h89l-106 -144h-71zM85 680h87v-680h-87v680z" />
    <glyph glyph-name="Icircumflex" unicode="&#xce;" horiz-adv-x="257" 
d="M100 897h60l109 -143h-65l-74 83l-74 -83h-65zM85 680h88v-680h-88v680z" />
    <glyph glyph-name="Idieresis" unicode="&#xcf;" horiz-adv-x="257" 
d="M-9 869h76v-92h-76v92zM191 869h76v-92h-76v92zM85 680h87v-680h-87v680z" />
    <glyph glyph-name="Igrave" unicode="&#xcc;" horiz-adv-x="257" 
d="M-6 888h88l88 -144h-70zM86 680h87v-680h-87v680z" />
    <glyph glyph-name="Oacute" unicode="&#xd3;" horiz-adv-x="618" 
d="M343 888h88l-106 -144h-70zM79 148q-19 58 -19 192t19 192q25 78 83.5 118.5t146.5 40.5t146.5 -40t83.5 -119q19 -54 19 -192t-19 -192q-26 -78 -84 -118.5t-146 -40.5t-146.5 40.5t-83.5 118.5zM455 172q14 47 14 168t-14 169q-35 102 -146 102t-145 -102
q-15 -45 -15 -169q0 -125 15 -168q34 -102 145 -102t146 102z" />
    <glyph glyph-name="Ocircumflex" unicode="&#xd4;" horiz-adv-x="618" 
d="M279 897h60l109 -143h-65l-74 83l-74 -83h-65zM79 148q-19 58 -19 192t19 192q25 78 83.5 118.5t146.5 40.5t146.5 -40t83.5 -119q19 -54 19 -192t-19 -192q-26 -78 -84 -118.5t-146 -40.5t-146.5 40.5t-83.5 118.5zM455 172q14 47 14 168t-14 169q-35 102 -146 102
t-145 -102q-15 -45 -15 -169q0 -125 15 -168q34 -102 145 -102t146 102z" />
    <glyph glyph-name="apple" unicode="&#xf8ff;" horiz-adv-x="477" 
d="M477 680v-680h-477v680h477zM428 46v588h-379v-588h379zM199 265q0 36 19 61l44 59q29 35 29 66q0 26 -16.5 43t-43.5 17q-28 0 -45 -16t-24 -51l-55 11q8 51 41.5 79.5t84.5 28.5t83.5 -32t32.5 -80q0 -43 -32 -84l-44 -59q-16 -22 -16 -48v-29h-58v34zM260 183v-69h-65
v69h65z" />
    <glyph glyph-name="Ograve" unicode="&#xd2;" horiz-adv-x="618" 
d="M187 888h88l88 -144h-70zM79 148q-19 58 -19 192t19 192q25 78 83.5 118.5t146.5 40.5t146.5 -40t83.5 -119q19 -54 19 -192t-19 -192q-26 -78 -84 -118.5t-146 -40.5t-146.5 40.5t-83.5 118.5zM455 172q14 47 14 168t-14 169q-35 102 -146 102t-145 -102
q-15 -45 -15 -169q0 -125 15 -168q34 -102 145 -102t146 102z" />
    <glyph glyph-name="Uacute" unicode="&#xda;" horiz-adv-x="639" 
d="M353 888h89l-106 -144h-71zM79 237v443h88v-442q0 -81 40 -124.5t112 -43.5q73 0 113.5 43.5t40.5 124.5v442h87v-443q0 -118 -63.5 -183t-177.5 -65q-112 0 -176 65t-64 183z" />
    <glyph glyph-name="Ucircumflex" unicode="&#xdb;" horiz-adv-x="639" 
d="M319 837l-73 -83h-66l109 143h60l110 -143h-66zM167 238q0 -81 40 -124.5t112 -43.5q73 0 113.5 43.5t40.5 124.5v442h87v-443q0 -118 -63.5 -183t-177.5 -65q-112 0 -176 65t-64 183v443h88v-442z" />
    <glyph glyph-name="Ugrave" unicode="&#xd9;" horiz-adv-x="639" 
d="M196 888h88l88 -144h-70zM167 238q0 -81 40 -124.5t112 -43.5q73 0 113.5 43.5t40.5 124.5v442h87v-443q0 -118 -63.5 -183t-177.5 -65q-112 0 -176 65t-64 183v443h88v-442z" />
    <glyph glyph-name="dotlessi" unicode="&#x131;" horiz-adv-x="248" 
d="M83 480h83v-480h-83v480z" />
    <glyph glyph-name="circumflex" unicode="&#x2c6;" horiz-adv-x="422" 
d="M212 640l-74 -83h-65l109 143h60l109 -143h-65z" />
    <glyph glyph-name="tilde" unicode="&#x2dc;" horiz-adv-x="422" 
d="M202 599q-30 18 -52 18q-14 0 -33.5 -10.5t-38.5 -28.5v62q15 21 35 31.5t40 10.5q25 0 63 -20q30 -18 53 -18q14 0 33 11t38 30v-66q-16 -20 -35.5 -30t-38.5 -10q-26 0 -64 20z" />
    <glyph glyph-name="macron" unicode="&#xaf;" horiz-adv-x="422" 
d="M75 666h271v-63h-271v63z" />
    <glyph glyph-name="breve" unicode="&#x2d8;" horiz-adv-x="422" 
d="M130 684q7 -33 28 -47.5t54 -14.5q69 0 84 62h53q-4 -57 -41.5 -89.5t-95.5 -32.5t-95.5 32.5t-39.5 89.5h53z" />
    <glyph glyph-name="dotaccent" unicode="&#x2d9;" horiz-adv-x="422" 
d="M172 680h77v-91h-77v91z" />
    <glyph glyph-name="ring" unicode="&#x2da;" horiz-adv-x="422" 
d="M304 629q0 -19 -6.5 -36.5t-19.5 -30.5t-31 -20t-36 -7q-19 0 -37 7t-30 20q-13 12 -20 29.5t-7 36.5q0 41 27 68q25 27 66 27q39 0 68 -27q26 -29 26 -67zM262 629q0 23 -15 38q-14 15 -37 15t-36 -15q-15 -15 -15 -38t15 -38q13 -15 36 -15t37 15q15 15 15 38z" />
    <glyph glyph-name="cedilla" unicode="&#xb8;" horiz-adv-x="417" 
d="M155 -161v58q33 0 48.5 23.5t15.5 58.5h60q0 -60 -33.5 -99.5t-90.5 -40.5z" />
    <glyph glyph-name="hungarumlaut" unicode="&#x2dd;" horiz-adv-x="422" 
d="M149 700h77l-89 -143h-65zM290 700h77l-89 -143h-65z" />
    <glyph glyph-name="ogonek" unicode="&#x2db;" horiz-adv-x="422" 
d="M212 -61q0 -22 19 -32t43 -9v-59q-51 0 -88 21q-37 19 -37 74q0 31 16 47t39 29h82q-39 -22 -56.5 -36t-17.5 -35z" />
    <glyph glyph-name="caron" unicode="&#x2c7;" horiz-adv-x="422" 
d="M242 555h-60l-109 144h65l74 -83l74 83h65z" />
    <glyph glyph-name="brokenbar" unicode="&#xa6;" horiz-adv-x="288" 
d="M109 740h70v-352h-70v352zM109 272h70v-356h-70v356z" />
    <glyph glyph-name="uni00AD" unicode="&#xad;" horiz-adv-x="379" 
d="M47 304h286v-75h-286v75z" />
    <glyph glyph-name="uni00B2" unicode="&#xb2;" horiz-adv-x="340" 
d="M297 731q0 -54 -44 -103l-125 -138h170v-60h-255v57l156 177q31 31 31 64q0 26 -15.5 41t-41.5 15q-54 0 -64 -61l-64 13q3 24 13.5 44t28 34t39.5 22t48 8q57 0 90 -32.5t33 -80.5z" />
    <glyph glyph-name="uni00B3" unicode="&#xb3;" horiz-adv-x="340" 
d="M38 519l62 17q10 -26 29 -39.5t43 -13.5q30 0 48 17.5t18 45.5t-19 45.5t-50 17.5h-29v60h25q30 0 46.5 15t16.5 43q0 27 -15.5 42t-43.5 15q-47 0 -65 -47l-59 14q8 43 41 68t84 25q58 0 91.5 -31t33.5 -82q0 -52 -47 -87q22 -9 39.5 -35.5t17.5 -61.5
q0 -57 -35.5 -90.5t-95.5 -33.5q-52 0 -88.5 25.5t-47.5 70.5z" />
    <glyph glyph-name="uni00B9" unicode="&#xb9;" horiz-adv-x="340" 
d="M158 757l-77 -51v74l81 56h63v-406h-67v327z" />
    <glyph glyph-name="onequarter" unicode="&#xbc;" horiz-adv-x="835" 
d="M574 691h67l-406 -702h-67zM172 602l-77 -52v74l82 56h62v-406h-67v328zM531 127h103v106h64v-106h43v-59h-43v-68h-64v68h-178v56l138 282h70z" />
    <glyph glyph-name="onehalf" unicode="&#xbd;" horiz-adv-x="870" 
d="M235 -11h-67l406 702h67zM239 680v-406h-67v328l-77 -52v74l82 56h62zM774 301q0 -56 -44 -103l-124 -138h170v-60h-255v57l156 177q30 33 30 64q0 26 -15 41t-41 15t-42 -14.5t-22 -46.5l-64 13q6 49 41.5 78.5t86.5 29.5q57 0 90 -32.5t33 -80.5z" />
    <glyph glyph-name="threequarters" unicode="&#xbe;" horiz-adv-x="906" 
d="M649 691h67l-407 -702h-67zM94 363l62 17q10 -26 29 -39.5t43 -13.5q30 0 48 17.5t18 45.5t-19 45.5t-50 17.5h-29v60h25q30 0 46.5 15t16.5 43q0 27 -15.5 42t-43.5 15q-47 0 -65 -47l-59 14q8 43 41 68t84 25q58 0 91.5 -31t33.5 -82q0 -52 -47 -87q22 -9 39.5 -35.5
t17.5 -61.5q0 -57 -35.5 -90.5t-95.5 -33.5q-52 0 -88.5 25.5t-47.5 70.5zM707 68h-178v56l138 282h70l-133 -279h103v106h64v-106h43v-59h-43v-68h-64v68z" />
    <glyph glyph-name="Eth" unicode="&#xd0;" horiz-adv-x="623" 
d="M85 309h-49v70h49v301h238q174 0 222 -144q18 -56 18 -196t-18 -195q-48 -145 -222 -145h-238v309zM305 80q123 0 155 95q14 39 14 165q0 127 -14 166q-31 94 -155 94h-133v-221h130v-70h-130v-229h133z" />
    <glyph glyph-name="Yacute" unicode="&#xdd;" horiz-adv-x="526" 
d="M310 888h88l-106 -144h-70zM223 279l-206 401h93l159 -307l157 307h90l-205 -401v-279h-88v279z" />
    <glyph glyph-name="Thorn" unicode="&#xde;" horiz-adv-x="592" 
d="M85 680h87v-127h164q49 0 89 -14t68 -40.5t43.5 -64t15.5 -83.5q0 -47 -15.5 -84t-43.5 -63.5t-68 -40.5t-89 -14h-164v-149h-87v680zM331 229q63 0 98.5 32.5t35.5 89.5t-35.5 89.5t-98.5 32.5h-159v-244h159z" />
    <glyph glyph-name="eth" unicode="&#xf0;" horiz-adv-x="516" 
d="M274 621l103 31l18 -60l-79 -24l31 -39q57 -72 85 -139q31 -69 31 -148q0 -75 -15 -123q-19 -61 -69.5 -95.5t-119.5 -34.5q-70 0 -119.5 33t-69.5 96q-17 51 -17 113q0 63 16 112q18 57 63 90.5t99 33.5q28 0 47 -5.5t38 -17.5l-78 101l-104 -32l-18 61l82 24l-63 82h94
zM149 321q-12 -35 -12 -91q0 -55 12 -91q24 -75 110 -75q40 0 68.5 19.5t40.5 55.5t12 91t-12 90q-25 76 -109 76q-85 0 -110 -75z" />
    <glyph glyph-name="yacute" unicode="&#xfd;" horiz-adv-x="476" 
d="M286 700h88l-106 -143h-70zM79 -180v76h28q30 0 47.5 15.5t33.5 57.5l17 45l-180 466h89l131 -361l127 361h86l-193 -518q-31 -83 -63 -112q-32 -30 -87 -30h-36z" />
    <glyph glyph-name="thorn" unicode="&#xfe;" horiz-adv-x="538" 
d="M83 680h83v-259q40 69 137 69q128 0 165 -115q17 -57 17 -135t-17 -135q-38 -116 -165 -116q-97 0 -137 70v-239h-83v860zM389 139q11 33 11 101t-11 101q-24 73 -106 73t-106 -73q-11 -33 -11 -101t11 -101q24 -73 106 -73t106 73z" />
    <glyph glyph-name="Amacron" unicode="&#x100;" horiz-adv-x="607" 
d="M170 855h272v-64h-272v64zM267 680h82l240 -680h-89l-56 160h-276l-56 -160h-88zM417 240l-110 314l-111 -314h221z" />
    <glyph glyph-name="amacron" unicode="&#x101;" horiz-adv-x="518" 
d="M394 603h-271v63h271v-63zM441 327v-327h-78v54q-18 -31 -54.5 -48t-88.5 -17q-75 0 -118 38t-43 107q0 147 187 147h115v42q0 52 -25.5 73.5t-89.5 21.5q-78 0 -124 -42l-38 62q59 52 169 52q101 0 144.5 -37.5t43.5 -125.5zM258 216q-120 0 -120 -80q0 -37 26 -56.5
t75 -19.5q58 0 90 25t32 70v61h-103z" />
    <glyph glyph-name="Abreve" unicode="&#x102;" horiz-adv-x="607" 
d="M170 884h53q8 -33 28.5 -48t54.5 -15q68 0 83 63h53q-4 -58 -41 -90.5t-95 -32.5t-95.5 33t-40.5 90zM267 680h82l240 -680h-89l-56 160h-276l-56 -160h-88zM417 240l-110 314l-111 -314h221z" />
    <glyph glyph-name="abreve" unicode="&#x103;" horiz-adv-x="518" 
d="M259 562q-58 0 -95.5 32.5t-40.5 89.5h54q7 -33 27.5 -47.5t54.5 -14.5q68 0 83 62h53q-4 -57 -41 -89.5t-95 -32.5zM441 327v-327h-78v54q-18 -31 -54.5 -48t-88.5 -17q-75 0 -118 38t-43 107q0 147 187 147h115v42q0 52 -25.5 73.5t-89.5 21.5q-78 0 -124 -42l-38 62
q59 52 169 52q101 0 144.5 -37.5t43.5 -125.5zM258 216q-120 0 -120 -80q0 -37 26 -56.5t75 -19.5q58 0 90 25t32 70v61h-103z" />
    <glyph glyph-name="Aogonek" unicode="&#x104;" horiz-adv-x="607" 
d="M576 -108v-59q-50 0 -87 21q-37 19 -37 73q0 29 14.5 48t33.5 25l-56 160h-276l-56 -160h-88l243 680h82l239 -680q-39 -11 -56 -27t-17 -40q0 -23 18 -32.5t43 -8.5zM417 240l-111 314l-110 -314h221z" />
    <glyph glyph-name="aogonek" unicode="&#x105;" horiz-adv-x="518" 
d="M370 -67q0 -23 18 -32.5t43 -8.5v-59q-50 0 -87 21q-37 19 -37 73q0 28 17.5 47t38.5 26v54q-18 -31 -54.5 -48t-88.5 -17q-75 0 -118 38t-43 107q0 147 187 147h115v42q0 52 -25.5 73.5t-89.5 21.5q-78 0 -124 -42l-38 62q59 52 169 52q101 0 144.5 -37.5t43.5 -125.5
v-327q-39 -12 -55 -27.5t-16 -39.5zM361 216h-103q-120 0 -120 -80q0 -37 26 -56.5t75 -19.5q58 0 90 25t32 70v61z" />
    <glyph glyph-name="Cacute" unicode="&#x106;" horiz-adv-x="566" 
d="M331 888h88l-106 -144h-70zM78 149q-18 55 -18 191q0 137 18 191q26 79 83.5 119.5t142.5 40.5q87 0 152 -48q64 -48 84 -158h-89q-15 67 -54 96.5t-93 29.5q-105 0 -141 -102q-14 -44 -14 -169q0 -124 14 -169q36 -101 141 -101q51 0 91 29t53 89h90q-9 -51 -31 -88.5
t-53 -62t-69.5 -36.5t-80.5 -12q-85 0 -142.5 40.5t-83.5 119.5z" />
    <glyph glyph-name="cacute" unicode="&#x107;" horiz-adv-x="473" 
d="M289 700h88l-106 -143h-70zM69 362q19 61 69 94.5t119 33.5q110 0 170 -90l-60 -48q-41 62 -110 62q-83 0 -107 -76q-12 -35 -12 -98q0 -65 12 -98q24 -76 107 -76q32 0 60.5 16t49.5 45l60 -48q-29 -43 -72.5 -66.5t-97.5 -23.5q-69 0 -119 34t-69 95q-15 48 -15 122
t15 122z" />
    <glyph glyph-name="Ccircumflex" unicode="&#x108;" horiz-adv-x="566" 
d="M272 897h60l109 -143h-65l-74 83l-74 -83h-65zM78 149q-18 55 -18 191q0 137 18 191q26 79 83.5 119.5t142.5 40.5q87 0 152 -48q64 -48 84 -158h-89q-15 67 -54 96.5t-93 29.5q-105 0 -141 -102q-14 -44 -14 -169q0 -124 14 -169q36 -101 141 -101q51 0 91 29t53 89h90
q-9 -51 -31 -88.5t-53 -62t-69.5 -36.5t-80.5 -12q-85 0 -142.5 40.5t-83.5 119.5z" />
    <glyph glyph-name="ccircumflex" unicode="&#x109;" horiz-adv-x="473" 
d="M256 640l-74 -83h-65l109 143h60l109 -143h-65zM69 362q19 61 69 94.5t119 33.5q110 0 170 -90l-60 -48q-41 62 -110 62q-83 0 -107 -76q-12 -35 -12 -98q0 -65 12 -98q24 -76 107 -76q32 0 60.5 16t49.5 45l60 -48q-29 -43 -72.5 -66.5t-97.5 -23.5q-69 0 -119 34
t-69 95q-15 48 -15 122t15 122z" />
    <glyph glyph-name="Cdotaccent" unicode="&#x10a;" horiz-adv-x="566" 
d="M263 869h77v-91h-77v91zM78 149q-18 55 -18 191q0 137 18 191q26 79 83.5 119.5t142.5 40.5q87 0 152 -48q64 -48 84 -158h-89q-15 67 -54 96.5t-93 29.5q-105 0 -141 -102q-14 -44 -14 -169q0 -124 14 -169q36 -101 141 -101q51 0 91 29t53 89h90q-9 -51 -31 -88.5
t-53 -62t-69.5 -36.5t-80.5 -12q-85 0 -142.5 40.5t-83.5 119.5z" />
    <glyph glyph-name="cdotaccent" unicode="&#x10b;" horiz-adv-x="473" 
d="M217 681h76v-92h-76v92zM69 362q19 61 69 94.5t119 33.5q110 0 170 -90l-60 -48q-41 62 -110 62q-83 0 -107 -76q-12 -35 -12 -98q0 -65 12 -98q24 -76 107 -76q32 0 60.5 16t49.5 45l60 -48q-29 -43 -72.5 -66.5t-97.5 -23.5q-69 0 -119 34t-69 95q-15 48 -15 122
t15 122z" />
    <glyph glyph-name="Ccaron" unicode="&#x10c;" horiz-adv-x="566" 
d="M163 896h65l73 -83l75 83h65l-109 -143h-61zM78 149q-18 55 -18 191q0 137 18 191q26 79 83.5 119.5t142.5 40.5q87 0 152 -48q64 -48 84 -158h-89q-15 67 -54 96.5t-93 29.5q-105 0 -141 -102q-14 -44 -14 -169q0 -124 14 -169q36 -101 141 -101q51 0 91 29t53 89h90
q-9 -51 -31 -88.5t-53 -62t-69.5 -36.5t-80.5 -12q-85 0 -142.5 40.5t-83.5 119.5z" />
    <glyph glyph-name="ccaron" unicode="&#x10d;" horiz-adv-x="473" 
d="M285 555h-60l-109 144h66l73 -83l74 83h65zM69 362q19 61 69 94.5t119 33.5q110 0 170 -90l-60 -48q-41 62 -110 62q-83 0 -107 -76q-12 -35 -12 -98q0 -65 12 -98q24 -76 107 -76q32 0 60.5 16t49.5 45l60 -48q-29 -43 -72.5 -66.5t-97.5 -23.5q-69 0 -119 34t-69 95
q-15 48 -15 122t15 122z" />
    <glyph glyph-name="Dcaron" unicode="&#x10e;" horiz-adv-x="623" 
d="M158 896h65l74 -83l74 83h65l-109 -143h-60zM85 680h238q174 0 222 -144q18 -56 18 -196t-18 -195q-48 -145 -222 -145h-238v680zM305 80q123 0 155 95q14 39 14 165q0 127 -14 166q-31 94 -155 94h-133v-520h133z" />
    <glyph glyph-name="dcaron" unicode="&#x10f;" horiz-adv-x="538" 
d="M373 59q-40 -70 -138 -70q-128 0 -164 116q-17 54 -17 135t17 135q36 115 164 115q97 0 138 -69v259h83v-680h-83v59zM503 680h80v-83l-80 -101v184zM361 139q12 34 12 101q0 66 -12 101q-22 73 -106 73q-81 0 -105 -73q-12 -35 -12 -101q0 -67 12 -101q24 -73 105 -73
q84 0 106 73z" />
    <glyph glyph-name="Dcroat" unicode="&#x110;" horiz-adv-x="623" 
d="M85 309h-49v70h49v301h238q174 0 222 -144q18 -56 18 -196t-18 -195q-48 -145 -222 -145h-238v309zM305 80q123 0 155 95q14 39 14 165q0 127 -14 166q-31 94 -155 94h-133v-221h130v-70h-130v-229h133z" />
    <glyph glyph-name="dcroat" unicode="&#x111;" horiz-adv-x="538" 
d="M373 59q-40 -70 -138 -70q-128 0 -164 116q-17 54 -17 135t17 135q36 115 164 115q97 0 138 -69v134h-137v66h137v59h83v-59h43v-66h-43v-555h-83v59zM361 139q12 34 12 101q0 66 -12 101q-22 73 -106 73q-81 0 -105 -73q-12 -35 -12 -101q0 -67 12 -101q24 -73 105 -73
q84 0 106 73z" />
    <glyph glyph-name="Emacron" unicode="&#x112;" horiz-adv-x="563" 
d="M157 855h272v-64h-272v64zM85 680h427v-80h-340v-216h292v-80h-292v-224h340v-80h-427v680z" />
    <glyph glyph-name="emacron" unicode="&#x113;" horiz-adv-x="512" 
d="M119 666h272v-63h-272v63zM69 120q-15 48 -15 120q0 74 15 122q19 61 68.5 94.5t118.5 33.5q70 0 119 -33.5t69 -94.5q15 -47 15 -146h-321q0 -43 8 -67q28 -84 122 -84q82 0 130 62l55 -49q-68 -89 -192 -89q-73 0 -122.5 34t-69.5 97zM367 342q-25 76 -111 76t-111 -76
q-7 -21 -7 -61h237q0 34 -8 61z" />
    <glyph glyph-name="Ebreve" unicode="&#x114;" horiz-adv-x="563" 
d="M160 884h54q7 -33 27.5 -48t54.5 -15q68 0 83 63h53q-4 -57 -41 -90t-95 -33t-95.5 33t-40.5 90zM85 680h427v-80h-340v-216h292v-80h-292v-224h340v-80h-427v680z" />
    <glyph glyph-name="ebreve" unicode="&#x115;" horiz-adv-x="512" 
d="M174 684q7 -33 28 -47.5t54 -14.5t54 14.5t29 47.5h54q-4 -57 -41.5 -89.5t-95.5 -32.5t-95.5 32.5t-39.5 89.5h53zM69 120q-15 48 -15 120q0 74 15 122q19 61 68.5 94.5t118.5 33.5q70 0 119 -33.5t69 -94.5q15 -47 15 -146h-321q0 -43 8 -67q28 -84 122 -84
q82 0 130 62l55 -49q-68 -89 -192 -89q-73 0 -122.5 34t-69.5 97zM367 342q-25 76 -111 76t-111 -76q-7 -21 -7 -61h237q0 34 -8 61z" />
    <glyph glyph-name="Edotaccent" unicode="&#x116;" horiz-adv-x="563" 
d="M259 869h77v-91h-77v91zM85 680h427v-80h-340v-216h292v-80h-292v-224h340v-80h-427v680z" />
    <glyph glyph-name="edotaccent" unicode="&#x117;" horiz-adv-x="512" 
d="M217 681h76v-92h-76v92zM69 120q-15 48 -15 120q0 74 15 122q19 61 68.5 94.5t118.5 33.5q70 0 119 -33.5t69 -94.5q15 -47 15 -146h-321q0 -43 8 -67q28 -84 122 -84q82 0 130 62l55 -49q-68 -89 -192 -89q-73 0 -122.5 34t-69.5 97zM367 342q-25 76 -111 76t-111 -76
q-7 -21 -7 -61h237q0 34 -8 61z" />
    <glyph glyph-name="Eogonek" unicode="&#x118;" horiz-adv-x="563" 
d="M172 600v-216h292v-80h-292v-224h340v-80h-16q-39 -12 -56 -28t-17 -39t17.5 -32.5t42.5 -8.5v-59q-26 0 -48.5 4.5t-39 15.5t-26.5 29t-10 45q0 29 14.5 48t33.5 25h-322v680h427v-80h-340z" />
    <glyph glyph-name="eogonek" unicode="&#x119;" horiz-adv-x="512" 
d="M398 127l55 -49q-28 -37 -66 -59q-23 -17 -38.5 -29t-23.5 -20q-14 -17 -14 -37q0 -23 18 -32.5t42 -8.5v-59q-50 0 -87 21q-37 19 -37 73q0 39 36 63l-22 -1q-73 0 -122.5 34t-69.5 97q-15 48 -15 120q0 74 15 122q19 61 68.5 94.5t118.5 33.5q70 0 119 -33.5t69 -94.5
q15 -47 15 -146h-321q0 -43 8 -67q28 -84 122 -84q82 0 130 62zM138 281h237q0 34 -8 61q-25 76 -111 76t-111 -76q-7 -21 -7 -61z" />
    <glyph glyph-name="Ecaron" unicode="&#x11a;" horiz-adv-x="563" 
d="M158 896h66l73 -83l74 83h66l-110 -143h-60zM85 680h427v-80h-340v-216h292v-80h-292v-224h340v-80h-427v680z" />
    <glyph glyph-name="ecaron" unicode="&#x11b;" horiz-adv-x="512" 
d="M285 555h-60l-108 144h65l73 -83l74 83h66zM69 120q-15 48 -15 120q0 74 15 122q19 61 68.5 94.5t118.5 33.5q70 0 119 -33.5t69 -94.5q15 -47 15 -146h-321q0 -43 8 -67q28 -84 122 -84q82 0 130 62l55 -49q-68 -89 -192 -89q-73 0 -122.5 34t-69.5 97zM367 342
q-25 76 -111 76t-111 -76q-7 -21 -7 -61h237q0 34 -8 61z" />
    <glyph glyph-name="Gcircumflex" unicode="&#x11c;" horiz-adv-x="618" 
d="M279 897h60l109 -143h-65l-74 83l-74 -83h-65zM79 148q-19 54 -19 192q0 139 19 192q25 79 83.5 119t148.5 40q93 0 158 -49.5t83 -156.5h-90q-14 67 -54.5 96.5t-97.5 29.5q-113 0 -147 -102q-14 -45 -14 -169q0 -123 14 -168q34 -102 147 -102q55 0 93.5 25.5
t54.5 73.5q14 42 14 114h-150v77h236v-60q0 -99 -17 -150q-24 -76 -84.5 -118.5t-145.5 -42.5q-88 0 -147 40.5t-85 118.5z" />
    <glyph glyph-name="gcircumflex" unicode="&#x11d;" horiz-adv-x="529" 
d="M393 557h-65l-74 83l-74 -83h-65l109 143h60zM364 421v59h83v-460q0 -103 -53 -157t-155 -54q-26 0 -51.5 6t-48.5 16.5t-42 24.5t-31 31l57 54q24 -26 55 -41t64 -15q122 0 122 131v58q-38 -68 -134 -68q-124 0 -162 115q-16 47 -16 127q0 79 16 126q38 116 162 116
q96 0 134 -69zM149 342q-13 -36 -13 -94q0 -59 13 -94q22 -73 101 -73q78 0 102 73q12 33 12 94q0 59 -12 94q-24 72 -102 72q-77 0 -101 -72z" />
    <glyph glyph-name="Gbreve" unicode="&#x11e;" horiz-adv-x="618" 
d="M173 884h54q7 -33 27.5 -48t54.5 -15q68 0 83 63h53q-4 -57 -41 -90t-95 -33t-95.5 33t-40.5 90zM79 148q-19 54 -19 192q0 139 19 192q25 79 83.5 119t148.5 40q93 0 158 -49.5t83 -156.5h-90q-14 67 -54.5 96.5t-97.5 29.5q-113 0 -147 -102q-14 -45 -14 -169
q0 -123 14 -168q34 -102 147 -102q55 0 93.5 25.5t54.5 73.5q14 42 14 114h-150v77h236v-60q0 -99 -17 -150q-24 -76 -84.5 -118.5t-145.5 -42.5q-88 0 -147 40.5t-85 118.5z" />
    <glyph glyph-name="gbreve" unicode="&#x11f;" horiz-adv-x="529" 
d="M255 562q-58 0 -95.5 32.5t-39.5 89.5h53q8 -33 28.5 -47.5t53.5 -14.5q69 0 84 62h53q-4 -57 -41.5 -89.5t-95.5 -32.5zM364 421v59h83v-460q0 -103 -53 -157t-155 -54q-26 0 -51.5 6t-48.5 16.5t-42 24.5t-31 31l57 54q24 -26 55 -41t64 -15q122 0 122 131v58
q-38 -68 -134 -68q-124 0 -162 115q-16 47 -16 127q0 79 16 126q38 116 162 116q96 0 134 -69zM149 342q-13 -36 -13 -94q0 -59 13 -94q22 -73 101 -73q78 0 102 73q12 33 12 94q0 59 -12 94q-24 72 -102 72q-77 0 -101 -72z" />
    <glyph glyph-name="Gdotaccent" unicode="&#x120;" horiz-adv-x="618" 
d="M270 869h77v-91h-77v91zM79 148q-19 54 -19 192q0 139 19 192q25 79 83.5 119t148.5 40q93 0 158 -49.5t83 -156.5h-90q-14 67 -54.5 96.5t-97.5 29.5q-113 0 -147 -102q-14 -45 -14 -169q0 -123 14 -168q34 -102 147 -102q55 0 93.5 25.5t54.5 73.5q14 42 14 114h-150
v77h236v-60q0 -99 -17 -150q-24 -76 -84.5 -118.5t-145.5 -42.5q-88 0 -147 40.5t-85 118.5z" />
    <glyph glyph-name="gdotaccent" unicode="&#x121;" horiz-adv-x="529" 
d="M217 680h76v-91h-76v91zM66 -113l57 54q24 -26 55 -41t64 -15q122 0 122 131v58q-38 -68 -134 -68q-124 0 -162 115q-16 47 -16 127q0 79 16 126q38 116 162 116q96 0 134 -69v59h83v-460q0 -103 -53 -157t-155 -54q-26 0 -51.5 6t-48.5 16.5t-42 24.5t-31 31zM352 154
q12 33 12 94q0 59 -12 94q-24 72 -102 72q-77 0 -101 -72q-13 -36 -13 -94q0 -59 13 -94q22 -73 101 -73q78 0 102 73z" />
    <glyph glyph-name="Gcommaaccent" unicode="&#x122;" horiz-adv-x="618" 
d="M552 485h-90q-14 67 -54.5 96.5t-97.5 29.5q-113 0 -147 -102q-14 -45 -14 -169q0 -123 14 -168q34 -102 147 -102q55 0 93.5 25.5t54.5 73.5q14 42 14 114h-150v77h236v-60q0 -99 -17 -150q-24 -76 -84.5 -118.5t-145.5 -42.5q-88 0 -147 40.5t-85 118.5q-19 54 -19 192
q0 139 19 192q25 79 83.5 119t148.5 40q93 0 158 -49.5t83 -156.5zM348 -136l-80 -101v182h80v-81z" />
    <glyph glyph-name="gcommaaccent" unicode="&#x123;" horiz-adv-x="529" 
d="M214 652l80 101v-181h-80v80zM66 -113l57 54q24 -26 55 -41t64 -15q122 0 122 131v58q-38 -68 -134 -68q-124 0 -162 115q-16 47 -16 127q0 79 16 126q38 116 162 116q96 0 134 -69v59h83v-460q0 -103 -53 -157t-155 -54q-26 0 -51.5 6t-48.5 16.5t-42 24.5t-31 31z
M352 154q12 33 12 94q0 59 -12 94q-24 72 -102 72q-77 0 -101 -72q-13 -36 -13 -94q0 -59 13 -94q22 -73 101 -73q78 0 102 73z" />
    <glyph glyph-name="Hcircumflex" unicode="&#x124;" horiz-adv-x="654" 
d="M296 897h60l109 -143h-65l-74 83l-74 -83h-65zM85 680h87v-296h310v296h87v-680h-87v304h-310v-304h-87v680z" />
    <glyph glyph-name="hcircumflex" unicode="&#x125;" horiz-adv-x="545" 
d="M277 837l-74 -83h-65l109 143h60l109 -143h-65zM385 290q0 60 -27 92t-81 32q-51 0 -81 -32.5t-30 -86.5v-295h-83v680h83v-258q38 68 135 68q78 0 122.5 -48t44.5 -132v-310h-83v290z" />
    <glyph glyph-name="Hbar" unicode="&#x126;" horiz-adv-x="654" 
d="M85 497h-54v66h54v117h87v-117h310v117h87v-117h54v-66h-54v-497h-87v304h-310v-304h-87v497zM482 384v113h-310v-113h310z" />
    <glyph glyph-name="hbar" unicode="&#x127;" horiz-adv-x="545" 
d="M385 290q0 60 -27 92t-81 32q-51 0 -81 -32.5t-30 -86.5v-295h-83v555h-44v66h44v59h83v-59h136v-66h-136v-133q39 68 135 68q78 0 122.5 -48t44.5 -132v-310h-83v290z" />
    <glyph glyph-name="Itilde" unicode="&#x128;" horiz-adv-x="257" 
d="M-2 831q15 21 35 31.5t40 10.5q25 0 63 -20q30 -18 53 -18q14 0 33 11t38 30v-66q-16 -20 -35.5 -30t-38.5 -10q-26 0 -64 20q-30 18 -52 18q-14 0 -33.5 -10.5t-38.5 -28.5v62zM85 680h87v-680h-87v680z" />
    <glyph glyph-name="itilde" unicode="&#x129;" horiz-adv-x="248" 
d="M118 600q-32 18 -53 18q-14 0 -33.5 -10.5t-37.5 -29.5v62q15 22 34.5 32.5t39.5 10.5q26 0 64 -20q28 -18 53 -18q14 0 33 10.5t38 29.5v-65q-16 -21 -36 -31t-39 -10q-27 0 -63 21zM83 480h83v-480h-83v480z" />
    <glyph glyph-name="Imacron" unicode="&#x12a;" horiz-adv-x="257" 
d="M-7 855h272v-64h-272v64zM85 680h87v-680h-87v680z" />
    <glyph glyph-name="imacron" unicode="&#x12b;" horiz-adv-x="248" 
d="M-11 666h271v-63h-271v63zM83 480h83v-480h-83v480z" />
    <glyph glyph-name="Ibreve" unicode="&#x12c;" horiz-adv-x="257" 
d="M-5 884h53q8 -33 28.5 -48t54.5 -15q68 0 83 63h53q-4 -58 -41 -90.5t-95 -32.5t-96 33t-40 90zM85 680h87v-680h-87v680z" />
    <glyph glyph-name="ibreve" unicode="&#x12d;" horiz-adv-x="248" 
d="M43 685q7 -33 27.5 -48t54.5 -15q68 0 83 63h53q-4 -57 -41 -90t-95 -33t-95.5 33t-40.5 90h54zM83 480h83v-480h-83v480z" />
    <glyph glyph-name="Iogonek" unicode="&#x12e;" horiz-adv-x="257" 
d="M172 680v-680q-39 -12 -55.5 -27.5t-16.5 -39.5q0 -23 18 -32.5t42 -8.5v-59q-49 0 -87 20q-36 19 -36 74q0 29 14.5 48t33.5 25v680h87z" />
    <glyph glyph-name="iogonek" unicode="&#x12f;" horiz-adv-x="248" 
d="M168 680v-91h-88v91h88zM83 480h83v-480q-39 -12 -56.5 -28t-17.5 -39t18 -32.5t42 -8.5v-59q-49 0 -86 21q-37 19 -37 73q0 28 16.5 47t36.5 26h1v480z" />
    <glyph glyph-name="Idotaccent" unicode="&#x130;" horiz-adv-x="0" 
d="M90 869h79v-91h-79v91zM85 680h87v-680h-87v680z" />
    <glyph glyph-name="IJ" unicode="&#x132;" horiz-adv-x="747" 
d="M85 680h87v-680h-87v680zM281 67l65 52q48 -49 107 -49q127 0 127 147v463h87v-463q0 -111 -57 -169.5t-160 -58.5q-51 0 -95.5 20t-73.5 58z" />
    <glyph glyph-name="ij" unicode="&#x133;" horiz-adv-x="496" 
d="M80 680h88v-91h-88v91zM328 680h88v-91h-88v91zM83 480h83v-480h-83v480zM242 -104h25q36 0 50 13.5t14 51.5v519h83v-518q0 -75 -34 -108.5t-109 -33.5h-29v76z" />
    <glyph glyph-name="Jcircumflex" unicode="&#x134;" horiz-adv-x="491" 
d="M342 897h60l109 -143h-65l-74 83l-74 -83h-65zM31 67l65 52q48 -49 107 -49q127 0 127 147v463h87v-463q0 -111 -57 -169.5t-160 -58.5q-51 0 -95.5 20t-73.5 58z" />
    <glyph glyph-name="jcircumflex" unicode="&#x135;" horiz-adv-x="248" 
d="M126 640l-74 -83h-66l110 143h60l109 -143h-65zM-7 -104h26q36 0 50 13.5t14 51.5v519h83v-518q0 -75 -34 -108.5t-109 -33.5h-30v76z" />
    <glyph glyph-name="Kcommaaccent" unicode="&#x136;" horiz-adv-x="615" 
d="M85 680h87v-366l298 366h104l-223 -267l240 -413h-101l-196 344l-122 -146v-198h-87v680zM269 -55h80v-81l-80 -101v182z" />
    <glyph glyph-name="kcommaaccent" unicode="&#x137;" horiz-adv-x="511" 
d="M166 245l199 235h94l-156 -182l183 -298h-94l-143 235l-83 -98v-137h-83v680h83v-435zM300 -136l-80 -101v182h80v-81z" />
    <glyph glyph-name="kgreenlandic" unicode="&#x138;" horiz-adv-x="511" 
d="M249 235l-83 -98v-137h-83v480h83v-235l198 235h95l-156 -182l183 -298h-94z" />
    <glyph glyph-name="Lacute" unicode="&#x139;" horiz-adv-x="538" 
d="M190 888h89l-106 -144h-71zM85 680h87v-600h340v-80h-427v680z" />
    <glyph glyph-name="lacute" unicode="&#x13a;" horiz-adv-x="277" 
d="M174 888h89l-106 -144h-71zM197 -5q-63 0 -89.5 30t-26.5 96v559h83v-555q0 -29 11 -41t36 -12h29v-77h-43z" />
    <glyph glyph-name="Lcommaaccent" unicode="&#x13b;" horiz-adv-x="538" 
d="M85 680h87v-600h340v-80h-427v680zM257 -55h80v-81l-80 -101v182z" />
    <glyph glyph-name="lcommaaccent" unicode="&#x13c;" horiz-adv-x="277" 
d="M197 -5q-63 0 -89.5 30t-26.5 96v559h83v-555q0 -29 11 -41t36 -12h29v-77h-43zM123 -55h80v-81l-80 -101v182z" />
    <glyph glyph-name="Lcaron" unicode="&#x13d;" horiz-adv-x="538" 
d="M85 680h87v-600h340v-80h-427v680zM247 680h80v-80l-80 -101v181z" />
    <glyph glyph-name="lcaron" unicode="&#x13e;" horiz-adv-x="277" 
d="M197 -5q-63 0 -89.5 30t-26.5 96v559h83v-555q0 -29 11 -41t36 -12h29v-77h-43zM212 680h80v-80l-80 -101v181z" />
    <glyph glyph-name="Ldot" unicode="&#x13f;" horiz-adv-x="538" 
d="M85 680h87v-600h340v-80h-427v680zM352 376h76v-92h-76v92z" />
    <glyph glyph-name="ldot" unicode="&#x140;" horiz-adv-x="326" 
d="M197 -5q-63 0 -89.5 30t-26.5 96v559h83v-555q0 -29 11 -41t36 -12h29v-77h-43zM240 377h77v-91h-77v91z" />
    <glyph glyph-name="Lslash" unicode="&#x141;" horiz-adv-x="538" 
d="M85 275l-64 -32v78l64 33v326h87v-283l153 79v-79l-153 -78v-239h340v-80h-427v275z" />
    <glyph glyph-name="lslash" unicode="&#x142;" horiz-adv-x="277" 
d="M164 341v-216q0 -29 11 -41t36 -12h29v-77h-43q-63 0 -89.5 30t-26.5 96v182l-46 -24v74l46 24v303h83v-265l76 39v-74z" />
    <glyph glyph-name="Nacute" unicode="&#x143;" horiz-adv-x="654" 
d="M334 744h-71l88 144h89zM570 0h-86l-317 531v-531h-82v680h85l318 -530v530h82v-680z" />
    <glyph glyph-name="nacute" unicode="&#x144;" horiz-adv-x="545" 
d="M295 700h90l-107 -143h-70zM385 290q0 60 -27 92t-81 32q-51 0 -81 -32.5t-30 -86.5v-295h-83v480h83v-58q38 68 135 68q78 0 122.5 -48t44.5 -132v-310h-83v290z" />
    <glyph glyph-name="Ncommaaccent" unicode="&#x145;" horiz-adv-x="654" 
d="M570 0h-86l-317 531v-531h-82v680h85l318 -530v530h82v-680zM370 -136l-80 -101v182h80v-81z" />
    <glyph glyph-name="ncommaaccent" unicode="&#x146;" horiz-adv-x="545" 
d="M385 290q0 60 -27 92t-81 32q-51 0 -81 -32.5t-30 -86.5v-295h-83v480h83v-58q38 68 135 68q78 0 122.5 -48t44.5 -132v-310h-83v290zM233 -55h80v-81l-80 -101v182z" />
    <glyph glyph-name="Ncaron" unicode="&#x147;" horiz-adv-x="654" 
d="M356 752h-60l-109 144h65l74 -83l74 83h65zM570 0h-86l-317 531v-531h-82v680h85l318 -530v530h82v-680z" />
    <glyph glyph-name="ncaron" unicode="&#x148;" horiz-adv-x="545" 
d="M302 555h-60l-109 144h65l74 -83l74 83h65zM385 290q0 60 -27 92t-81 32q-51 0 -81 -32.5t-30 -86.5v-295h-83v480h83v-58q38 68 135 68q78 0 122.5 -48t44.5 -132v-310h-83v290z" />
    <glyph glyph-name="napostrophe" unicode="&#x149;" horiz-adv-x="545" 
d="M8 680h80v-80l-80 -101v181zM385 290q0 60 -27 92t-81 32q-51 0 -81 -32.5t-30 -86.5v-295h-83v480h83v-58q38 68 135 68q78 0 122.5 -48t44.5 -132v-310h-83v290z" />
    <glyph glyph-name="Eng" unicode="&#x14a;" horiz-adv-x="654" 
d="M375 -100h27q48 0 66.5 21.5t18.5 73.5l-320 536v-531h-82v680h85l318 -529v529h82v-693q0 -167 -164 -167h-31v80z" />
    <glyph glyph-name="eng" unicode="&#x14b;" horiz-adv-x="545" 
d="M295 -180v76h26q36 0 50 14t14 51v329q0 60 -27 92t-81 32q-51 0 -81 -32.5t-30 -86.5v-295h-83v480h83v-58q38 68 135 68q78 0 122.5 -48t44.5 -132v-348q0 -75 -34 -108.5t-109 -33.5h-30z" />
    <glyph glyph-name="Omacron" unicode="&#x14c;" horiz-adv-x="618" 
d="M171 855h272v-64h-272v64zM79 148q-19 58 -19 192t19 192q25 78 83.5 118.5t146.5 40.5t146.5 -40t83.5 -119q19 -54 19 -192t-19 -192q-26 -78 -84 -118.5t-146 -40.5t-146.5 40.5t-83.5 118.5zM455 172q14 47 14 168t-14 169q-35 102 -146 102t-145 -102
q-15 -45 -15 -169q0 -125 15 -168q34 -102 145 -102t146 102z" />
    <glyph glyph-name="omacron" unicode="&#x14d;" horiz-adv-x="516" 
d="M121 666h272v-63h-272v63zM70 118q-16 48 -16 122t16 122q20 61 69 94.5t119 33.5t120 -33.5t69 -94.5q16 -48 16 -122t-16 -122q-20 -61 -69.5 -95t-119.5 -34t-119 34t-69 95zM367 142q11 33 11 98t-11 98q-27 76 -109 76q-83 0 -108 -76q-12 -35 -12 -98q0 -64 12 -98
q25 -76 108 -76q82 0 109 76z" />
    <glyph glyph-name="Obreve" unicode="&#x14e;" horiz-adv-x="618" 
d="M172 884h53q8 -33 28.5 -48t54.5 -15q68 0 83 63h53q-4 -58 -41 -90.5t-95 -32.5t-95.5 33t-40.5 90zM79 148q-19 58 -19 192t19 192q25 78 83.5 118.5t146.5 40.5t146.5 -40t83.5 -119q19 -54 19 -192t-19 -192q-26 -78 -84 -118.5t-146 -40.5t-146.5 40.5t-83.5 118.5z
M455 172q14 47 14 168t-14 169q-35 102 -146 102t-145 -102q-15 -45 -15 -169q0 -125 15 -168q34 -102 145 -102t146 102z" />
    <glyph glyph-name="obreve" unicode="&#x14f;" horiz-adv-x="516" 
d="M175 685q8 -33 28.5 -48t53.5 -15q69 0 84 63h53q-4 -57 -41.5 -90t-95.5 -33t-95.5 33t-39.5 90h53zM70 118q-16 48 -16 122t16 122q20 61 69 94.5t119 33.5t120 -33.5t69 -94.5q16 -48 16 -122t-16 -122q-20 -61 -69.5 -95t-119.5 -34t-119 34t-69 95zM367 142
q11 33 11 98t-11 98q-27 76 -109 76q-83 0 -108 -76q-12 -35 -12 -98q0 -64 12 -98q25 -76 108 -76q82 0 109 76z" />
    <glyph glyph-name="Ohungarumlaut" unicode="&#x150;" horiz-adv-x="618" 
d="M271 890h77l-89 -144h-65zM412 890h77l-89 -144h-65zM79 148q-19 58 -19 192t19 192q25 78 83.5 118.5t146.5 40.5t146.5 -40t83.5 -119q19 -54 19 -192t-19 -192q-26 -78 -84 -118.5t-146 -40.5t-146.5 40.5t-83.5 118.5zM455 172q14 47 14 168t-14 169
q-35 102 -146 102t-145 -102q-15 -45 -15 -169q0 -125 15 -168q34 -102 145 -102t146 102z" />
    <glyph glyph-name="ohungarumlaut" unicode="&#x151;" horiz-adv-x="516" 
d="M229 700h77l-89 -143h-65zM370 700h77l-89 -143h-65zM70 118q-16 48 -16 122t16 122q20 61 69 94.5t119 33.5t120 -33.5t69 -94.5q16 -48 16 -122t-16 -122q-20 -61 -69.5 -95t-119.5 -34t-119 34t-69 95zM367 142q11 33 11 98t-11 98q-27 76 -109 76q-83 0 -108 -76
q-12 -35 -12 -98q0 -64 12 -98q25 -76 108 -76q82 0 109 76z" />
    <glyph glyph-name="Racute" unicode="&#x154;" horiz-adv-x="617" 
d="M318 888h89l-106 -144h-71zM85 680h255q47 0 86 -14.5t67 -40t43.5 -61.5t15.5 -79q0 -69 -35.5 -117t-98.5 -67l152 -301h-99l-142 290h-157v-290h-87v680zM338 370q60 0 93.5 30.5t33.5 84.5t-33.5 84.5t-93.5 30.5h-166v-230h166z" />
    <glyph glyph-name="racute" unicode="&#x155;" horiz-adv-x="410" 
d="M247 700h89l-106 -143h-70zM83 480h83v-64q35 74 127 74q64 0 106 -43l-47 -62q-41 29 -83 29q-51 0 -77 -37t-26 -104v-273h-83v480z" />
    <glyph glyph-name="Rcommaaccent" unicode="&#x156;" horiz-adv-x="617" 
d="M85 680h255q47 0 86 -14.5t67 -40t43.5 -61.5t15.5 -79q0 -69 -35.5 -117t-98.5 -67l152 -301h-99l-142 290h-157v-290h-87v680zM338 370q60 0 93.5 30.5t33.5 84.5t-33.5 84.5t-93.5 30.5h-166v-230h166zM269 -55h80v-81l-80 -101v182z" />
    <glyph glyph-name="rcommaaccent" unicode="&#x157;" horiz-adv-x="410" 
d="M83 480h83v-64q35 74 127 74q64 0 106 -43l-47 -62q-41 29 -83 29q-51 0 -77 -37t-26 -104v-273h-83v480zM84 -55h80v-81l-80 -101v182z" />
    <glyph glyph-name="Rcaron" unicode="&#x158;" horiz-adv-x="617" 
d="M149 896h65l74 -83l74 83h65l-109 -144h-60zM85 680h255q47 0 86 -14.5t67 -40t43.5 -61.5t15.5 -79q0 -69 -35.5 -117t-98.5 -67l152 -301h-99l-142 290h-157v-290h-87v680zM338 370q60 0 93.5 30.5t33.5 84.5t-33.5 84.5t-93.5 30.5h-166v-230h166z" />
    <glyph glyph-name="rcaron" unicode="&#x159;" horiz-adv-x="410" 
d="M258 555h-60l-109 144h65l74 -83l74 83h65zM83 480h83v-64q35 74 127 74q64 0 106 -43l-47 -62q-41 29 -83 29q-51 0 -77 -37t-26 -104v-273h-83v480z" />
    <glyph glyph-name="Sacute" unicode="&#x15a;" horiz-adv-x="592" 
d="M336 888h89l-106 -144h-71zM162 14q-68 26 -111 67l55 66q94 -77 198 -77q70 0 111 32t41 86q0 48 -33 76t-111 37l-33 5q-201 27 -201 187q0 90 60 144q61 54 162 54q126 0 215 -68l-45 -69q-42 28 -86.5 42.5t-86.5 14.5q-61 0 -95.5 -30.5t-34.5 -81.5
q0 -46 34.5 -73.5t107.5 -37.5l34 -4q201 -27 201 -190q0 -47 -17 -84.5t-48.5 -64.5t-78 -41.5t-104.5 -14.5q-72 0 -134 25z" />
    <glyph glyph-name="sacute" unicode="&#x15b;" horiz-adv-x="490" 
d="M288 700h89l-106 -143h-70zM50 67l52 57q74 -62 156 -62q51 0 79 20t28 55q0 31 -20.5 47t-74.5 21l-50 5q-143 15 -143 135q0 69 46 107t131 38q51 0 93.5 -13.5t84.5 -44.5l-45 -57q-64 43 -137 43q-45 0 -68.5 -18t-23.5 -49q0 -30 21.5 -45.5t72.5 -20.5l50 -5
q144 -14 144 -134q0 -73 -51 -115t-142 -42q-119 0 -203 78z" />
    <glyph glyph-name="Scircumflex" unicode="&#x15c;" horiz-adv-x="592" 
d="M273 897h60l109 -143h-65l-74 83l-74 -83h-65zM162 14q-68 26 -111 67l55 66q94 -77 198 -77q70 0 111 32t41 86q0 48 -33 76t-111 37l-33 5q-201 27 -201 187q0 90 60 144q61 54 162 54q126 0 215 -68l-45 -69q-42 28 -86.5 42.5t-86.5 14.5q-61 0 -95.5 -30.5
t-34.5 -81.5q0 -46 34.5 -73.5t107.5 -37.5l34 -4q201 -27 201 -190q0 -47 -17 -84.5t-48.5 -64.5t-78 -41.5t-104.5 -14.5q-72 0 -134 25z" />
    <glyph glyph-name="scircumflex" unicode="&#x15d;" horiz-adv-x="490" 
d="M252 640l-73 -83h-66l109 143h60l110 -143h-66zM50 67l52 57q74 -62 156 -62q51 0 79 20t28 55q0 31 -20.5 47t-74.5 21l-50 5q-143 15 -143 135q0 69 46 107t131 38q51 0 93.5 -13.5t84.5 -44.5l-45 -57q-64 43 -137 43q-45 0 -68.5 -18t-23.5 -49q0 -30 21.5 -45.5
t72.5 -20.5l50 -5q144 -14 144 -134q0 -73 -51 -115t-142 -42q-119 0 -203 78z" />
    <glyph glyph-name="Scedilla" unicode="&#x15e;" horiz-adv-x="592" 
d="M162 14q-68 26 -111 67l55 66q94 -77 198 -77q70 0 111 32t41 86q0 48 -33 76t-111 37l-33 5q-201 27 -201 187q0 90 60 144q61 54 162 54q126 0 215 -68l-45 -69q-42 28 -86.5 42.5t-86.5 14.5q-61 0 -95.5 -30.5t-34.5 -81.5q0 -46 34.5 -73.5t107.5 -37.5l34 -4
q201 -27 201 -190q0 -94 -64 -149.5t-184 -55.5q-72 0 -134 25zM212 -161v58q33 0 48.5 23.5t15.5 58.5h60q0 -60 -33.5 -99.5t-90.5 -40.5z" />
    <glyph glyph-name="scedilla" unicode="&#x15f;" horiz-adv-x="490" 
d="M432 432l-45 -57q-64 43 -137 43q-45 0 -68.5 -18t-23.5 -49q0 -30 21.5 -45.5t72.5 -20.5l50 -5q144 -14 144 -134q0 -73 -51 -115t-142 -42q-119 0 -203 78l52 57q74 -62 156 -62q51 0 79 20t28 55q0 31 -20.5 47t-74.5 21l-50 5q-143 15 -143 135q0 69 46 107t131 38
q51 0 93.5 -13.5t84.5 -44.5zM165 -161v58q33 0 48.5 23.5t15.5 58.5h60q0 -60 -33.5 -99.5t-90.5 -40.5z" />
    <glyph glyph-name="Scaron" unicode="&#x160;" horiz-adv-x="592" 
d="M164 896h65l74 -83l74 83h65l-109 -144h-60zM162 14q-68 26 -111 67l55 66q94 -77 198 -77q70 0 111 32t41 86q0 48 -33 76t-111 37l-33 5q-201 27 -201 187q0 90 60 144q61 54 162 54q126 0 215 -68l-45 -69q-42 28 -86.5 42.5t-86.5 14.5q-61 0 -95.5 -30.5
t-34.5 -81.5q0 -46 34.5 -73.5t107.5 -37.5l34 -4q201 -27 201 -190q0 -47 -17 -84.5t-48.5 -64.5t-78 -41.5t-104.5 -14.5q-72 0 -134 25z" />
    <glyph glyph-name="scaron" unicode="&#x161;" horiz-adv-x="490" 
d="M283 555h-60l-109 144h65l74 -83l74 83h65zM50 67l52 57q74 -62 156 -62q51 0 79 20t28 55q0 31 -20.5 47t-74.5 21l-50 5q-143 15 -143 135q0 69 46 107t131 38q51 0 93.5 -13.5t84.5 -44.5l-45 -57q-64 43 -137 43q-45 0 -68.5 -18t-23.5 -49q0 -30 21.5 -45.5
t72.5 -20.5l50 -5q144 -14 144 -134q0 -73 -51 -115t-142 -42q-119 0 -203 78z" />
    <glyph glyph-name="uni0162" unicode="&#x162;" horiz-adv-x="538" 
d="M225 600h-203v80h494v-80h-203v-600h-88v600zM229 -55h80v-81l-80 -101v182z" />
    <glyph glyph-name="uni0163" unicode="&#x163;" horiz-adv-x="316" 
d="M222 -5q-69 0 -99 32t-30 104v281h-57v68h57v150h83v-150h93v-68h-93v-278q0 -36 13.5 -49t47.5 -13h32v-77h-47zM141 -55h80v-81l-80 -101v182z" />
    <glyph glyph-name="Tcaron" unicode="&#x164;" horiz-adv-x="538" 
d="M129 896h66l73 -83l74 83h66l-110 -144h-60zM225 600h-203v80h494v-80h-203v-600h-88v600z" />
    <glyph glyph-name="tcaron" unicode="&#x165;" horiz-adv-x="316" 
d="M327 680v-80l-80 -101v181h80zM176 630v-150h93v-68h-93v-278q0 -36 13.5 -49t47.5 -13h32v-77h-47q-69 0 -99 32t-30 104v281h-57v68h57v150h83z" />
    <glyph glyph-name="Tbar" unicode="&#x166;" horiz-adv-x="538" 
d="M225 368h-118v74h118v158h-203v80h494v-80h-203v-158h118v-74h-118v-368h-88v368z" />
    <glyph glyph-name="tbar" unicode="&#x167;" horiz-adv-x="316" 
d="M222 -5q-69 0 -99 32t-30 104v144h-47v64h47v73h-57v68h57v150h83v-150h93v-68h-93v-73h81v-64h-81v-141q0 -36 13.5 -49t47.5 -13h32v-77h-47z" />
    <glyph glyph-name="Utilde" unicode="&#x168;" horiz-adv-x="639" 
d="M313 790q-32 18 -53 18q-14 0 -33.5 -10.5t-37.5 -28.5v62q15 21 34.5 31.5t39.5 10.5q26 0 64 -20q28 -18 53 -18q14 0 33 11t38 30v-66q-17 -20 -36.5 -30t-38.5 -10q-25 0 -63 20zM167 238q0 -81 40 -124.5t112 -43.5q73 0 113.5 43.5t40.5 124.5v442h87v-443
q0 -118 -63.5 -183t-177.5 -65q-112 0 -176 65t-64 183v443h88v-442z" />
    <glyph glyph-name="utilde" unicode="&#x169;" horiz-adv-x="540" 
d="M262 599q-32 18 -53 18q-14 0 -33.5 -10.5t-37.5 -28.5v62q15 21 34.5 31.5t39.5 10.5q26 0 64 -20q28 -18 53 -18q14 0 33 11t38 30v-66q-17 -20 -36.5 -30t-38.5 -10q-25 0 -63 20zM374 57q-41 -68 -133 -68q-78 0 -121.5 48.5t-43.5 132.5v310h83v-290q0 -60 27 -92
t79 -32q49 0 79 32t30 86v296h83v-480h-83v57z" />
    <glyph glyph-name="Umacron" unicode="&#x16a;" horiz-adv-x="639" 
d="M184 855h271v-64h-271v64zM167 238q0 -81 40 -124.5t112 -43.5q73 0 113.5 43.5t40.5 124.5v442h87v-443q0 -59 -16.5 -105t-48 -77.5t-76 -48.5t-100.5 -17q-112 0 -176 65t-64 183v443h88v-442z" />
    <glyph glyph-name="umacron" unicode="&#x16b;" horiz-adv-x="540" 
d="M133 666h271v-63h-271v63zM374 57q-41 -68 -133 -68q-78 0 -121.5 48.5t-43.5 132.5v310h83v-290q0 -60 27 -92t79 -32q49 0 79 32t30 86v296h83v-480h-83v57z" />
    <glyph glyph-name="Ubreve" unicode="&#x16c;" horiz-adv-x="635" 
d="M180 884h53q13 -63 82 -63t84 63h53q-4 -58 -41.5 -90.5t-95.5 -32.5t-95.5 33t-39.5 90zM75 237v443h88v-442q0 -81 40 -124.5t112 -43.5q73 0 113.5 43.5t40.5 124.5v442h87v-443q0 -118 -63.5 -183t-177.5 -65q-112 0 -176 65t-64 183z" />
    <glyph glyph-name="ubreve" unicode="&#x16d;" horiz-adv-x="540" 
d="M187 685q13 -63 82 -63t84 63h53q-4 -58 -41.5 -90.5t-95.5 -32.5t-95.5 33t-39.5 90h53zM374 57q-41 -68 -133 -68q-78 0 -121.5 48.5t-43.5 132.5v310h83v-290q0 -60 27 -92t79 -32q49 0 79 32t30 86v296h83v-480h-83v57z" />
    <glyph glyph-name="Uring" unicode="&#x16e;" horiz-adv-x="639" 
d="M413 823q0 -40 -27 -67q-13 -13 -30.5 -19.5t-36.5 -6.5q-41 0 -67 26q-27 27 -27 67t27 67q13 13 31 20t36 7q40 0 67 -27t27 -67zM370 823q0 21 -14 38q-15 15 -37 15t-37 -15q-14 -17 -14 -38t14 -38q15 -15 37 -15t37 15q14 17 14 38zM167 238q0 -81 40 -124.5
t112 -43.5q73 0 113.5 43.5t40.5 124.5v442h87v-443q0 -118 -63.5 -183t-177.5 -65q-112 0 -176 65t-64 183v443h88v-442z" />
    <glyph glyph-name="uring" unicode="&#x16f;" horiz-adv-x="540" 
d="M362 629q0 -19 -6.5 -36.5t-19.5 -30.5q-27 -27 -67 -27q-19 0 -37 7t-30 20q-13 12 -20 30t-7 37t7 37t20 30q27 27 67 27t67 -27q26 -29 26 -67zM268 682q-23 0 -36 -15q-15 -15 -15 -38t15 -38q13 -15 36 -15t37 15q15 15 15 38t-15 38q-14 15 -37 15zM457 0h-83v57
q-41 -68 -133 -68q-78 0 -121.5 48.5t-43.5 132.5v310h83v-290q0 -60 27 -92t79 -32q49 0 79 32t30 86v296h83v-480z" />
    <glyph glyph-name="Uhungarumlaut" unicode="&#x170;" horiz-adv-x="639" 
d="M284 890h76l-89 -144h-65zM425 890h77l-90 -144h-65zM167 238q0 -81 40 -124.5t112 -43.5q73 0 113.5 43.5t40.5 124.5v442h87v-443q0 -118 -63.5 -183t-177.5 -65q-112 0 -176 65t-64 183v443h88v-442z" />
    <glyph glyph-name="uhungarumlaut" unicode="&#x171;" horiz-adv-x="540" 
d="M235 700h77l-89 -143h-65zM376 700h77l-89 -143h-65zM374 57q-41 -68 -133 -68q-78 0 -121.5 48.5t-43.5 132.5v310h83v-290q0 -60 27 -92t79 -32q49 0 79 32t30 86v296h83v-480h-83v57z" />
    <glyph glyph-name="Uogonek" unicode="&#x172;" horiz-adv-x="639" 
d="M560 680v-443q0 -105 -50 -167.5t-141 -76.5q-54 -22 -54 -60q0 -23 18 -32.5t43 -8.5v-59q-26 0 -48.5 4.5t-39 15.5t-26.5 29t-10 45q0 22 9 38.5t22 25.5q-97 11 -150.5 74.5t-53.5 171.5v443h88v-442q0 -81 40 -124.5t112 -43.5q73 0 113.5 43.5t40.5 124.5v442h87z
" />
    <glyph glyph-name="uogonek" unicode="&#x173;" horiz-adv-x="540" 
d="M444 -108v-59q-26 0 -48.5 4.5t-39 15.5t-26.5 29t-10 45q0 28 17 47t37 26v57q-41 -68 -133 -68q-78 0 -121.5 48.5t-43.5 132.5v310h83v-290q0 -60 27 -92t79 -32q49 0 79 32t30 86v296h83v-480q-39 -12 -56 -28t-17 -39t17.5 -32.5t42.5 -8.5z" />
    <glyph glyph-name="Wcircumflex" unicode="&#x174;" horiz-adv-x="822" 
d="M413 837l-73 -83h-66l109 143h60l110 -143h-66zM414 525l-149 -525h-72l-169 680h86l124 -523l146 523h68l149 -523l121 523h85l-168 -680h-72z" />
    <glyph glyph-name="wcircumflex" unicode="&#x175;" horiz-adv-x="745" 
d="M374 640l-73 -83h-66l109 143h60l110 -143h-66zM376 357l-114 -357h-74l-156 480h86l111 -363l112 363h69l116 -363l107 363h86l-156 -480h-75z" />
    <glyph glyph-name="Ycircumflex" unicode="&#x176;" horiz-adv-x="526" 
d="M406 754h-66l-74 83l-73 -83h-66l109 143h60zM311 279v-279h-88v279l-206 401h93l159 -307l157 307h91z" />
    <glyph glyph-name="ycircumflex" unicode="&#x177;" horiz-adv-x="476" 
d="M383 557h-66l-74 83l-73 -83h-66l109 143h60zM265 -38q-31 -83 -63 -112q-32 -30 -87 -30h-36v76h28q30 0 47.5 15.5t33.5 57.5l17 45l-180 466h89l131 -361l127 361h86z" />
    <glyph glyph-name="Zacute" unicode="&#x179;" horiz-adv-x="536" 
d="M296 888h89l-106 -144h-71zM49 76l339 524h-327v80h426v-75l-339 -525h339v-80h-438v76z" />
    <glyph glyph-name="zacute" unicode="&#x17a;" horiz-adv-x="476" 
d="M277 700h89l-106 -143h-70zM55 0v68l270 337h-257v75h354v-72l-268 -333h268v-75h-367z" />
    <glyph glyph-name="Zdotaccent" unicode="&#x17b;" horiz-adv-x="536" 
d="M230 869h76v-91h-76v91zM49 76l339 524h-327v80h426v-75l-339 -525h339v-80h-438v76z" />
    <glyph glyph-name="zdotaccent" unicode="&#x17c;" horiz-adv-x="476" 
d="M203 680h76v-91h-76v91zM55 0v68l270 337h-257v75h354v-72l-268 -333h268v-75h-367z" />
    <glyph glyph-name="Zcaron" unicode="&#x17d;" horiz-adv-x="536" 
d="M298 752h-60l-109 144h66l73 -83l74 83h66zM49 76l339 524h-327v80h426v-75l-339 -525h339v-80h-438v76z" />
    <glyph glyph-name="zcaron" unicode="&#x17e;" horiz-adv-x="476" 
d="M270 556h-60l-109 143h66l73 -83l74 83h66zM55 0v68l270 337h-257v75h354v-72l-268 -333h268v-75h-367z" />
    <glyph glyph-name="Scommaaccent" unicode="&#x218;" horiz-adv-x="592" 
d="M162 14q-68 26 -111 67l55 66q94 -77 198 -77q70 0 111 32t41 86q0 48 -33 76t-111 37l-33 5q-201 27 -201 187q0 90 60 144q61 54 162 54q126 0 215 -68l-45 -69q-42 28 -86.5 42.5t-86.5 14.5q-61 0 -95.5 -30.5t-34.5 -81.5q0 -46 34.5 -73.5t107.5 -37.5l34 -4
q201 -27 201 -190q0 -94 -64 -149.5t-184 -55.5q-72 0 -134 25zM262 -55h80v-81l-80 -101v182z" />
    <glyph glyph-name="scommaaccent" unicode="&#x219;" horiz-adv-x="490" 
d="M50 67l52 57q74 -62 156 -62q51 0 79 20t28 55q0 31 -20.5 47t-74.5 21l-50 5q-143 15 -143 135q0 69 46 107t131 38q51 0 93.5 -13.5t84.5 -44.5l-45 -57q-64 43 -137 43q-45 0 -68.5 -18t-23.5 -49q0 -30 21.5 -45.5t72.5 -20.5l50 -5q144 -14 144 -134q0 -73 -51 -115
t-142 -42q-119 0 -203 78zM211 -55h80v-81l-80 -101v182z" />
    <glyph glyph-name="uni021A" unicode="&#x21a;" horiz-adv-x="538" 
d="M225 600h-203v80h494v-80h-203v-600h-88v600zM229 -55h80v-81l-80 -101v182z" />
    <glyph glyph-name="uni021B" unicode="&#x21b;" horiz-adv-x="316" 
d="M222 -5q-69 0 -99 32t-30 104v281h-57v68h57v150h83v-150h93v-68h-93v-278q0 -36 13.5 -49t47.5 -13h32v-77h-47zM141 -55h80v-81l-80 -101v182z" />
    <glyph glyph-name="uni0237" unicode="&#x237;" horiz-adv-x="248" 
d="M-7 -180v76h26q36 0 50 13.5t14 51.5v519h83v-518q0 -75 -34 -108.5t-109 -33.5h-30z" />
    <glyph glyph-name="uni0394" unicode="&#x394;" horiz-adv-x="613" 
d="M270 680h81l241 -680h-564zM310 554l-171 -481h340z" />
    <glyph glyph-name="uni03BC" unicode="&#x3bc;" horiz-adv-x="560" 
d="M261 -11q-67 0 -95 45v-214h-83v660h83v-296q0 -57 27.5 -87.5t78.5 -30.5t81 33t30 87v294h83v-370q0 -27 7.5 -32.5t31.5 -5.5v-77h-25q-45 0 -64 16.5t-26 56.5q-16 -36 -48.5 -57.5t-80.5 -21.5z" />
    <glyph glyph-name="Wgrave" unicode="&#x1e80;" horiz-adv-x="822" 
d="M275 888h88l88 -144h-70zM414 525l-149 -525h-72l-169 680h86l124 -523l146 523h68l149 -523l121 523h85l-168 -680h-72z" />
    <glyph glyph-name="wgrave" unicode="&#x1e81;" horiz-adv-x="745" 
d="M233 700h88l88 -143h-69zM376 357l-114 -357h-74l-156 480h86l111 -363l112 363h69l116 -363l107 363h86l-156 -480h-75z" />
    <glyph glyph-name="Wacute" unicode="&#x1e82;" horiz-adv-x="822" 
d="M467 888h88l-106 -144h-70zM414 525l-149 -525h-72l-169 680h86l124 -523l146 523h68l149 -523l121 523h85l-168 -680h-72z" />
    <glyph glyph-name="wacute" unicode="&#x1e83;" horiz-adv-x="745" 
d="M430 700h89l-107 -143h-70zM376 357l-114 -357h-74l-156 480h86l111 -363l112 363h69l116 -363l107 363h86l-156 -480h-75z" />
    <glyph glyph-name="Wdieresis" unicode="&#x1e84;" horiz-adv-x="822" 
d="M351 778h-76v91h76v-91zM551 778h-77v91h77v-91zM635 0h-72l-149 525l-149 -525h-72l-169 680h86l124 -523l146 523h68l149 -523l121 523h85z" />
    <glyph glyph-name="wdieresis" unicode="&#x1e85;" horiz-adv-x="745" 
d="M313 589h-76v91h76v-91zM513 589h-77v91h77v-91zM563 0h-75l-112 357l-114 -357h-74l-156 480h86l111 -363l112 363h69l116 -363l107 363h86z" />
    <glyph glyph-name="Ygrave" unicode="&#x1ef2;" horiz-adv-x="526" 
d="M138 888h88l88 -144h-70zM311 279v-279h-88v279l-206 401h93l159 -307l157 307h91z" />
    <glyph glyph-name="ygrave" unicode="&#x1ef3;" horiz-adv-x="476" 
d="M296 557h-69l-106 143h88zM265 -38q-31 -83 -63 -112q-32 -30 -87 -30h-36v76h28q30 0 47.5 15.5t33.5 57.5l17 45l-180 466h88l132 -362l127 362h86z" />
    <glyph glyph-name="uni2010" unicode="&#x2010;" horiz-adv-x="380" 
d="M47 304h286v-75h-286v75z" />
    <glyph glyph-name="uni203D" unicode="&#x203d;" horiz-adv-x="455" 
d="M416 524q0 -35 -12.5 -66.5t-41.5 -69.5l-94 -129v-77h-84l-16 308h89l-3 -137l33 48q25 35 35.5 63t10.5 58q0 45 -27.5 70t-73.5 25q-43 0 -71.5 -23t-38.5 -69l-81 12q16 75 65.5 114.5t127.5 39.5q41 0 74.5 -12t57.5 -33.5t37 -52.5t13 -69zM273 0h-95v105h95v-105z
" />
    <glyph glyph-name="uni2105" unicode="&#x2105;" horiz-adv-x="776" 
d="M215 -11h-67l407 702h67zM317 623l-45 -37q-25 43 -69 43q-49 0 -64 -52q-7 -22 -7 -68q0 -47 7 -68q16 -52 65 -52q44 0 67 41l47 -36q-42 -64 -115 -64q-48 0 -81 23.5t-46 68.5q-10 31 -10 87t10 86q13 45 46 68.5t81 23.5q72 0 114 -64zM710 256q11 -39 11 -87
t-11 -87q-14 -45 -47 -68.5t-82 -23.5t-82.5 23.5t-46.5 68.5q-11 39 -11 87t11 87q13 45 47 69t82 24t81.5 -24t47.5 -69zM514 237q-7 -27 -7 -68q0 -40 7 -67q15 -54 67 -54q53 0 68 54q7 27 7 67q0 41 -7 68q-15 54 -68 54q-52 0 -67 -54z" />
    </font>
</defs>
</svg>
